<svg xmlns="http://www.w3.org/2000/svg" xmlns:xlink="http://www.w3.org/1999/xlink" width="500" zoomAndPan="magnify" viewBox="0 0 375 374.999991" height="500" preserveAspectRatio="xMidYMid meet" version="1.0"><defs><clipPath id="915826be1f"><path d="M 13 86.855469 L 363 86.855469 L 363 287.855469 L 13 287.855469 Z M 13 86.855469 " clip-rule="nonzero"/></clipPath><clipPath id="9dbc783ffd"><path d="M 13 93 L 363 93 L 363 287.855469 L 13 287.855469 Z M 13 93 " clip-rule="nonzero"/></clipPath><clipPath id="1d40324c45"><path d="M 76 86.855469 L 348 86.855469 L 348 225 L 76 225 Z M 76 86.855469 " clip-rule="nonzero"/></clipPath></defs><g clip-path="url(#915826be1f)"><path fill="#89e8cf" d="M 360.964844 247.382812 C 359.820312 248.375 358.261719 248.730469 356.765625 248.960938 C 346.945312 250.472656 336.929688 248.171875 327.515625 245.007812 C 321.464844 242.972656 315.507812 240.542969 309.792969 237.671875 C 315.875 244.167969 322.042969 250.582031 326.914062 258 C 328.203125 259.964844 329.425781 262.074219 329.695312 264.40625 C 329.964844 266.742188 329.054688 269.359375 326.972656 270.457031 C 325.632812 271.164062 324.035156 271.15625 322.523438 271.039062 C 312.617188 270.277344 303.390625 265.761719 294.945312 260.539062 C 280.902344 251.851562 268.070312 240.789062 259.171875 226.890625 C 258.445312 225.757812 257.753906 224.605469 257.085938 223.433594 C 255.277344 223.613281 253.472656 223.769531 251.679688 223.902344 C 250.691406 223.976562 249.707031 224.042969 248.722656 224.105469 C 243.804688 224.410156 238.9375 224.550781 234.128906 224.554688 C 233.167969 224.554688 232.207031 224.546875 231.25 224.539062 C 227.472656 224.492188 223.730469 224.363281 220.03125 224.152344 C 219.925781 224.144531 219.824219 224.140625 219.71875 224.132812 C 217.964844 224.03125 216.222656 223.910156 214.488281 223.773438 C 213.5 223.695312 212.511719 223.613281 211.527344 223.523438 C 209.96875 223.382812 208.421875 223.226562 206.882812 223.058594 C 212.011719 227.992188 216.992188 233.046875 221.230469 238.75 C 222.742188 240.78125 224.1875 242.96875 224.625 245.460938 C 225.0625 247.953125 224.25 250.824219 222.085938 252.132812 C 220.6875 252.980469 218.972656 253.070312 217.335938 253.039062 C 206.640625 252.847656 196.4375 248.574219 187.03125 243.492188 C 174.023438 236.460938 161.820312 227.609375 152.070312 216.5625 C 153.863281 224.308594 157.410156 231.824219 161.523438 238.683594 C 168.65625 250.570312 177.597656 261.4375 183.265625 274.085938 C 184.300781 276.394531 185.238281 278.84375 185.125 281.371094 C 185.011719 283.898438 183.597656 286.523438 181.199219 287.335938 C 179.652344 287.863281 177.953125 287.578125 176.367188 287.195312 C 165.964844 284.699219 156.929688 278.324219 148.847656 271.332031 C 135.402344 259.699219 123.652344 245.75 116.574219 229.457031 C 111.832031 218.550781 109.316406 206.519531 109.800781 194.679688 C 108.867188 194.234375 107.945312 193.785156 107.042969 193.34375 C 106.011719 192.835938 105.003906 192.335938 104.019531 191.839844 C 103.039062 191.34375 102.078125 190.851562 101.144531 190.367188 C 100.675781 190.125 100.214844 189.882812 99.757812 189.644531 C 98.390625 188.929688 97.078125 188.226562 95.824219 187.546875 C 94.988281 187.09375 94.175781 186.644531 93.390625 186.210938 C 92.996094 185.992188 92.609375 185.773438 92.230469 185.5625 C 91.46875 185.132812 90.734375 184.71875 90.027344 184.3125 C 89.675781 184.109375 89.328125 183.910156 88.988281 183.710938 C 88.433594 183.390625 87.898438 183.078125 87.378906 182.773438 C 85.828125 181.855469 84.433594 181.015625 83.210938 180.257812 C 81.578125 179.25 80.246094 178.398438 79.230469 177.734375 C 77.667969 176.714844 76.855469 176.144531 76.855469 176.144531 C 77.164062 175.304688 77.488281 174.464844 77.820312 173.621094 C 77.929688 173.34375 78.039062 173.066406 78.152344 172.792969 C 78.386719 172.207031 78.625 171.625 78.871094 171.039062 C 79 170.730469 79.125 170.425781 79.253906 170.121094 C 79.558594 169.410156 79.875 168.695312 80.191406 167.984375 C 80.425781 167.46875 80.664062 166.953125 80.902344 166.4375 C 81.011719 166.199219 81.121094 165.964844 81.234375 165.726562 C 81.4375 165.292969 81.636719 164.855469 81.847656 164.421875 C 80.589844 162.796875 79.308594 161.207031 78.074219 159.636719 C 73.675781 154.035156 69.164062 148.265625 63.914062 143.421875 C 63.542969 143.078125 63.144531 142.675781 62.734375 142.351562 C 62.605469 142.273438 62.464844 142.195312 62.386719 142.164062 C 60.90625 141.582031 59.304688 141.503906 57.734375 141.390625 C 53.9375 141.117188 50.164062 140.785156 46.371094 140.460938 C 38.941406 139.828125 30.796875 139.722656 23.738281 137.101562 C 16.144531 134.285156 12.140625 126.941406 14.011719 119.046875 C 15.832031 111.359375 21.667969 104.671875 27.855469 100.039062 C 43.570312 88.273438 64.378906 95.257812 79.535156 104.386719 C 89.460938 110.367188 99.003906 118.238281 106.59375 127.476562 C 107.335938 126.644531 108.082031 125.824219 108.839844 125.011719 C 108.515625 123.863281 108.632812 122.589844 109.25 121.429688 C 110.195312 119.640625 112.503906 118.8125 114.429688 119.3125 C 123.128906 110.949219 132.511719 104.121094 141.960938 99.828125 C 156.835938 93.066406 172.621094 89.472656 188.59375 88.378906 C 189.394531 87.527344 190.523438 86.992188 191.882812 86.929688 C 192.960938 86.882812 194.050781 87.339844 194.902344 88.074219 C 206.046875 87.765625 217.238281 88.628906 228.234375 90.457031 C 249.636719 94.007812 270.863281 101.269531 288.792969 114.898438 C 297.839844 121.777344 305.800781 130.066406 313.035156 139.214844 C 313.410156 139.097656 313.785156 138.980469 314.160156 138.863281 C 316.621094 138.089844 319.078125 139.773438 319.824219 142.070312 C 320.359375 143.722656 319.734375 145.414062 318.558594 146.550781 C 325.730469 156.527344 332.203125 167.292969 338.382812 178.234375 C 338.421875 178.300781 338.460938 178.371094 338.5 178.4375 C 339.933594 180.984375 341.355469 183.539062 342.765625 186.097656 C 342.851562 186.253906 342.9375 186.414062 343.027344 186.570312 C 344.441406 189.140625 345.847656 191.710938 347.246094 194.273438 C 347.246094 194.273438 347.246094 194.273438 347.246094 194.277344 L 344.097656 196.460938 C 343.960938 196.535156 343.824219 196.609375 343.683594 196.683594 C 342.851562 197.136719 342.019531 197.585938 341.191406 198.027344 C 341.136719 198.054688 341.085938 198.082031 341.03125 198.109375 C 334.285156 201.679688 327.546875 204.824219 320.828125 207.589844 C 322.785156 209.316406 324.816406 210.953125 326.882812 212.492188 C 337.207031 220.199219 348.726562 226.394531 358.0625 235.265625 C 359.769531 236.886719 361.4375 238.660156 362.234375 240.875 C 363.027344 243.085938 362.738281 245.839844 360.964844 247.382812 Z M 360.964844 247.382812 " fill-opacity="1" fill-rule="nonzero"/></g><g clip-path="url(#9dbc783ffd)"><path fill="#89e8cf" d="M 79.535156 104.386719 C 64.378906 95.257812 43.570312 88.273438 27.855469 100.039062 C 21.667969 104.671875 15.832031 111.359375 14.011719 119.046875 C 12.140625 126.941406 16.144531 134.285156 23.738281 137.101562 C 30.796875 139.722656 38.941406 139.828125 46.371094 140.460938 C 50.164062 140.785156 53.9375 141.117188 57.734375 141.390625 C 59.304688 141.503906 60.90625 141.582031 62.386719 142.164062 C 62.464844 142.195312 62.605469 142.273438 62.734375 142.351562 C 63.144531 142.675781 63.542969 143.078125 63.914062 143.421875 C 69.164062 148.265625 73.675781 154.035156 78.074219 159.636719 C 79.308594 161.207031 80.589844 162.796875 81.847656 164.421875 C 82.554688 162.953125 83.300781 161.488281 84.066406 160.027344 C 84.066406 160.023438 84.070312 160.019531 84.070312 160.015625 C 90.074219 148.5625 97.828125 137.320312 106.59375 127.476562 C 99.003906 118.238281 89.460938 110.367188 79.535156 104.386719 Z M 40.46875 126.464844 C 40.113281 127.160156 39.53125 127.582031 38.785156 127.785156 C 38.441406 127.878906 38.128906 127.863281 37.855469 127.789062 C 30.671875 129.917969 22.328125 129.191406 17.074219 123.328125 C 15.546875 121.625 18.0625 119.101562 19.597656 120.8125 C 24.425781 126.203125 32.09375 126.15625 38.453125 123.851562 C 40.019531 123.285156 41.113281 125.203125 40.46875 126.464844 Z M 41.824219 120.894531 C 36.03125 121.957031 30.488281 118.179688 29.441406 112.457031 C 28.394531 106.738281 32.238281 101.242188 38.03125 100.179688 C 43.824219 99.121094 49.371094 102.898438 50.417969 108.617188 C 51.464844 114.335938 47.617188 119.832031 41.824219 120.894531 Z M 58.367188 130.382812 C 57.707031 129.5625 57.632812 128.324219 58.578125 127.414062 C 60.230469 125.820312 64.113281 126.515625 62.976562 129.441406 C 62.570312 130.488281 61.476562 131.1875 60.355469 131.25 C 59.515625 131.296875 58.808594 130.929688 58.367188 130.382812 Z M 71.082031 136.097656 C 70.363281 137.582031 68.238281 138.535156 66.007812 138.570312 C 64.335938 138.59375 62.894531 138.035156 61.964844 137.222656 C 60.574219 136.007812 60.320312 134.222656 62.121094 132.957031 C 65.277344 130.742188 73.089844 131.933594 71.082031 136.097656 Z M 70.179688 128.402344 C 68.597656 128.652344 66.945312 127.804688 66.066406 126.464844 C 65.410156 125.464844 65.351562 124.335938 65.714844 123.394531 C 66.257812 121.996094 67.734375 121.019531 69.535156 121.527344 C 72.691406 122.421875 74.613281 127.707031 70.179688 128.402344 Z M 80.261719 138.636719 C 78.941406 139.148438 77.355469 138.722656 76.34375 137.730469 C 75.585938 136.988281 75.324219 136.019531 75.464844 135.140625 C 75.667969 133.828125 76.765625 132.707031 78.414062 132.8125 C 81.3125 132.996094 83.964844 137.207031 80.261719 138.636719 Z M 85.308594 128.289062 C 84.570312 129.363281 82.632812 129.871094 80.664062 129.652344 C 79.191406 129.492188 77.964844 128.902344 77.203125 128.171875 C 76.066406 127.078125 75.972656 125.667969 77.648438 124.882812 C 80.585938 123.507812 87.375 125.285156 85.308594 128.289062 Z M 362.234375 240.875 C 361.4375 238.660156 359.769531 236.886719 358.0625 235.265625 C 348.726562 226.394531 337.207031 220.199219 326.882812 212.492188 C 324.816406 210.953125 322.785156 209.316406 320.828125 207.589844 C 314.175781 210.324219 307.542969 212.683594 300.949219 214.699219 C 300.007812 214.988281 299.066406 215.269531 298.125 215.542969 C 296.515625 216.011719 294.910156 216.457031 293.304688 216.886719 C 289.652344 217.863281 286.007812 218.738281 282.382812 219.515625 C 281.175781 219.773438 279.96875 220.019531 278.765625 220.257812 C 276.730469 220.65625 274.703125 221.027344 272.679688 221.367188 C 267.4375 222.25 262.238281 222.929688 257.085938 223.433594 C 257.753906 224.605469 258.445312 225.757812 259.171875 226.890625 C 268.070312 240.789062 280.902344 251.851562 294.945312 260.539062 C 303.390625 265.761719 312.617188 270.277344 322.523438 271.039062 C 324.035156 271.15625 325.632812 271.164062 326.972656 270.457031 C 329.054688 269.359375 329.964844 266.742188 329.695312 264.40625 C 329.425781 262.074219 328.203125 259.964844 326.914062 258 C 322.042969 250.582031 315.875 244.167969 309.792969 237.671875 C 315.507812 240.542969 321.464844 242.972656 327.515625 245.007812 C 336.929688 248.171875 346.945312 250.472656 356.765625 248.960938 C 358.261719 248.730469 359.820312 248.375 360.964844 247.382812 C 362.738281 245.839844 363.027344 243.085938 362.234375 240.875 Z M 308.011719 258.730469 C 306.996094 259.964844 304.773438 260.375 302.664062 259.894531 C 301.082031 259.53125 299.855469 258.671875 299.164062 257.691406 C 298.136719 256.226562 298.3125 254.488281 300.300781 253.710938 C 303.785156 252.351562 310.867188 255.273438 308.011719 258.730469 Z M 308.191406 251.066406 C 306.859375 251.867188 305.066406 251.703125 303.789062 250.820312 C 302.828125 250.15625 302.367188 249.164062 302.351562 248.1875 C 302.328125 246.730469 303.300781 245.316406 305.105469 245.121094 C 308.269531 244.777344 311.921875 248.828125 308.191406 251.066406 Z M 323.117188 267.324219 C 322.390625 267.96875 320.890625 267.996094 319.503906 267.488281 C 318.460938 267.109375 317.675781 266.464844 317.253906 265.796875 C 316.625 264.800781 316.804688 263.761719 318.160156 263.488281 C 320.539062 263.015625 325.152344 265.507812 323.117188 267.324219 Z M 312.972656 252.871094 C 316.054688 252.253906 322.039062 255.492188 319.398438 257.84375 C 318.457031 258.6875 316.511719 258.71875 314.710938 258.0625 C 313.359375 257.566406 312.339844 256.730469 311.792969 255.867188 C 310.976562 254.574219 311.210938 253.226562 312.972656 252.871094 Z M 311.636719 260.335938 C 313.796875 260.128906 316.253906 262.921875 313.691406 264.417969 C 312.773438 264.949219 311.554688 264.824219 310.691406 264.210938 C 310.042969 263.753906 309.734375 263.070312 309.734375 262.40625 C 309.730469 261.410156 310.402344 260.457031 311.636719 260.335938 Z M 336.25 228.570312 C 338.917969 227.882812 342.554688 230.902344 339.636719 233.28125 C 338.59375 234.132812 337.039062 234.214844 335.832031 233.617188 C 334.929688 233.167969 334.410156 232.371094 334.273438 231.539062 C 334.074219 230.292969 334.730469 228.960938 336.25 228.570312 Z M 340.4375 239.871094 C 339.71875 241.054688 337.867188 241.679688 336 241.53125 C 334.601562 241.417969 333.441406 240.835938 332.730469 240.078125 C 331.664062 238.953125 331.597656 237.4375 333.203125 236.527344 C 336.023438 234.929688 342.453125 236.554688 340.4375 239.871094 Z M 346.011719 244.039062 C 345.292969 244.609375 344.230469 244.652344 343.414062 244.234375 C 342.804688 243.921875 342.457031 243.375 342.371094 242.804688 C 342.242188 241.953125 342.703125 241.050781 343.742188 240.796875 C 345.566406 240.351562 348.023438 242.4375 346.011719 244.039062 Z M 346.09375 238.464844 C 344.875 238.210938 343.898438 237.621094 343.320312 236.945312 C 342.460938 235.941406 342.496094 234.753906 343.957031 234.234375 C 346.523438 233.324219 352.054688 235.351562 350.085938 237.699219 C 349.382812 238.535156 347.71875 238.804688 346.09375 238.464844 Z M 354.449219 245.355469 C 353.910156 246.003906 352.628906 246.210938 351.375 245.949219 C 350.4375 245.75 349.683594 245.296875 349.238281 244.777344 C 348.574219 244.003906 348.601562 243.089844 349.726562 242.6875 C 351.707031 241.984375 355.96875 243.550781 354.449219 245.355469 Z M 221.230469 238.75 C 216.992188 233.046875 212.011719 227.992188 206.882812 223.058594 C 205.691406 222.929688 204.503906 222.792969 203.320312 222.648438 C 201.515625 222.429688 199.71875 222.191406 197.9375 221.933594 C 196.300781 221.699219 194.671875 221.449219 193.054688 221.1875 C 192.765625 221.140625 192.476562 221.09375 192.191406 221.046875 C 187.078125 220.203125 182.078125 219.230469 177.199219 218.148438 C 176.363281 217.960938 175.53125 217.773438 174.703125 217.582031 C 173.046875 217.199219 171.402344 216.804688 169.773438 216.398438 C 165.707031 215.386719 161.734375 214.300781 157.863281 213.167969 C 156.316406 212.710938 154.785156 212.25 153.273438 211.777344 C 151.757812 211.308594 150.261719 210.832031 148.78125 210.347656 C 145.824219 209.378906 142.9375 208.382812 140.121094 207.371094 C 138.714844 206.867188 137.328125 206.355469 135.960938 205.839844 C 128.429688 203.015625 121.480469 200.082031 115.195312 197.207031 C 114.050781 196.683594 112.929688 196.164062 111.832031 195.648438 C 111.285156 195.390625 110.738281 195.128906 110.203125 194.875 C 110.066406 194.808594 109.9375 194.746094 109.800781 194.679688 C 109.316406 206.519531 111.832031 218.550781 116.574219 229.457031 C 123.652344 245.75 135.402344 259.699219 148.847656 271.332031 C 156.929688 278.324219 165.964844 284.699219 176.367188 287.195312 C 177.953125 287.578125 179.652344 287.863281 181.199219 287.335938 C 183.597656 286.523438 185.011719 283.898438 185.125 281.371094 C 185.238281 278.84375 184.300781 276.394531 183.265625 274.085938 C 177.597656 261.4375 168.65625 250.570312 161.523438 238.683594 C 157.410156 231.824219 153.863281 224.308594 152.070312 216.5625 C 161.820312 227.609375 174.023438 236.460938 187.03125 243.492188 C 196.4375 248.574219 206.640625 252.847656 217.335938 253.039062 C 218.972656 253.070312 220.6875 252.980469 222.085938 252.132812 C 224.25 250.824219 225.0625 247.953125 224.625 245.460938 C 224.1875 242.96875 222.742188 240.78125 221.230469 238.75 Z M 173.480469 281.292969 C 172.429688 281.867188 170.628906 281.476562 169.109375 280.480469 C 167.96875 279.734375 167.207031 278.742188 166.890625 277.824219 C 166.414062 276.457031 166.925781 275.261719 168.625 275.316406 C 171.609375 275.410156 176.429688 279.691406 173.480469 281.292969 Z M 172.101562 266.921875 C 175.085938 267.019531 179.90625 271.296875 176.957031 272.902344 C 175.90625 273.472656 174.105469 273.082031 172.582031 272.089844 C 171.441406 271.339844 170.683594 270.347656 170.367188 269.433594 C 169.890625 268.0625 170.402344 266.867188 172.101562 266.921875 Z M 162.359375 262.144531 C 162.65625 260.792969 163.859375 259.699219 165.566406 259.90625 C 168.5625 260.273438 171.058594 264.800781 167.128906 266.0625 C 165.722656 266.511719 164.105469 265.972656 163.117188 264.882812 C 162.375 264.066406 162.164062 263.046875 162.359375 262.144531 Z M 161.695312 269.710938 C 164.339844 270.066406 166.5 274.101562 163.007812 275.175781 C 161.761719 275.558594 160.335938 275.0625 159.472656 274.089844 C 158.824219 273.355469 158.648438 272.453125 158.832031 271.65625 C 159.109375 270.464844 160.1875 269.507812 161.695312 269.710938 Z M 158.066406 267.402344 C 156.859375 268.324219 154.71875 268.222656 152.875 267.320312 C 151.492188 266.644531 150.546875 265.589844 150.121094 264.535156 C 149.492188 262.960938 150.027344 261.390625 152.03125 261.101562 C 155.546875 260.601562 161.449219 264.828125 158.066406 267.402344 Z M 194.453125 236.734375 C 193.492188 237.910156 191.386719 238.308594 189.386719 237.863281 C 187.882812 237.527344 186.714844 236.71875 186.058594 235.792969 C 185.074219 234.410156 185.230469 232.757812 187.113281 232.011719 C 190.414062 230.707031 197.140625 233.441406 194.453125 236.734375 Z M 201.074219 243.140625 C 199.953125 243.804688 198.449219 243.65625 197.382812 242.90625 C 196.582031 242.347656 196.199219 241.511719 196.191406 240.691406 C 196.183594 239.46875 197.007812 238.289062 198.519531 238.136719 C 201.175781 237.867188 204.21875 241.285156 201.074219 243.140625 Z M 202.949219 233.320312 C 201.691406 234.085938 199.992188 233.941406 198.773438 233.109375 C 197.863281 232.488281 197.417969 231.546875 197.398438 230.621094 C 197.371094 229.238281 198.285156 227.894531 199.996094 227.699219 C 202.992188 227.359375 206.476562 231.179688 202.949219 233.320312 Z M 212.691406 246.65625 C 211.800781 247.457031 209.957031 247.496094 208.246094 246.882812 C 206.960938 246.421875 205.992188 245.632812 205.46875 244.816406 C 204.6875 243.59375 204.902344 242.3125 206.570312 241.972656 C 209.492188 241.371094 215.183594 244.40625 212.691406 246.65625 Z M 214.109375 237.683594 C 213.21875 238.484375 211.378906 238.523438 209.664062 237.910156 C 208.382812 237.449219 207.410156 236.660156 206.886719 235.84375 C 206.105469 234.625 206.324219 233.34375 207.988281 233 C 210.914062 232.398438 216.601562 235.4375 214.109375 237.683594 Z M 214.109375 237.683594 " fill-opacity="1" fill-rule="nonzero"/></g><path fill="#fff9d9" d="M 38.03125 100.179688 C 32.238281 101.242188 28.394531 106.738281 29.441406 112.457031 C 30.488281 118.179688 36.03125 121.957031 41.824219 120.894531 C 47.617188 119.832031 51.464844 114.335938 50.417969 108.617188 C 49.371094 102.898438 43.824219 99.121094 38.03125 100.179688 Z M 41.542969 118.152344 C 37.304688 118.929688 33.25 116.167969 32.484375 111.980469 C 32.167969 110.269531 32.464844 108.585938 33.203125 107.140625 C 33.472656 108.847656 34.945312 110.15625 36.726562 110.148438 C 38.699219 110.140625 40.289062 108.535156 40.28125 106.5625 C 40.273438 105.007812 39.265625 103.703125 37.875 103.222656 C 38.167969 103.132812 38.460938 103.054688 38.769531 103 C 43.007812 102.222656 47.0625 104.984375 47.828125 109.171875 C 48.59375 113.355469 45.78125 117.378906 41.542969 118.152344 Z M 80.261719 138.636719 C 78.941406 139.148438 77.355469 138.722656 76.34375 137.730469 C 75.585938 136.988281 75.324219 136.019531 75.464844 135.140625 C 75.667969 133.828125 76.765625 132.707031 78.414062 132.8125 C 81.3125 132.996094 83.964844 137.207031 80.261719 138.636719 Z M 85.308594 128.289062 C 84.570312 129.363281 82.632812 129.871094 80.664062 129.652344 C 79.191406 129.492188 77.964844 128.902344 77.203125 128.171875 C 76.066406 127.078125 75.972656 125.667969 77.648438 124.882812 C 80.585938 123.507812 87.375 125.285156 85.308594 128.289062 Z M 71.082031 136.097656 C 70.363281 137.582031 68.238281 138.535156 66.007812 138.570312 C 64.335938 138.59375 62.894531 138.035156 61.964844 137.222656 C 60.574219 136.007812 60.320312 134.222656 62.121094 132.957031 C 65.277344 130.742188 73.089844 131.933594 71.082031 136.097656 Z M 70.179688 128.402344 C 68.597656 128.652344 66.945312 127.804688 66.066406 126.464844 C 65.410156 125.464844 65.351562 124.335938 65.714844 123.394531 C 66.257812 121.996094 67.734375 121.019531 69.535156 121.527344 C 72.691406 122.421875 74.613281 127.707031 70.179688 128.402344 Z M 60.355469 131.25 C 59.515625 131.296875 58.808594 130.929688 58.367188 130.382812 C 57.707031 129.5625 57.632812 128.324219 58.578125 127.414062 C 60.230469 125.820312 64.113281 126.515625 62.976562 129.441406 C 62.570312 130.488281 61.476562 131.1875 60.355469 131.25 Z M 313.691406 264.417969 C 312.773438 264.949219 311.554688 264.824219 310.691406 264.210938 C 310.042969 263.753906 309.734375 263.070312 309.734375 262.40625 C 309.730469 261.410156 310.402344 260.457031 311.636719 260.335938 C 313.796875 260.128906 316.253906 262.921875 313.691406 264.417969 Z M 311.792969 255.867188 C 310.976562 254.574219 311.210938 253.226562 312.972656 252.871094 C 316.054688 252.253906 322.039062 255.492188 319.398438 257.84375 C 318.457031 258.6875 316.511719 258.71875 314.710938 258.0625 C 313.359375 257.566406 312.339844 256.730469 311.792969 255.867188 Z M 308.011719 258.730469 C 306.996094 259.964844 304.773438 260.375 302.664062 259.894531 C 301.082031 259.53125 299.855469 258.671875 299.164062 257.691406 C 298.136719 256.226562 298.3125 254.488281 300.300781 253.710938 C 303.785156 252.351562 310.867188 255.273438 308.011719 258.730469 Z M 308.191406 251.066406 C 306.859375 251.867188 305.066406 251.703125 303.789062 250.820312 C 302.828125 250.15625 302.367188 249.164062 302.351562 248.1875 C 302.328125 246.730469 303.300781 245.316406 305.105469 245.121094 C 308.269531 244.777344 311.921875 248.828125 308.191406 251.066406 Z M 323.117188 267.324219 C 322.390625 267.96875 320.890625 267.996094 319.503906 267.488281 C 318.460938 267.109375 317.675781 266.464844 317.253906 265.796875 C 316.625 264.800781 316.804688 263.761719 318.160156 263.488281 C 320.539062 263.015625 325.152344 265.507812 323.117188 267.324219 Z M 346.011719 244.039062 C 345.292969 244.609375 344.230469 244.652344 343.414062 244.234375 C 342.804688 243.921875 342.457031 243.375 342.371094 242.804688 C 342.242188 241.953125 342.703125 241.050781 343.742188 240.796875 C 345.566406 240.351562 348.023438 242.4375 346.011719 244.039062 Z M 350.085938 237.699219 C 349.382812 238.535156 347.71875 238.804688 346.09375 238.464844 C 344.875 238.210938 343.898438 237.621094 343.320312 236.945312 C 342.460938 235.941406 342.496094 234.753906 343.957031 234.234375 C 346.523438 233.324219 352.054688 235.351562 350.085938 237.699219 Z M 340.4375 239.871094 C 339.71875 241.054688 337.867188 241.679688 336 241.53125 C 334.601562 241.417969 333.441406 240.835938 332.730469 240.078125 C 331.664062 238.953125 331.597656 237.4375 333.203125 236.527344 C 336.023438 234.929688 342.453125 236.554688 340.4375 239.871094 Z M 334.273438 231.539062 C 334.074219 230.292969 334.730469 228.960938 336.25 228.570312 C 338.917969 227.882812 342.554688 230.902344 339.636719 233.28125 C 338.59375 234.132812 337.039062 234.214844 335.832031 233.617188 C 334.929688 233.167969 334.410156 232.371094 334.273438 231.539062 Z M 354.449219 245.355469 C 353.910156 246.003906 352.628906 246.210938 351.375 245.949219 C 350.4375 245.75 349.683594 245.296875 349.238281 244.777344 C 348.574219 244.003906 348.601562 243.089844 349.726562 242.6875 C 351.707031 241.984375 355.96875 243.550781 354.449219 245.355469 Z M 201.074219 243.140625 C 199.953125 243.804688 198.449219 243.65625 197.382812 242.90625 C 196.582031 242.347656 196.199219 241.511719 196.191406 240.691406 C 196.183594 239.46875 197.007812 238.289062 198.519531 238.136719 C 201.175781 237.867188 204.21875 241.285156 201.074219 243.140625 Z M 214.109375 237.683594 C 213.21875 238.484375 211.378906 238.523438 209.664062 237.910156 C 208.382812 237.449219 207.410156 236.660156 206.886719 235.84375 C 206.105469 234.625 206.324219 233.34375 207.988281 233 C 210.914062 232.398438 216.601562 235.4375 214.109375 237.683594 Z M 194.453125 236.734375 C 193.492188 237.910156 191.386719 238.308594 189.386719 237.863281 C 187.882812 237.527344 186.714844 236.71875 186.058594 235.792969 C 185.074219 234.410156 185.230469 232.757812 187.113281 232.011719 C 190.414062 230.707031 197.140625 233.441406 194.453125 236.734375 Z M 202.949219 233.320312 C 201.691406 234.085938 199.992188 233.941406 198.773438 233.109375 C 197.863281 232.488281 197.417969 231.546875 197.398438 230.621094 C 197.371094 229.238281 198.285156 227.894531 199.996094 227.699219 C 202.992188 227.359375 206.476562 231.179688 202.949219 233.320312 Z M 212.691406 246.65625 C 211.800781 247.457031 209.957031 247.496094 208.246094 246.882812 C 206.960938 246.421875 205.992188 245.632812 205.46875 244.816406 C 204.6875 243.59375 204.902344 242.3125 206.570312 241.972656 C 209.492188 241.371094 215.183594 244.40625 212.691406 246.65625 Z M 163.007812 275.175781 C 161.761719 275.558594 160.335938 275.0625 159.472656 274.089844 C 158.824219 273.355469 158.648438 272.453125 158.832031 271.65625 C 159.109375 270.464844 160.1875 269.507812 161.695312 269.710938 C 164.339844 270.066406 166.5 274.101562 163.007812 275.175781 Z M 176.957031 272.902344 C 175.90625 273.472656 174.105469 273.082031 172.582031 272.089844 C 171.441406 271.339844 170.683594 270.347656 170.367188 269.433594 C 169.890625 268.0625 170.402344 266.867188 172.101562 266.921875 C 175.085938 267.019531 179.90625 271.296875 176.957031 272.902344 Z M 158.066406 267.402344 C 156.859375 268.324219 154.71875 268.222656 152.875 267.320312 C 151.492188 266.644531 150.546875 265.589844 150.121094 264.535156 C 149.492188 262.960938 150.027344 261.390625 152.03125 261.101562 C 155.546875 260.601562 161.449219 264.828125 158.066406 267.402344 Z M 167.128906 266.0625 C 165.722656 266.511719 164.105469 265.972656 163.117188 264.882812 C 162.375 264.066406 162.164062 263.046875 162.359375 262.144531 C 162.65625 260.792969 163.859375 259.699219 165.566406 259.90625 C 168.5625 260.273438 171.058594 264.800781 167.128906 266.0625 Z M 173.480469 281.292969 C 172.429688 281.867188 170.628906 281.476562 169.109375 280.480469 C 167.96875 279.734375 167.207031 278.742188 166.890625 277.824219 C 166.414062 276.457031 166.925781 275.261719 168.625 275.316406 C 171.609375 275.410156 176.429688 279.691406 173.480469 281.292969 Z M 173.480469 281.292969 " fill-opacity="1" fill-rule="nonzero"/><path fill="#383c61" d="M 41.542969 118.152344 C 37.304688 118.929688 33.25 116.167969 32.484375 111.980469 C 32.167969 110.269531 32.464844 108.585938 33.203125 107.140625 C 33.472656 108.847656 34.945312 110.15625 36.726562 110.148438 C 38.699219 110.140625 40.289062 108.535156 40.28125 106.5625 C 40.273438 105.007812 39.265625 103.703125 37.875 103.222656 C 38.167969 103.132812 38.460938 103.054688 38.769531 103 C 43.007812 102.222656 47.0625 104.984375 47.828125 109.171875 C 48.59375 113.355469 45.78125 117.378906 41.542969 118.152344 Z M 38.453125 123.851562 C 32.09375 126.15625 24.425781 126.203125 19.597656 120.8125 C 18.0625 119.101562 15.546875 121.625 17.074219 123.328125 C 22.328125 129.191406 30.671875 129.917969 37.855469 127.789062 C 38.128906 127.863281 38.441406 127.878906 38.785156 127.785156 C 39.53125 127.582031 40.113281 127.160156 40.46875 126.464844 C 41.113281 125.203125 40.019531 123.285156 38.453125 123.851562 Z M 38.453125 123.851562 " fill-opacity="1" fill-rule="nonzero"/><path fill="#ff8f56" d="M 318.558594 146.550781 C 325.730469 156.527344 332.203125 167.292969 338.382812 178.234375 C 324.621094 185.382812 309.054688 191.195312 295.882812 194.214844 C 294.132812 194.617188 292.386719 194.992188 290.636719 195.355469 C 290.410156 182.328125 289.832031 169.308594 288.894531 156.3125 C 290.496094 156.015625 292.0625 155.441406 293.621094 154.953125 C 295.925781 154.226562 298.234375 153.503906 300.539062 152.777344 C 305.894531 151.09375 311.253906 149.410156 316.609375 147.722656 C 317.339844 147.496094 318.007812 147.082031 318.558594 146.550781 Z M 150.671875 138.46875 C 150.738281 138.488281 150.878906 138.542969 151.023438 138.59375 C 151.125 138.546875 151.226562 138.496094 151.328125 138.445312 C 152.171875 138.035156 153.015625 137.621094 153.859375 137.210938 C 160.753906 133.847656 167.652344 130.480469 174.546875 127.117188 C 176.375 126.222656 178.203125 125.332031 180.035156 124.4375 C 180.824219 124.054688 181.621094 123.679688 182.402344 123.277344 C 182.738281 123.105469 183.058594 122.894531 183.398438 122.726562 C 183.5 122.660156 183.574219 122.609375 183.625 122.574219 C 183.636719 122.566406 183.648438 122.554688 183.660156 122.546875 C 183.691406 122.507812 183.707031 122.492188 183.734375 122.464844 C 183.789062 122.371094 183.820312 122.316406 183.835938 122.296875 C 183.910156 122.070312 183.972656 121.839844 184.027344 121.609375 C 184.175781 120.984375 184.261719 120.351562 184.351562 119.71875 C 184.363281 119.625 184.375 119.546875 184.386719 119.484375 C 184.394531 119.398438 184.414062 119.269531 184.4375 119.078125 C 184.5 118.613281 184.5625 118.148438 184.621094 117.679688 C 184.742188 116.75 184.859375 115.816406 184.976562 114.886719 C 185.9375 107.121094 186.703125 99.328125 187.28125 91.523438 C 187.371094 90.273438 187.839844 89.1875 188.59375 88.378906 C 172.621094 89.472656 156.835938 93.066406 141.960938 99.828125 C 132.511719 104.121094 123.128906 110.949219 114.429688 119.3125 C 114.824219 119.414062 115.203125 119.566406 115.546875 119.78125 C 122.632812 124.1875 129.898438 128.296875 137.332031 132.085938 C 140.515625 133.710938 143.730469 135.277344 146.972656 136.78125 C 147.921875 137.21875 148.867188 137.65625 149.820312 138.082031 C 150.101562 138.210938 150.386719 138.339844 150.671875 138.46875 Z M 313.035156 139.214844 C 305.800781 130.066406 297.839844 121.777344 288.792969 114.898438 C 270.863281 101.269531 249.636719 94.007812 228.234375 90.457031 C 217.238281 88.628906 206.046875 87.765625 194.902344 88.074219 C 195.910156 88.949219 196.582031 90.21875 196.488281 91.523438 C 195.804688 100.734375 194.863281 109.921875 193.644531 119.078125 C 193.507812 120.105469 193.414062 121.179688 193.257812 122.242188 C 198.617188 125.941406 203.976562 129.644531 209.335938 133.34375 C 212.0625 135.222656 214.789062 137.105469 217.515625 138.988281 C 218.863281 139.917969 220.1875 140.90625 221.585938 141.761719 C 221.808594 141.898438 222.058594 142.019531 222.277344 142.164062 C 222.355469 142.21875 222.414062 142.257812 222.457031 142.292969 C 222.5 142.300781 222.546875 142.3125 222.605469 142.328125 C 222.6875 142.351562 222.78125 142.382812 222.878906 142.414062 C 222.941406 142.394531 223.035156 142.375 223.117188 142.363281 C 223.152344 142.339844 223.1875 142.316406 223.234375 142.292969 C 223.601562 142.078125 223.964844 141.867188 224.320312 141.640625 C 224.957031 141.230469 225.574219 140.792969 226.199219 140.371094 C 227.4375 139.53125 228.675781 138.6875 229.914062 137.847656 C 232.585938 136.03125 235.257812 134.21875 237.929688 132.402344 C 239.363281 131.429688 240.796875 130.453125 242.230469 129.480469 C 242.859375 129.054688 243.488281 128.632812 244.109375 128.203125 C 244.214844 128.132812 244.796875 127.65625 244.710938 127.746094 C 244.800781 127.660156 244.894531 127.574219 244.988281 127.492188 C 245.097656 127.371094 245.160156 127.304688 245.207031 127.261719 C 245.25 127.191406 245.296875 127.125 245.339844 127.050781 C 245.441406 126.878906 245.523438 126.695312 245.613281 126.515625 C 245.660156 126.386719 245.757812 126.144531 245.792969 126.03125 C 245.902344 125.722656 246 125.414062 246.101562 125.101562 C 246.578125 123.625 247.050781 122.144531 247.523438 120.664062 C 249.519531 114.453125 251.511719 108.242188 253.507812 102.03125 C 254.296875 99.578125 256.652344 98.246094 259.171875 98.820312 C 261.527344 99.355469 263.121094 102.183594 262.386719 104.472656 C 260.011719 111.867188 257.636719 119.261719 255.265625 126.660156 C 255.175781 126.925781 255.089844 127.199219 255.003906 127.472656 C 258.695312 130.242188 262.464844 132.902344 266.328125 135.429688 C 270.050781 137.867188 273.851562 140.191406 277.722656 142.390625 C 279.625 143.472656 281.546875 144.523438 283.484375 145.546875 C 284.515625 146.09375 285.550781 146.636719 286.59375 147.160156 C 286.714844 147.21875 286.839844 147.277344 286.964844 147.339844 C 286.976562 147.34375 286.996094 147.347656 287.011719 147.351562 C 287.019531 147.355469 287.023438 147.355469 287.03125 147.355469 C 291.578125 146.140625 296.054688 144.554688 300.546875 143.144531 C 304.710938 141.835938 308.871094 140.527344 313.035156 139.214844 Z M 287.164062 147.367188 C 287.355469 147.386719 287.28125 147.375 287.164062 147.367188 Z M 223.058594 142.398438 C 223.019531 142.40625 222.972656 142.414062 222.917969 142.425781 C 222.921875 142.425781 222.921875 142.425781 222.925781 142.425781 C 222.96875 142.421875 223.007812 142.414062 223.039062 142.414062 C 223.046875 142.410156 223.050781 142.40625 223.058594 142.398438 Z M 347.246094 194.277344 L 344.097656 196.460938 C 343.960938 196.535156 343.824219 196.609375 343.683594 196.683594 C 343.824219 196.609375 343.960938 196.535156 344.097656 196.460938 Z M 203.910156 140.742188 C 198.839844 137.238281 193.765625 133.734375 188.691406 130.234375 C 188.433594 130.414062 188.164062 130.589844 187.882812 130.757812 C 184.527344 132.75 180.800781 134.269531 177.292969 135.980469 C 169.976562 139.550781 162.714844 143.28125 155.324219 146.699219 C 154.003906 153.773438 152.6875 160.847656 151.367188 167.921875 C 150.628906 171.875 149.894531 175.832031 149.15625 179.789062 C 148.980469 180.71875 148.808594 181.648438 148.636719 182.582031 C 148.554688 183.007812 148.476562 183.4375 148.402344 183.863281 C 148.378906 184.003906 148.308594 184.46875 148.28125 184.621094 C 148.199219 185.308594 148.15625 186.003906 148.15625 186.699219 C 169.390625 193.273438 191.097656 197.738281 213.019531 199.671875 C 213.761719 183.058594 214.410156 166.445312 214.949219 149.824219 C 214.964844 149.378906 215.039062 148.957031 215.160156 148.558594 C 214.246094 147.921875 213.359375 147.261719 212.476562 146.652344 C 209.621094 144.683594 206.765625 142.710938 203.910156 140.742188 Z M 76.855469 176.144531 C 76.855469 176.144531 77.667969 176.714844 79.230469 177.734375 C 77.667969 176.714844 76.855469 176.144531 76.855469 176.144531 Z M 222.820312 142.441406 C 222.824219 142.441406 222.824219 142.441406 222.828125 142.441406 C 222.824219 142.441406 222.824219 142.441406 222.820312 142.441406 Z M 81.234375 165.726562 C 82.128906 163.824219 83.070312 161.921875 84.066406 160.027344 C 83.300781 161.488281 82.554688 162.953125 81.847656 164.421875 C 81.636719 164.855469 81.4375 165.292969 81.234375 165.726562 Z M 131.292969 139.308594 C 124.34375 135.71875 117.542969 131.847656 110.898438 127.714844 C 109.839844 127.058594 109.144531 126.089844 108.839844 125.011719 C 108.082031 125.824219 107.335938 126.644531 106.59375 127.476562 C 97.828125 137.320312 90.074219 148.5625 84.070312 160.015625 C 101.917969 169.371094 120.34375 177.390625 139.167969 183.78125 C 139.382812 182.011719 139.734375 180.25 140.058594 178.507812 C 140.8125 174.476562 141.5625 170.441406 142.316406 166.40625 C 143.558594 159.746094 144.800781 153.082031 146.042969 146.417969 C 144.589844 145.777344 143.152344 145.105469 141.71875 144.433594 C 138.210938 142.792969 134.734375 141.085938 131.292969 139.308594 Z M 279.835938 154.042969 C 279.367188 153.777344 278.902344 153.519531 278.449219 153.277344 C 276.386719 152.183594 274.339844 151.054688 272.316406 149.890625 C 264.597656 145.460938 257.167969 140.539062 250.0625 135.1875 C 249.839844 135.359375 249.617188 135.53125 249.382812 135.699219 C 246.59375 137.726562 243.671875 139.59375 240.816406 141.53125 C 237.882812 143.523438 234.953125 145.515625 232.019531 147.507812 C 229.480469 149.234375 227.019531 151.015625 224.101562 151.445312 C 223.5625 167.746094 222.925781 184.039062 222.199219 200.332031 C 241.863281 201.425781 261.679688 200.441406 281.460938 197.085938 C 281.253906 183.222656 280.644531 169.367188 279.632812 155.542969 C 279.59375 155.007812 279.675781 154.507812 279.835938 154.042969 Z M 107.042969 193.34375 C 108.070312 193.847656 109.125 194.359375 110.203125 194.875 C 110.066406 194.808594 109.9375 194.746094 109.800781 194.679688 C 108.867188 194.234375 107.945312 193.785156 107.042969 193.34375 Z M 107.042969 193.34375 " fill-opacity="1" fill-rule="nonzero"/><g clip-path="url(#1d40324c45)"><path fill="#ffe05c" d="M 347.246094 194.273438 C 345.847656 191.710938 344.441406 189.140625 343.027344 186.570312 C 342.9375 186.414062 342.851562 186.253906 342.765625 186.097656 C 341.355469 183.539062 339.933594 180.984375 338.5 178.4375 C 338.460938 178.371094 338.421875 178.300781 338.382812 178.234375 C 324.621094 185.382812 309.054688 191.195312 295.882812 194.214844 C 294.132812 194.617188 292.386719 194.992188 290.636719 195.355469 C 290.410156 182.328125 289.832031 169.308594 288.894531 156.3125 C 290.496094 156.015625 292.0625 155.441406 293.621094 154.953125 C 295.925781 154.226562 298.234375 153.503906 300.539062 152.777344 C 305.894531 151.09375 311.253906 149.410156 316.609375 147.722656 C 317.339844 147.496094 318.007812 147.082031 318.558594 146.550781 C 319.734375 145.414062 320.359375 143.722656 319.824219 142.070312 C 319.078125 139.773438 316.621094 138.089844 314.160156 138.863281 C 313.785156 138.980469 313.410156 139.097656 313.035156 139.214844 C 308.871094 140.527344 304.710938 141.835938 300.546875 143.144531 C 296.054688 144.554688 291.578125 146.140625 287.03125 147.355469 C 287.023438 147.355469 287.019531 147.355469 287.011719 147.351562 C 286.996094 147.347656 286.976562 147.34375 286.964844 147.339844 C 286.839844 147.277344 286.714844 147.21875 286.59375 147.160156 C 285.550781 146.636719 284.515625 146.09375 283.484375 145.546875 C 281.546875 144.523438 279.625 143.472656 277.722656 142.390625 C 273.851562 140.191406 270.050781 137.867188 266.328125 135.429688 C 262.464844 132.902344 258.695312 130.242188 255.003906 127.472656 C 255.089844 127.199219 255.175781 126.925781 255.265625 126.660156 C 257.636719 119.261719 260.011719 111.867188 262.386719 104.472656 C 263.121094 102.183594 261.527344 99.355469 259.171875 98.820312 C 256.652344 98.246094 254.296875 99.578125 253.507812 102.03125 C 251.511719 108.242188 249.519531 114.453125 247.523438 120.664062 C 247.050781 122.144531 246.578125 123.625 246.101562 125.101562 C 246 125.414062 245.902344 125.722656 245.792969 126.03125 C 245.757812 126.144531 245.660156 126.386719 245.613281 126.515625 C 245.523438 126.695312 245.441406 126.878906 245.339844 127.050781 C 245.296875 127.125 245.25 127.191406 245.207031 127.261719 C 245.160156 127.304688 245.097656 127.371094 244.988281 127.492188 C 244.894531 127.574219 244.800781 127.660156 244.710938 127.746094 C 244.796875 127.65625 244.214844 128.132812 244.109375 128.203125 C 243.488281 128.632812 242.859375 129.054688 242.230469 129.480469 C 240.796875 130.453125 239.363281 131.429688 237.929688 132.402344 C 235.257812 134.21875 232.585938 136.03125 229.914062 137.847656 C 228.675781 138.6875 227.4375 139.53125 226.199219 140.371094 C 225.574219 140.792969 224.957031 141.230469 224.320312 141.640625 C 223.964844 141.867188 223.601562 142.078125 223.234375 142.292969 C 223.1875 142.316406 223.152344 142.339844 223.117188 142.363281 C 223.035156 142.375 222.941406 142.394531 222.878906 142.414062 C 222.78125 142.382812 222.6875 142.351562 222.605469 142.328125 C 222.546875 142.3125 222.5 142.300781 222.457031 142.292969 C 222.414062 142.257812 222.355469 142.21875 222.277344 142.164062 C 222.058594 142.019531 221.808594 141.898438 221.585938 141.761719 C 220.1875 140.90625 218.863281 139.917969 217.515625 138.988281 C 214.789062 137.105469 212.0625 135.222656 209.335938 133.34375 C 203.976562 129.644531 198.617188 125.941406 193.257812 122.242188 C 193.414062 121.179688 193.507812 120.105469 193.644531 119.078125 C 194.863281 109.921875 195.804688 100.734375 196.488281 91.523438 C 196.582031 90.21875 195.910156 88.949219 194.902344 88.074219 C 194.050781 87.339844 192.960938 86.882812 191.882812 86.929688 C 190.523438 86.992188 189.394531 87.527344 188.59375 88.378906 C 187.839844 89.1875 187.371094 90.273438 187.28125 91.523438 C 186.703125 99.328125 185.9375 107.121094 184.976562 114.886719 C 184.859375 115.816406 184.742188 116.75 184.621094 117.679688 C 184.5625 118.148438 184.5 118.613281 184.4375 119.078125 C 184.414062 119.269531 184.394531 119.398438 184.386719 119.484375 C 184.375 119.546875 184.363281 119.625 184.351562 119.71875 C 184.261719 120.351562 184.175781 120.984375 184.027344 121.609375 C 183.972656 121.839844 183.910156 122.070312 183.835938 122.296875 C 183.820312 122.316406 183.789062 122.371094 183.734375 122.464844 C 183.707031 122.492188 183.691406 122.507812 183.660156 122.546875 C 183.648438 122.554688 183.636719 122.566406 183.625 122.574219 C 183.574219 122.609375 183.5 122.660156 183.398438 122.726562 C 183.058594 122.894531 182.738281 123.105469 182.402344 123.277344 C 181.621094 123.679688 180.824219 124.054688 180.035156 124.4375 C 178.203125 125.332031 176.375 126.222656 174.546875 127.117188 C 167.652344 130.480469 160.753906 133.847656 153.859375 137.210938 C 153.015625 137.621094 152.171875 138.035156 151.328125 138.445312 C 151.226562 138.496094 151.125 138.546875 151.023438 138.59375 C 150.878906 138.542969 150.738281 138.488281 150.671875 138.46875 C 150.386719 138.339844 150.101562 138.210938 149.820312 138.082031 C 148.867188 137.65625 147.921875 137.21875 146.972656 136.78125 C 143.730469 135.277344 140.515625 133.710938 137.332031 132.085938 C 129.898438 128.296875 122.632812 124.1875 115.546875 119.78125 C 115.203125 119.566406 114.824219 119.414062 114.429688 119.3125 C 112.503906 118.8125 110.195312 119.640625 109.25 121.429688 C 108.632812 122.589844 108.515625 123.863281 108.839844 125.011719 C 109.144531 126.089844 109.839844 127.058594 110.898438 127.714844 C 117.542969 131.847656 124.34375 135.71875 131.292969 139.308594 C 134.734375 141.085938 138.210938 142.792969 141.71875 144.433594 C 143.152344 145.105469 144.589844 145.777344 146.042969 146.417969 C 144.800781 153.082031 143.558594 159.746094 142.316406 166.40625 C 141.5625 170.441406 140.8125 174.476562 140.058594 178.507812 C 139.734375 180.25 139.382812 182.011719 139.167969 183.78125 C 120.34375 177.390625 101.917969 169.371094 84.070312 160.015625 C 84.070312 160.019531 84.066406 160.023438 84.066406 160.027344 C 83.070312 161.921875 82.128906 163.824219 81.234375 165.726562 C 81.121094 165.964844 81.011719 166.199219 80.902344 166.4375 C 80.664062 166.953125 80.425781 167.46875 80.191406 167.984375 C 79.875 168.695312 79.558594 169.410156 79.253906 170.121094 C 79.125 170.425781 79 170.730469 78.871094 171.039062 C 78.625 171.625 78.386719 172.207031 78.152344 172.792969 C 78.039062 173.066406 77.929688 173.34375 77.820312 173.621094 C 77.488281 174.464844 77.164062 175.304688 76.855469 176.144531 C 76.855469 176.144531 77.667969 176.714844 79.230469 177.734375 C 80.246094 178.398438 81.578125 179.25 83.210938 180.257812 C 84.433594 181.015625 85.828125 181.855469 87.378906 182.773438 C 87.898438 183.078125 88.433594 183.390625 88.988281 183.710938 C 89.328125 183.910156 89.675781 184.109375 90.027344 184.3125 C 90.734375 184.71875 91.46875 185.132812 92.230469 185.5625 C 92.609375 185.773438 92.996094 185.992188 93.390625 186.210938 C 94.175781 186.644531 94.988281 187.09375 95.824219 187.546875 C 97.078125 188.226562 98.390625 188.929688 99.757812 189.644531 C 100.214844 189.882812 100.675781 190.125 101.144531 190.367188 C 102.078125 190.851562 103.039062 191.34375 104.019531 191.839844 C 105.003906 192.335938 106.011719 192.835938 107.042969 193.34375 C 108.070312 193.847656 109.125 194.359375 110.203125 194.875 C 110.738281 195.128906 111.285156 195.390625 111.832031 195.648438 C 112.929688 196.164062 114.050781 196.683594 115.195312 197.207031 C 121.480469 200.082031 128.429688 203.015625 135.960938 205.839844 C 137.328125 206.355469 138.714844 206.867188 140.121094 207.371094 C 142.9375 208.382812 145.824219 209.378906 148.78125 210.347656 C 150.261719 210.832031 151.757812 211.308594 153.273438 211.777344 C 154.785156 212.25 156.316406 212.710938 157.863281 213.167969 C 161.734375 214.300781 165.707031 215.386719 169.773438 216.398438 C 171.402344 216.804688 173.046875 217.199219 174.703125 217.582031 C 175.53125 217.773438 176.363281 217.960938 177.199219 218.148438 C 182.078125 219.230469 187.078125 220.203125 192.191406 221.046875 C 192.476562 221.09375 192.765625 221.140625 193.054688 221.1875 C 194.671875 221.449219 196.300781 221.699219 197.9375 221.933594 C 199.71875 222.191406 201.515625 222.429688 203.320312 222.648438 C 204.503906 222.792969 205.691406 222.929688 206.882812 223.058594 C 208.421875 223.226562 209.96875 223.382812 211.527344 223.523438 C 212.511719 223.613281 213.5 223.695312 214.488281 223.773438 C 216.222656 223.910156 217.964844 224.03125 219.71875 224.132812 C 219.824219 224.140625 219.925781 224.144531 220.03125 224.152344 C 223.730469 224.363281 227.472656 224.492188 231.25 224.539062 C 232.207031 224.546875 233.167969 224.554688 234.128906 224.554688 C 238.9375 224.550781 243.804688 224.410156 248.722656 224.105469 C 249.707031 224.042969 250.691406 223.976562 251.679688 223.902344 C 253.472656 223.769531 255.277344 223.613281 257.085938 223.433594 C 262.238281 222.929688 267.4375 222.25 272.679688 221.367188 C 274.703125 221.027344 276.730469 220.65625 278.765625 220.257812 C 279.96875 220.019531 281.175781 219.773438 282.382812 219.515625 C 286.007812 218.738281 289.652344 217.863281 293.304688 216.886719 C 294.910156 216.457031 296.515625 216.011719 298.125 215.542969 C 299.066406 215.269531 300.007812 214.988281 300.949219 214.699219 C 307.542969 212.683594 314.175781 210.324219 320.828125 207.589844 C 327.546875 204.824219 334.285156 201.679688 341.03125 198.109375 C 341.085938 198.082031 341.136719 198.054688 341.191406 198.027344 C 342.019531 197.585938 342.851562 197.136719 343.683594 196.683594 C 343.824219 196.609375 343.960938 196.535156 344.097656 196.460938 L 347.246094 194.277344 C 347.246094 194.273438 347.246094 194.273438 347.246094 194.273438 Z M 287.164062 147.367188 C 287.28125 147.375 287.355469 147.386719 287.164062 147.367188 Z M 223.058594 142.398438 C 223.050781 142.40625 223.046875 142.410156 223.039062 142.414062 C 223.007812 142.414062 222.96875 142.421875 222.925781 142.425781 C 222.921875 142.425781 222.921875 142.425781 222.917969 142.425781 C 222.972656 142.414062 223.019531 142.40625 223.058594 142.398438 Z M 222.828125 142.441406 C 222.824219 142.441406 222.824219 142.441406 222.820312 142.441406 C 222.824219 142.441406 222.824219 142.441406 222.828125 142.441406 Z M 148.15625 186.699219 C 148.15625 186.003906 148.199219 185.308594 148.28125 184.621094 C 148.308594 184.46875 148.378906 184.003906 148.402344 183.863281 C 148.476562 183.4375 148.554688 183.007812 148.636719 182.582031 C 148.808594 181.648438 148.980469 180.71875 149.15625 179.789062 C 149.894531 175.832031 150.628906 171.875 151.367188 167.921875 C 152.6875 160.847656 154.003906 153.773438 155.324219 146.699219 C 162.714844 143.28125 169.976562 139.550781 177.292969 135.980469 C 180.800781 134.269531 184.527344 132.75 187.882812 130.757812 C 188.164062 130.589844 188.433594 130.414062 188.691406 130.234375 C 193.765625 133.734375 198.839844 137.238281 203.910156 140.742188 C 206.765625 142.710938 209.621094 144.683594 212.476562 146.652344 C 213.359375 147.261719 214.246094 147.921875 215.160156 148.558594 C 215.039062 148.957031 214.964844 149.378906 214.949219 149.824219 C 214.410156 166.445312 213.761719 183.058594 213.019531 199.671875 C 191.097656 197.738281 169.390625 193.273438 148.15625 186.699219 Z M 222.199219 200.332031 C 222.925781 184.039062 223.5625 167.746094 224.101562 151.445312 C 227.019531 151.015625 229.480469 149.234375 232.019531 147.507812 C 234.953125 145.515625 237.882812 143.523438 240.816406 141.53125 C 243.671875 139.59375 246.59375 137.726562 249.382812 135.699219 C 249.617188 135.53125 249.839844 135.359375 250.0625 135.1875 C 257.167969 140.539062 264.597656 145.460938 272.316406 149.890625 C 274.339844 151.054688 276.386719 152.183594 278.449219 153.277344 C 278.902344 153.519531 279.367188 153.777344 279.835938 154.042969 C 279.675781 154.507812 279.59375 155.007812 279.632812 155.542969 C 280.644531 169.367188 281.253906 183.222656 281.460938 197.085938 C 261.679688 200.441406 241.863281 201.425781 222.199219 200.332031 Z M 222.199219 200.332031 " fill-opacity="1" fill-rule="nonzero"/></g></svg>