<svg xmlns="http://www.w3.org/2000/svg" xmlns:xlink="http://www.w3.org/1999/xlink" width="500" zoomAndPan="magnify" viewBox="0 0 375 374.999991" height="500" preserveAspectRatio="xMidYMid meet" version="1.0"><path fill="#6191dc" d="M 360.75 183.890625 C 359.347656 180.257812 352.683594 171.140625 352.683594 171.140625 C 342.679688 157.492188 332.554688 146.148438 322.398438 136.796875 C 322.398438 136.796875 322.394531 136.796875 322.394531 136.792969 C 314.929688 129.921875 307.449219 124.136719 299.988281 119.316406 C 299.960938 119.300781 299.9375 119.285156 299.910156 119.269531 C 299.535156 119.023438 299.15625 118.773438 298.777344 118.535156 C 295.238281 115.496094 288.027344 110.230469 276.488281 105.859375 C 248.453125 88.503906 214.15625 80.84375 181.335938 85.460938 C 152 89.589844 119.425781 99.980469 102.042969 124.667969 C 97.179688 131.570312 99.453125 141.195312 106.765625 145.414062 C 110.296875 147.449219 113.386719 149.199219 115.941406 150.632812 C 107.316406 158.398438 100.105469 166.367188 94.9375 174.046875 L 24.339844 139.546875 C 24.339844 139.550781 0.015625 174.335938 24.921875 227.089844 L 24.929688 227.085938 L 24.921875 227.09375 L 93.453125 198.898438 L 93.425781 199.347656 C 100.941406 207.199219 108.332031 214.296875 115.59375 220.707031 C 113.105469 222.027344 110.132812 223.625 106.765625 225.460938 C 99.453125 229.453125 97.179688 238.566406 102.042969 245.105469 C 119.425781 268.476562 152 278.3125 181.335938 282.222656 C 214.164062 286.59375 248.472656 279.335938 276.511719 262.894531 C 330.859375 240.59375 361.511719 185.863281 360.75 183.890625 Z M 360.75 183.890625 " fill-opacity="1" fill-rule="nonzero"/><path fill="#4575ba" d="M 276.511719 262.894531 C 248.472656 279.335938 214.164062 286.59375 181.335938 282.222656 C 152 278.3125 119.425781 268.476562 102.042969 245.105469 C 97.179688 238.566406 99.453125 229.453125 106.765625 225.460938 C 110.132812 223.625 113.105469 222.027344 115.59375 220.707031 C 116.640625 221.628906 117.683594 222.535156 118.726562 223.433594 C 115.753906 225.1875 112.777344 226.941406 109.804688 228.695312 C 108.554688 229.433594 107.308594 230.167969 106.058594 230.90625 C 103.925781 232.164062 105.863281 235.5 108.003906 234.234375 C 112.617188 231.515625 117.230469 228.792969 121.84375 226.074219 C 125.347656 229.003906 128.820312 231.773438 132.265625 234.386719 C 127.683594 237.089844 123.105469 239.789062 118.523438 242.492188 C 117.277344 243.226562 116.027344 243.964844 114.78125 244.699219 C 112.644531 245.960938 114.582031 249.292969 116.726562 248.03125 C 123.019531 244.316406 129.316406 240.601562 135.613281 236.890625 C 138.996094 239.375 142.351562 241.714844 145.671875 243.90625 C 140.394531 247.015625 135.121094 250.128906 129.84375 253.242188 C 128.59375 253.980469 127.347656 254.714844 126.097656 255.449219 C 123.960938 256.710938 125.898438 260.046875 128.042969 258.78125 C 135.128906 254.601562 142.210938 250.425781 149.296875 246.246094 C 152.859375 248.496094 156.382812 250.582031 159.871094 252.511719 C 155.054688 255.355469 150.234375 258.195312 145.417969 261.039062 C 144.167969 261.773438 142.921875 262.511719 141.671875 263.246094 C 139.539062 264.503906 141.476562 267.839844 143.617188 266.578125 C 150.359375 262.601562 157.101562 258.625 163.84375 254.648438 C 168.441406 257.046875 172.96875 259.175781 177.429688 261.042969 C 172.800781 263.773438 168.171875 266.503906 163.542969 269.234375 C 162.296875 269.972656 161.046875 270.707031 159.800781 271.445312 C 157.664062 272.703125 159.601562 276.039062 161.746094 274.773438 C 168.476562 270.804688 175.207031 266.832031 181.941406 262.863281 C 187.871094 265.140625 193.675781 266.957031 199.355469 268.367188 C 195.796875 270.46875 192.234375 272.566406 188.675781 274.667969 C 187.425781 275.402344 186.179688 276.140625 184.929688 276.875 C 182.796875 278.136719 184.734375 281.472656 186.875 280.207031 C 192.863281 276.675781 198.847656 273.144531 204.835938 269.613281 C 211.28125 270.933594 217.558594 271.71875 223.660156 272.042969 C 222.023438 273.007812 220.386719 273.972656 218.753906 274.9375 C 217.503906 275.671875 216.253906 276.410156 215.007812 277.144531 C 212.871094 278.402344 214.808594 281.738281 216.953125 280.476562 C 221.621094 277.722656 226.289062 274.96875 230.957031 272.214844 C 247.570312 272.089844 262.792969 268.523438 276.511719 262.894531 Z M 106.765625 145.414062 C 110.296875 147.449219 113.386719 149.199219 115.941406 150.632812 C 117.878906 148.890625 119.886719 147.160156 121.957031 145.445312 C 116.632812 142.261719 111.304688 139.078125 105.976562 135.894531 C 103.847656 134.621094 105.789062 131.289062 107.921875 132.5625 C 109.167969 133.308594 110.410156 134.050781 111.65625 134.792969 C 116.152344 137.480469 120.648438 140.167969 125.144531 142.855469 C 128.59375 140.113281 132.203125 137.417969 135.941406 134.800781 C 128.886719 130.582031 121.832031 126.367188 114.777344 122.152344 C 112.648438 120.878906 114.589844 117.542969 116.722656 118.820312 C 117.96875 119.5625 119.210938 120.308594 120.457031 121.050781 C 126.78125 124.832031 133.109375 128.613281 139.4375 132.398438 C 142.859375 130.089844 146.375 127.851562 149.964844 125.695312 C 142.03125 120.953125 134.09375 116.207031 126.160156 111.464844 C 124.027344 110.191406 125.96875 106.859375 128.105469 108.132812 C 129.347656 108.878906 130.59375 109.621094 131.835938 110.363281 C 139.140625 114.730469 146.445312 119.097656 153.753906 123.464844 C 157.367188 121.382812 161.046875 119.390625 164.769531 117.503906 C 157.105469 112.921875 149.441406 108.339844 141.777344 103.761719 C 139.648438 102.488281 141.589844 99.152344 143.722656 100.429688 C 144.96875 101.171875 146.210938 101.917969 147.457031 102.660156 C 154.597656 106.929688 161.742188 111.199219 168.882812 115.46875 C 173.488281 113.246094 178.152344 111.195312 182.828125 109.339844 C 175.203125 104.785156 167.578125 100.226562 159.953125 95.667969 C 157.824219 94.394531 159.761719 91.0625 161.898438 92.335938 C 163.140625 93.082031 164.386719 93.824219 165.628906 94.566406 C 172.890625 98.910156 180.15625 103.25 187.417969 107.589844 C 193.257812 105.445312 199.097656 103.628906 204.875 102.195312 C 198.289062 98.257812 191.703125 94.320312 185.113281 90.382812 C 182.984375 89.109375 184.925781 85.777344 187.058594 87.050781 C 188.304688 87.796875 189.546875 88.539062 190.792969 89.28125 C 197.300781 93.171875 203.808594 97.0625 210.316406 100.953125 C 216.71875 99.628906 223 98.808594 229.066406 98.582031 C 224.441406 95.816406 219.816406 93.054688 215.191406 90.289062 C 213.0625 89.015625 215.003906 85.683594 217.136719 86.957031 C 218.382812 87.703125 219.625 88.445312 220.871094 89.1875 C 226.097656 92.3125 231.324219 95.4375 236.554688 98.5625 C 253.367188 98.996094 266.535156 102.09375 276.488281 105.859375 C 248.453125 88.503906 214.15625 80.84375 181.335938 85.460938 C 152 89.589844 119.425781 99.980469 102.042969 124.667969 C 97.179688 131.570312 99.453125 141.195312 106.765625 145.414062 Z M 106.765625 145.414062 " fill-opacity="1" fill-rule="nonzero"/><path fill="#383c61" d="M 322.398438 136.796875 C 322.398438 136.796875 322.394531 136.796875 322.394531 136.792969 C 321.460938 135.9375 320.527344 135.09375 319.59375 134.269531 C 313.0625 128.492188 306.519531 123.535156 299.988281 119.316406 C 299.960938 119.300781 299.9375 119.285156 299.910156 119.269531 C 299.5625 119.042969 299.214844 118.832031 298.867188 118.613281 C 298.835938 118.585938 298.804688 118.5625 298.777344 118.535156 C 295.238281 115.496094 288.027344 110.230469 276.488281 105.859375 C 266.535156 102.09375 253.367188 98.996094 236.554688 98.5625 C 235.230469 98.527344 233.886719 98.507812 232.515625 98.507812 C 231.375 98.507812 230.222656 98.539062 229.066406 98.582031 C 223 98.808594 216.71875 99.628906 210.316406 100.953125 C 208.511719 101.324219 206.695312 101.742188 204.875 102.195312 C 199.097656 103.628906 193.257812 105.445312 187.417969 107.589844 C 185.886719 108.152344 184.359375 108.734375 182.828125 109.339844 C 178.152344 111.195312 173.488281 113.246094 168.882812 115.46875 C 167.507812 116.128906 166.136719 116.8125 164.769531 117.503906 C 161.046875 119.390625 157.367188 121.382812 153.753906 123.464844 C 152.480469 124.195312 151.21875 124.941406 149.964844 125.695312 C 146.375 127.851562 142.859375 130.089844 139.4375 132.398438 C 138.261719 133.191406 137.09375 133.992188 135.941406 134.800781 C 132.203125 137.417969 128.59375 140.113281 125.144531 142.855469 C 124.0625 143.714844 123.003906 144.578125 121.957031 145.445312 C 119.886719 147.160156 117.878906 148.890625 115.941406 150.632812 C 107.316406 158.398438 100.105469 166.367188 94.9375 174.046875 L 24.339844 139.546875 L 84.109375 180.574219 L 92.945312 186.640625 L 84.648438 191.574219 L 24.929688 227.085938 L 24.921875 227.09375 L 93.453125 198.898438 L 98.621094 196.773438 C 130.039062 197.910156 136.789062 197.894531 163.621094 198.226562 C 172.695312 198.339844 183.40625 198.96875 193.949219 198.761719 C 193.84375 197.875 193.757812 196.988281 193.683594 196.097656 C 192.527344 181.941406 196.015625 166.84375 205.070312 156.792969 C 213.976562 163.667969 223.621094 171.792969 233.203125 179.808594 C 235.859375 182.03125 238.511719 184.242188 241.140625 186.421875 C 243.585938 183.082031 245.726562 179.480469 247.5625 175.84375 C 250.550781 169.917969 252.703125 163.628906 254.800781 157.34375 C 255.8125 154.3125 256.824219 151.277344 257.960938 148.285156 C 258.207031 147.632812 258.460938 146.984375 258.71875 146.335938 C 258.769531 146.21875 259.015625 145.625 259.039062 145.5625 C 259.082031 145.464844 259.125 145.367188 259.164062 145.273438 C 259.777344 143.875 260.429688 142.492188 261.132812 141.140625 C 261.175781 141.058594 261.222656 140.980469 261.265625 140.898438 C 260.449219 143.789062 260 146.835938 260 149.992188 C 260 168.214844 274.578125 182.984375 292.558594 182.984375 C 310.539062 182.984375 325.113281 168.214844 325.113281 149.992188 C 325.113281 145.300781 324.140625 140.839844 322.398438 136.796875 Z M 184.386719 177.703125 C 173.128906 180.476562 158.824219 181.417969 143.296875 176.171875 C 130.460938 171.835938 132.445312 157.714844 146.117188 155.203125 C 156.835938 153.234375 170.171875 152.722656 184.660156 156.605469 C 197.953125 160.167969 197.796875 174.398438 184.386719 177.703125 Z M 313.339844 159.355469 C 312.597656 166.988281 305.289062 172.585938 297.015625 171.851562 C 288.742188 171.121094 282.640625 164.335938 283.382812 156.703125 C 284.125 149.070312 291.433594 143.472656 299.707031 144.207031 C 307.980469 144.9375 314.082031 151.722656 313.339844 159.355469 Z M 351.46875 198.371094 C 341.496094 202.320312 329.71875 200 321.730469 192.949219 C 320.683594 192.023438 320.796875 190.246094 321.730469 189.308594 C 322.753906 188.285156 324.324219 188.390625 325.363281 189.308594 C 332.066406 195.226562 341.863281 196.675781 350.101562 193.410156 C 351.398438 192.894531 352.925781 193.976562 353.261719 195.207031 C 353.660156 196.648438 352.757812 197.859375 351.46875 198.371094 Z M 261.445312 172.507812 L 261.925781 222.890625 C 254.867188 219.132812 249.449219 213.34375 246.582031 206.921875 C 249.898438 204.371094 253.226562 201.71875 256.609375 198.875 C 256.652344 198.90625 256.691406 198.941406 256.734375 198.972656 L 256.765625 198.746094 C 256.714844 198.789062 256.664062 198.832031 256.609375 198.875 C 252.96875 196.0625 249.203125 193.039062 245.375 189.902344 C 247.648438 182.578125 253.453125 176.128906 261.445312 172.507812 Z M 310.238281 159.042969 C 309.644531 165.148438 303.800781 169.625 297.183594 169.039062 C 290.679688 168.460938 285.867188 163.210938 286.265625 157.234375 C 287.132812 158.058594 288.320312 158.570312 289.632812 158.570312 C 292.285156 158.570312 294.429688 156.496094 294.429688 153.941406 C 294.429688 151.691406 292.769531 149.820312 290.570312 149.402344 C 292.929688 147.601562 296.035156 146.632812 299.335938 146.925781 C 305.953125 147.511719 310.835938 152.9375 310.238281 159.042969 Z M 310.238281 159.042969 " fill-opacity="1" fill-rule="nonzero"/><path fill="#6191dc" d="M 360.75 183.890625 C 359.347656 180.257812 352.683594 171.140625 352.683594 171.140625 C 342.679688 157.492188 332.554688 146.148438 322.398438 136.796875 C 324.140625 140.839844 325.113281 145.300781 325.113281 149.992188 C 325.113281 168.214844 310.539062 182.984375 292.558594 182.984375 C 274.578125 182.984375 260 168.214844 260 149.992188 C 260 146.835938 260.449219 143.789062 261.265625 140.898438 C 261.222656 140.980469 261.175781 141.058594 261.132812 141.140625 C 260.429688 142.492188 259.777344 143.875 259.164062 145.273438 C 259.125 145.367188 259.082031 145.464844 259.039062 145.5625 C 259.015625 145.625 258.769531 146.21875 258.71875 146.335938 C 258.460938 146.984375 258.207031 147.632812 257.960938 148.285156 C 256.824219 151.277344 255.8125 154.3125 254.800781 157.34375 C 252.703125 163.628906 250.550781 169.917969 247.5625 175.84375 C 245.726562 179.480469 243.585938 183.082031 241.140625 186.421875 C 242.558594 187.59375 243.96875 188.753906 245.375 189.902344 C 247.648438 182.578125 253.453125 176.128906 261.445312 172.507812 L 261.925781 222.890625 C 254.867188 219.132812 249.449219 213.34375 246.582031 206.921875 C 233.914062 216.660156 221.414062 224.84375 206.710938 235.832031 C 200.585938 224.382812 195.515625 211.929688 193.949219 198.761719 C 183.40625 198.96875 172.695312 198.339844 163.621094 198.226562 C 136.789062 197.894531 130.039062 197.910156 98.621094 196.773438 L 93.453125 198.898438 L 93.425781 199.347656 C 100.941406 207.199219 108.332031 214.296875 115.59375 220.707031 C 116.640625 221.628906 117.683594 222.535156 118.726562 223.433594 C 119.769531 224.328125 120.808594 225.207031 121.84375 226.074219 C 125.347656 229.003906 128.820312 231.773438 132.265625 234.386719 C 133.382812 235.238281 134.5 236.070312 135.613281 236.890625 C 138.996094 239.375 142.351562 241.714844 145.671875 243.90625 C 146.886719 244.703125 148.09375 245.484375 149.296875 246.246094 C 152.859375 248.496094 156.382812 250.582031 159.871094 252.511719 C 161.203125 253.246094 162.527344 253.957031 163.84375 254.648438 C 168.441406 257.046875 172.96875 259.175781 177.429688 261.042969 C 178.941406 261.675781 180.445312 262.289062 181.941406 262.863281 C 187.871094 265.140625 193.675781 266.957031 199.355469 268.367188 C 201.195312 268.824219 203.023438 269.242188 204.835938 269.613281 C 211.28125 270.933594 217.558594 271.71875 223.660156 272.042969 C 226.117188 272.171875 228.554688 272.234375 230.957031 272.214844 C 247.570312 272.089844 262.792969 268.523438 276.511719 262.894531 C 330.859375 240.59375 361.511719 185.863281 360.75 183.890625 Z M 351.46875 198.371094 C 341.496094 202.320312 329.71875 200 321.730469 192.949219 C 320.683594 192.023438 320.796875 190.246094 321.730469 189.308594 C 322.753906 188.285156 324.324219 188.390625 325.363281 189.308594 C 332.066406 195.226562 341.863281 196.675781 350.101562 193.410156 C 351.398438 192.894531 352.925781 193.976562 353.261719 195.207031 C 353.660156 196.648438 352.757812 197.859375 351.46875 198.371094 Z M 298.867188 118.613281 C 298.835938 118.585938 298.804688 118.5625 298.777344 118.535156 C 299.15625 118.773438 299.535156 119.023438 299.910156 119.269531 C 299.5625 119.042969 299.214844 118.832031 298.867188 118.613281 Z M 314.691406 130.089844 C 309.789062 126.058594 304.886719 122.480469 299.988281 119.316406 C 304.886719 122.480469 309.789062 126.058594 314.691406 130.089844 Z M 146.117188 155.203125 C 156.835938 153.234375 170.171875 152.722656 184.660156 156.605469 C 197.953125 160.167969 197.796875 174.398438 184.386719 177.703125 C 173.128906 180.476562 158.824219 181.417969 143.296875 176.171875 C 130.460938 171.835938 132.445312 157.714844 146.117188 155.203125 Z M 146.117188 155.203125 " fill-opacity="1" fill-rule="nonzero"/><path fill="#ffe05c" d="M 107.921875 132.5625 C 109.167969 133.308594 110.410156 134.050781 111.65625 134.792969 C 116.152344 137.480469 120.648438 140.167969 125.144531 142.855469 C 124.0625 143.714844 123.003906 144.578125 121.957031 145.445312 C 116.632812 142.261719 111.304688 139.078125 105.976562 135.894531 C 103.847656 134.621094 105.789062 131.289062 107.921875 132.5625 Z M 114.777344 122.152344 C 121.832031 126.367188 128.886719 130.582031 135.941406 134.800781 C 137.09375 133.992188 138.261719 133.191406 139.4375 132.398438 C 133.109375 128.613281 126.78125 124.832031 120.457031 121.050781 C 119.210938 120.308594 117.96875 119.5625 116.722656 118.820312 C 114.589844 117.542969 112.648438 120.878906 114.777344 122.152344 Z M 126.160156 111.464844 C 134.09375 116.207031 142.03125 120.953125 149.964844 125.695312 C 151.21875 124.941406 152.480469 124.195312 153.753906 123.464844 C 146.445312 119.097656 139.140625 114.730469 131.835938 110.363281 C 130.59375 109.621094 129.347656 108.878906 128.105469 108.132812 C 125.96875 106.859375 124.027344 110.191406 126.160156 111.464844 Z M 141.777344 103.761719 C 149.441406 108.339844 157.105469 112.921875 164.769531 117.503906 C 166.136719 116.8125 167.507812 116.128906 168.882812 115.46875 C 161.742188 111.199219 154.597656 106.929688 147.457031 102.660156 C 146.210938 101.917969 144.96875 101.171875 143.722656 100.429688 C 141.589844 99.152344 139.648438 102.488281 141.777344 103.761719 Z M 165.628906 94.566406 C 164.386719 93.824219 163.140625 93.082031 161.898438 92.335938 C 159.761719 91.0625 157.824219 94.394531 159.953125 95.667969 C 167.578125 100.226562 175.203125 104.785156 182.828125 109.339844 C 184.359375 108.734375 185.886719 108.152344 187.417969 107.589844 C 180.15625 103.25 172.890625 98.910156 165.628906 94.566406 Z M 185.113281 90.382812 C 191.703125 94.320312 198.289062 98.257812 204.875 102.195312 C 206.695312 101.742188 208.511719 101.324219 210.316406 100.953125 C 203.808594 97.0625 197.300781 93.171875 190.792969 89.28125 C 189.546875 88.539062 188.304688 87.796875 187.058594 87.050781 C 184.925781 85.777344 182.984375 89.109375 185.113281 90.382812 Z M 215.191406 90.289062 C 219.816406 93.054688 224.441406 95.816406 229.066406 98.582031 C 230.222656 98.539062 231.375 98.507812 232.515625 98.507812 C 233.886719 98.507812 235.230469 98.527344 236.554688 98.5625 C 231.324219 95.4375 226.097656 92.3125 220.871094 89.1875 C 219.625 88.445312 218.382812 87.703125 217.136719 86.957031 C 215.003906 85.683594 213.0625 89.015625 215.191406 90.289062 Z M 118.726562 223.433594 C 115.753906 225.1875 112.777344 226.941406 109.804688 228.695312 C 108.554688 229.433594 107.308594 230.167969 106.058594 230.90625 C 103.925781 232.164062 105.863281 235.5 108.003906 234.234375 C 112.617188 231.515625 117.230469 228.792969 121.84375 226.074219 C 120.808594 225.207031 119.769531 224.328125 118.726562 223.433594 Z M 132.265625 234.386719 C 127.683594 237.089844 123.105469 239.789062 118.523438 242.492188 C 117.277344 243.226562 116.027344 243.964844 114.78125 244.699219 C 112.644531 245.960938 114.582031 249.292969 116.726562 248.03125 C 123.019531 244.316406 129.316406 240.601562 135.613281 236.890625 C 134.5 236.070312 133.382812 235.238281 132.265625 234.386719 Z M 145.671875 243.90625 C 140.394531 247.015625 135.121094 250.128906 129.84375 253.242188 C 128.59375 253.980469 127.347656 254.714844 126.097656 255.449219 C 123.960938 256.710938 125.898438 260.046875 128.042969 258.78125 C 135.128906 254.601562 142.210938 250.425781 149.296875 246.246094 C 148.09375 245.484375 146.886719 244.703125 145.671875 243.90625 Z M 159.871094 252.511719 C 155.054688 255.355469 150.234375 258.195312 145.417969 261.039062 C 144.167969 261.773438 142.921875 262.511719 141.671875 263.246094 C 139.539062 264.503906 141.476562 267.839844 143.617188 266.578125 C 150.359375 262.601562 157.101562 258.625 163.84375 254.648438 C 162.527344 253.957031 161.203125 253.246094 159.871094 252.511719 Z M 163.542969 269.234375 C 162.296875 269.972656 161.046875 270.707031 159.800781 271.445312 C 157.664062 272.703125 159.601562 276.039062 161.746094 274.773438 C 168.476562 270.804688 175.207031 266.832031 181.941406 262.863281 C 180.445312 262.289062 178.941406 261.675781 177.429688 261.042969 C 172.800781 263.773438 168.171875 266.503906 163.542969 269.234375 Z M 188.675781 274.667969 C 187.425781 275.402344 186.179688 276.140625 184.929688 276.875 C 182.796875 278.136719 184.734375 281.472656 186.875 280.207031 C 192.863281 276.675781 198.847656 273.144531 204.835938 269.613281 C 203.023438 269.242188 201.195312 268.824219 199.355469 268.367188 C 195.796875 270.46875 192.234375 272.566406 188.675781 274.667969 Z M 218.753906 274.9375 C 217.503906 275.671875 216.253906 276.410156 215.007812 277.144531 C 212.871094 278.402344 214.808594 281.738281 216.953125 280.476562 C 221.621094 277.722656 226.289062 274.96875 230.957031 272.214844 C 228.554688 272.234375 226.117188 272.171875 223.660156 272.042969 C 222.023438 273.007812 220.386719 273.972656 218.753906 274.9375 Z M 34.441406 212.78125 C 31.832031 213.890625 29.132812 214.898438 26.589844 216.15625 C 24.371094 217.253906 22.421875 213.925781 24.644531 212.824219 C 27.769531 211.28125 31.085938 210.050781 34.289062 208.6875 C 47.234375 203.195312 60.191406 197.730469 73.148438 192.269531 C 75.644531 191.21875 78.136719 190.167969 80.632812 189.117188 C 69.722656 190.53125 58.816406 191.957031 47.910156 193.40625 C 41.566406 194.25 35.375 195.078125 28.957031 195.980469 C 26.925781 196.265625 24.894531 196.550781 22.871094 196.867188 C 22.289062 196.957031 21.707031 197.042969 21.128906 197.152344 C 20.703125 197.230469 20.128906 197.542969 20.855469 197.121094 C 18.703125 198.375 16.765625 195.039062 18.910156 193.789062 C 19.839844 193.25 21.214844 193.242188 22.242188 193.085938 C 24.707031 192.710938 27.175781 192.363281 29.644531 192.019531 C 44.21875 189.996094 58.808594 188.097656 73.394531 186.195312 C 75.015625 185.984375 76.640625 185.777344 78.265625 185.566406 C 67.199219 183.621094 56.132812 181.683594 45.0625 179.773438 C 38.753906 178.683594 32.445312 177.597656 26.128906 176.554688 C 24.132812 176.222656 22.136719 175.894531 20.136719 175.589844 C 19.785156 175.535156 19.4375 175.484375 19.085938 175.433594 C 18.992188 175.417969 18.894531 175.40625 18.800781 175.390625 C 18.355469 175.347656 17.761719 175.46875 18.582031 175.261719 C 16.175781 175.871094 15.15625 172.148438 17.558594 171.539062 C 18.738281 171.242188 20.195312 171.71875 21.359375 171.898438 C 23.75 172.265625 26.132812 172.664062 28.515625 173.058594 C 42.726562 175.429688 56.917969 177.921875 71.109375 180.410156 C 73.199219 180.773438 75.285156 181.144531 77.371094 181.511719 C 66.949219 176.285156 56.535156 171.042969 46.152344 165.75 C 40.390625 162.808594 34.628906 159.863281 28.910156 156.839844 C 27.152344 155.910156 25.390625 154.976562 23.660156 153.996094 C 22.726562 153.46875 21.546875 152.9375 20.933594 152.015625 C 19.679688 150.136719 22.304688 148.386719 23.828125 149.605469 C 23.839844 149.609375 23.851562 149.613281 23.875 149.628906 C 24.078125 149.742188 24.273438 149.886719 24.472656 150.007812 C 25.113281 150.394531 25.769531 150.761719 26.421875 151.121094 C 28.605469 152.332031 30.8125 153.492188 33.019531 154.648438 C 45.78125 161.332031 58.660156 167.800781 71.53125 174.273438 C 75.71875 176.382812 79.914062 178.476562 84.109375 180.574219 L 24.339844 139.546875 C 24.339844 139.550781 0.015625 174.335938 24.921875 227.089844 L 24.929688 227.085938 L 84.648438 191.574219 C 73.679688 196.195312 62.714844 200.820312 51.75 205.453125 C 45.980469 207.890625 40.207031 210.332031 34.441406 212.78125 Z M 256.609375 198.875 C 256.652344 198.90625 256.691406 198.941406 256.734375 198.972656 L 256.765625 198.746094 C 256.714844 198.789062 256.664062 198.832031 256.609375 198.875 Z M 241.140625 186.421875 C 238.511719 184.242188 235.859375 182.03125 233.203125 179.808594 C 223.621094 171.792969 213.976562 163.667969 205.070312 156.792969 C 196.015625 166.84375 192.527344 181.941406 193.683594 196.097656 C 193.757812 196.988281 193.84375 197.875 193.949219 198.761719 C 195.515625 211.929688 200.585938 224.382812 206.710938 235.832031 C 221.414062 224.84375 233.914062 216.660156 246.582031 206.921875 C 249.898438 204.371094 253.226562 201.71875 256.609375 198.875 C 252.96875 196.0625 249.203125 193.039062 245.375 189.902344 C 243.96875 188.753906 242.558594 187.59375 241.140625 186.421875 Z M 241.140625 186.421875 " fill-opacity="1" fill-rule="nonzero"/><path fill="#fff9d9" d="M 84.109375 180.574219 L 92.945312 186.640625 L 84.648438 191.574219 C 73.679688 196.195312 62.714844 200.820312 51.75 205.453125 C 45.980469 207.890625 40.207031 210.332031 34.441406 212.78125 C 31.832031 213.890625 29.132812 214.898438 26.589844 216.15625 C 24.371094 217.253906 22.421875 213.925781 24.644531 212.824219 C 27.769531 211.28125 31.085938 210.050781 34.289062 208.6875 C 47.234375 203.195312 60.191406 197.730469 73.148438 192.269531 C 75.644531 191.21875 78.136719 190.167969 80.632812 189.117188 C 69.722656 190.53125 58.816406 191.957031 47.910156 193.40625 C 41.566406 194.25 35.375 195.078125 28.957031 195.980469 C 26.925781 196.265625 24.894531 196.550781 22.871094 196.867188 C 22.289062 196.957031 21.707031 197.042969 21.128906 197.152344 C 20.703125 197.230469 20.128906 197.542969 20.855469 197.121094 C 18.703125 198.375 16.765625 195.039062 18.910156 193.789062 C 19.839844 193.25 21.214844 193.242188 22.242188 193.085938 C 24.707031 192.710938 27.175781 192.363281 29.644531 192.019531 C 44.21875 189.996094 58.808594 188.097656 73.394531 186.195312 C 75.015625 185.984375 76.640625 185.777344 78.265625 185.566406 C 67.199219 183.621094 56.132812 181.683594 45.0625 179.773438 C 38.753906 178.683594 32.445312 177.597656 26.128906 176.554688 C 24.132812 176.222656 22.136719 175.894531 20.136719 175.589844 C 19.785156 175.535156 19.4375 175.484375 19.085938 175.433594 C 18.992188 175.417969 18.894531 175.40625 18.800781 175.390625 C 18.355469 175.347656 17.761719 175.46875 18.582031 175.261719 C 16.175781 175.871094 15.15625 172.148438 17.558594 171.539062 C 18.738281 171.242188 20.195312 171.71875 21.359375 171.898438 C 23.75 172.265625 26.132812 172.664062 28.515625 173.058594 C 42.726562 175.429688 56.917969 177.921875 71.109375 180.410156 C 73.199219 180.773438 75.285156 181.144531 77.371094 181.511719 C 66.949219 176.285156 56.535156 171.042969 46.152344 165.75 C 40.390625 162.808594 34.628906 159.863281 28.910156 156.839844 C 27.152344 155.910156 25.390625 154.976562 23.660156 153.996094 C 22.726562 153.46875 21.546875 152.9375 20.933594 152.015625 C 19.679688 150.136719 22.304688 148.386719 23.828125 149.605469 C 23.839844 149.609375 23.851562 149.613281 23.875 149.628906 C 24.078125 149.742188 24.273438 149.886719 24.472656 150.007812 C 25.113281 150.394531 25.769531 150.761719 26.421875 151.121094 C 28.605469 152.332031 30.8125 153.492188 33.019531 154.648438 C 45.78125 161.332031 58.660156 167.800781 71.53125 174.273438 C 75.71875 176.382812 79.914062 178.476562 84.109375 180.574219 Z M 313.339844 159.355469 C 312.597656 166.988281 305.289062 172.585938 297.015625 171.851562 C 288.742188 171.121094 282.640625 164.335938 283.382812 156.703125 C 284.125 149.070312 291.433594 143.472656 299.707031 144.207031 C 307.980469 144.9375 314.082031 151.722656 313.339844 159.355469 Z M 299.335938 146.925781 C 296.035156 146.632812 292.929688 147.601562 290.570312 149.402344 C 292.769531 149.820312 294.429688 151.691406 294.429688 153.941406 C 294.429688 156.496094 292.285156 158.570312 289.632812 158.570312 C 288.320312 158.570312 287.132812 158.058594 286.265625 157.234375 C 285.867188 163.210938 290.679688 168.460938 297.183594 169.039062 C 303.800781 169.625 309.644531 165.148438 310.238281 159.042969 C 310.835938 152.9375 305.953125 147.511719 299.335938 146.925781 Z M 299.335938 146.925781 " fill-opacity="1" fill-rule="nonzero"/></svg>