<svg xmlns="http://www.w3.org/2000/svg" enable-background="new 0 0 50 50" viewBox="0 0 50 50" id="fish"><path d="M48.99998 31.755c0 .38-.2002.72998-.54004.90002-1.16016.60999-2.48999.93005-3.8501.93005-4.70996 0-8.54004-3.84009-8.54004-8.56006 0-4.70996 3.83008-8.55005 8.54004-8.55005 1.36011 0 2.68994.32007 3.8501.93005.33984.18005.54004.5199.54004.90002-.01001.37988-.22021.71997-.56006.88989-2.19995 1.08008-3.63013 3.37012-3.63013 5.83008 0 2.46997 1.43018 4.77002 3.63013 5.84998C48.77976 31.03503 48.98997 31.38501 48.99998 31.755zM30.54978 11.96497c-.20543.95238-.8906.52337-2.33984 1.44006-3.03121-.89965-6.53306-1.23817-8.68018-1.08997 1.34009-1.86011 3.54004-3.02002 5.97998-3.02002 1.72021 0 3.39014.59998 4.7002 1.66992C30.49998 11.20496 30.63987 11.59509 30.54978 11.96497zM30.20994 39.03503c-1.31006 1.07996-2.97998 1.66992-4.7002 1.66992-2.37988 0-4.55981-1.1499-5.91992-2.95996 1.94714.14436 5.51406-.16235 8.68994-1.10999 1.36248.86906 2.06601.46423 2.27002 1.41003C30.63987 38.41504 30.49998 38.79504 30.20994 39.03503zM11.43992 15.95496c-.25.09009-.48999.19006-.72998.29004-4.12012 1.69995-7.23999 4.58008-8.95996 7.23999-.07007.07007-.56006.93005-.63013 1.06006-.15991.30005-.15991.65991 0 .95996 2.03003 3.76001 5.57007 6.62 9.56006 8.30005.25.10999.5.20996.75.29993 2.11011-2.5 3.32007-5.69995 3.32007-9.07996C14.74998 21.65503 13.54002 18.45496 11.43992 15.95496zM10.30027 24.6051H9.51511c-.55273 0-1-.44727-1-1s.44727-1 1-1h.78516c.55273 0 1 .44727 1 1S10.853 24.6051 10.30027 24.6051z"></path><path d="M34.0698,25.02502c0,2,0.56006,3.88,1.53003,5.47998c-3.92993,3.34009-9.36987,5.26001-15.17993,5.26001
			c-2.39014,0-4.76001-0.33008-6.97998-0.97998c2.11987-2.76001,3.31006-6.17004,3.31006-9.76001c0-3.59009-1.19019-7-3.31006-9.75
			c2.21997-0.65002,4.56006-0.97998,6.97998-0.97998c5.81006,0,11.25,1.92993,15.17993,5.27002
			C34.62986,21.15503,34.0698,23.02502,34.0698,25.02502z"></path></svg>