<svg xmlns="http://www.w3.org/2000/svg" xmlns:xlink="http://www.w3.org/1999/xlink" width="500" zoomAndPan="magnify" viewBox="0 0 375 374.999991" height="500" preserveAspectRatio="xMidYMid meet" version="1.0"><defs><clipPath id="3abfa64ff7"><path d="M 48 80 L 331.980469 80 L 331.980469 309 L 48 309 Z M 48 80 " clip-rule="nonzero"/></clipPath><clipPath id="a38104ce6f"><path d="M 49 80 L 331.980469 80 L 331.980469 309 L 49 309 Z M 49 80 " clip-rule="nonzero"/></clipPath></defs><g clip-path="url(#3abfa64ff7)"><path fill="#ffe05c" d="M 331.117188 205.921875 C 323.082031 208.480469 309.742188 208.878906 309.699219 208.890625 C 316.316406 215.292969 320.535156 216.859375 328.382812 216.515625 C 327.402344 226.992188 317.769531 243.660156 300.613281 257.796875 C 300.390625 258.3125 300.15625 258.820312 299.910156 259.328125 C 294.261719 273.007812 281.558594 284.433594 267.222656 291.972656 C 250.308594 300.859375 230.511719 305.25 210.582031 307.289062 C 163.941406 312.0625 115.070312 304.222656 72.464844 285.128906 C 70.179688 284.105469 67.648438 282.761719 67.15625 280.601562 C 66.734375 278.75 67.992188 277.015625 69.226562 275.515625 C 81.507812 260.605469 96.851562 247.632812 114.34375 237.28125 C 106.761719 231.171875 100.894531 225.820312 97.179688 222.296875 C 84.507812 233.191406 71.601562 245.988281 59.960938 257.589844 C 59.964844 257.605469 59.96875 257.621094 59.972656 257.636719 C 60.789062 260.652344 58.089844 262.492188 55.742188 261.792969 C 55.621094 261.914062 55.496094 262.039062 55.375 262.160156 L 55.570312 261.734375 C 54.957031 261.515625 54.375 261.121094 53.894531 260.519531 C 48.507812 253.75 48.675781 244.335938 50.035156 236.234375 C 50.699219 232.253906 51.824219 228.394531 53.257812 224.628906 C 54.640625 221.003906 56.59375 217.738281 58.265625 214.261719 C 59.003906 212.730469 59.527344 211.128906 59.257812 209.414062 C 58.96875 207.566406 58.105469 205.734375 57.4375 204.003906 C 55.949219 200.15625 54.339844 196.359375 52.882812 192.503906 C 52.710938 192.050781 52.542969 191.59375 52.378906 191.136719 C 51.273438 188.4375 50.425781 185.628906 49.832031 182.761719 C 47.339844 172.519531 47.171875 161.683594 52.941406 152.671875 C 53.234375 152.011719 53.539062 151.359375 53.863281 150.714844 L 54.582031 150.367188 C 54.675781 150.246094 54.761719 150.125 54.859375 150.007812 C 57.03125 147.332031 60.265625 149.988281 61.199219 152.429688 C 61.667969 153.644531 61.683594 154.957031 61.488281 156.277344 C 70.324219 165.570312 80.183594 175.886719 89.683594 185.84375 C 91.289062 184.039062 92.691406 182.585938 93.253906 182.058594 C 95.949219 179.527344 98.667969 177.035156 101.414062 174.570312 C 87.027344 160.175781 74.066406 143.46875 63.027344 124.996094 C 61.636719 122.664062 60.199219 119.972656 60.5 117.191406 C 60.851562 113.945312 63.378906 112.035156 65.671875 110.597656 C 108.484375 83.78125 158.632812 74.316406 207.40625 83.847656 C 228.25 87.921875 249.128906 95.546875 267.34375 109.847656 C 287.171875 125.414062 304.675781 150.5625 307.703125 179.472656 C 307.71875 179.59375 307.734375 179.71875 307.75 179.839844 C 314.921875 190.804688 323.839844 202.84375 331.070312 204.582031 C 331.753906 204.746094 331.785156 205.710938 331.117188 205.921875 Z M 331.117188 205.921875 " fill-opacity="1" fill-rule="nonzero"/></g><g clip-path="url(#a38104ce6f)"><path fill="#ffe05c" d="M 53.863281 150.714844 L 54.582031 150.367188 C 53.988281 151.121094 53.441406 151.886719 52.941406 152.671875 C 53.234375 152.011719 53.539062 151.359375 53.863281 150.714844 Z M 52.378906 191.136719 C 51.402344 188.425781 50.527344 185.617188 49.832031 182.761719 C 50.425781 185.628906 51.273438 188.4375 52.378906 191.136719 Z M 55.375 262.160156 C 55.496094 262.039062 55.621094 261.914062 55.742188 261.792969 C 55.683594 261.777344 55.628906 261.753906 55.570312 261.734375 Z M 271.238281 285.914062 C 255.9375 293.628906 238.003906 297.398438 219.941406 299.109375 C 177.671875 303.113281 133.339844 296.070312 94.648438 279.203125 C 92.570312 278.300781 90.273438 277.113281 89.820312 275.222656 C 89.429688 273.601562 90.566406 272.085938 91.679688 270.78125 C 100.375 260.582031 110.78125 251.433594 122.5 243.621094 C 123.019531 244.007812 123.539062 244.394531 124.066406 244.785156 C 124.601562 243.765625 125.132812 242.746094 125.648438 241.734375 C 130.972656 231.3125 134.808594 220.335938 132.734375 208.484375 C 131.707031 202.613281 129.445312 197.332031 126.539062 192.164062 C 123.480469 186.730469 120.261719 181.394531 118.398438 175.398438 C 117 170.898438 116.273438 166.394531 116.105469 161.914062 C 114.136719 163.542969 112.175781 165.183594 110.230469 166.847656 C 101.488281 157.066406 93.476562 146.320312 86.363281 134.777344 C 85.109375 132.742188 83.820312 130.394531 84.105469 127.957031 C 84.433594 125.117188 86.730469 123.433594 88.820312 122.164062 C 127.734375 98.53125 173.230469 90.050781 217.40625 98.203125 C 236.285156 101.6875 255.183594 108.28125 271.636719 120.722656 C 289.074219 133.902344 304.464844 155.039062 307.703125 179.472656 C 304.675781 150.5625 287.171875 125.414062 267.34375 109.847656 C 249.128906 95.546875 228.25 87.921875 207.40625 83.847656 C 158.632812 74.316406 108.484375 83.78125 65.671875 110.597656 C 63.378906 112.035156 60.851562 113.945312 60.5 117.191406 C 60.199219 119.972656 61.636719 122.664062 63.027344 124.996094 C 74.066406 143.46875 87.027344 160.175781 101.414062 174.570312 C 98.667969 177.035156 95.949219 179.527344 93.253906 182.058594 C 92.691406 182.585938 91.289062 184.039062 89.683594 185.84375 C 80.183594 175.886719 70.324219 165.570312 61.488281 156.277344 C 61.191406 158.238281 60.417969 160.222656 59.890625 161.941406 C 58.085938 167.792969 57.792969 174.082031 58.917969 180.097656 C 60.066406 186.246094 63.101562 191.089844 65.800781 196.589844 C 67.375 199.804688 68.632812 203.074219 69.039062 206.65625 C 69.4375 210.164062 68.855469 213.796875 67.851562 217.152344 C 65.816406 223.941406 62.429688 230.207031 60.609375 237.074219 C 58.832031 243.777344 58.140625 250.820312 59.960938 257.589844 C 71.601562 245.988281 84.507812 233.191406 97.179688 222.296875 C 100.894531 225.820312 106.761719 231.171875 114.34375 237.28125 C 96.851562 247.632812 81.507812 260.605469 69.226562 275.515625 C 67.992188 277.015625 66.734375 278.75 67.15625 280.601562 C 67.648438 282.761719 70.179688 284.105469 72.464844 285.128906 C 115.070312 304.222656 163.941406 312.0625 210.582031 307.289062 C 230.511719 305.25 250.308594 300.859375 267.222656 291.972656 C 281.558594 284.433594 294.261719 273.007812 299.910156 259.328125 C 294.480469 270.449219 283.53125 279.714844 271.238281 285.914062 Z M 331.070312 204.582031 C 323.839844 202.84375 314.921875 190.804688 307.75 179.839844 C 303.429688 173.238281 299.746094 167.027344 297.441406 163.6875 C 283.773438 143.851562 273.808594 127.152344 251.894531 118.46875 C 249.417969 122.355469 247.132812 126.375 245.449219 130.664062 C 243.132812 136.5625 241.289062 142.828125 240.089844 149.046875 C 238.878906 155.308594 238.566406 161.835938 239.390625 168.167969 C 240.117188 173.738281 241.902344 178.957031 244.339844 183.960938 C 252.4375 186.441406 261.027344 189.308594 269.640625 192.195312 C 272.433594 185.277344 279.199219 180.601562 286.890625 181.027344 C 296.71875 181.570312 304.335938 190.25 303.898438 200.410156 C 303.5 209.589844 296.667969 216.839844 288.101562 217.75 C 279.476562 227.492188 270.558594 236.777344 260.589844 248.175781 C 257.757812 245.699219 255.011719 243.101562 252.425781 240.371094 C 250.335938 246.113281 247.625 251.667969 244.882812 257.207031 C 240.753906 265.550781 236.558594 274.214844 235.824219 283.527344 C 263.101562 281.449219 284.980469 270.675781 300.613281 257.796875 C 317.769531 243.660156 327.402344 226.992188 328.382812 216.515625 C 320.535156 216.859375 316.316406 215.292969 309.699219 208.890625 C 309.742188 208.878906 323.082031 208.480469 331.117188 205.921875 C 331.785156 205.710938 331.753906 204.746094 331.070312 204.582031 Z M 129.625 248.78125 C 134.953125 252.515625 140.746094 256.28125 146.917969 259.894531 C 148.207031 257.160156 149.554688 254.457031 150.875 251.785156 C 156.222656 240.953125 160.785156 230.042969 160.066406 217.699219 C 159.691406 211.324219 157.976562 205.066406 155.183594 199.332031 C 152.25 193.308594 148.644531 187.644531 146.269531 181.355469 C 140.945312 167.246094 142.105469 152.695312 146.570312 138.882812 C 140.253906 143.121094 134.089844 147.652344 128.050781 152.332031 C 126.371094 153.632812 124.703125 154.949219 123.039062 156.277344 C 122.527344 164.453125 123.847656 172.675781 127.597656 180.105469 C 130.28125 185.425781 133.640625 190.382812 135.992188 195.871094 C 138.390625 201.464844 139.769531 207.40625 140.046875 213.496094 C 140.601562 225.726562 135.921875 236.703125 130.386719 247.324219 C 130.132812 247.808594 129.878906 248.292969 129.625 248.78125 Z M 211.683594 252.609375 C 217.03125 241.773438 221.59375 230.867188 220.871094 218.523438 C 220.5 212.144531 218.785156 205.890625 215.992188 200.152344 C 213.058594 194.132812 209.453125 188.46875 207.078125 182.175781 C 198.085938 158.359375 207.5625 133.265625 220.277344 112.644531 C 212.117188 112.660156 203.964844 113.730469 196.027344 115.671875 C 188.945312 126.765625 182.871094 138.632812 180.355469 151.652344 C 179.144531 157.914062 178.828125 164.441406 179.65625 170.773438 C 180.46875 177.015625 182.609375 182.824219 185.515625 188.378906 C 188.574219 194.21875 191.945312 199.890625 193.96875 206.210938 C 195.957031 212.429688 196.824219 219.113281 196.476562 225.636719 C 195.824219 237.984375 190.535156 248.921875 185.148438 259.8125 C 182.710938 264.734375 180.25 269.773438 178.492188 274.988281 C 185.699219 277.644531 193.167969 279.835938 200.820312 281.375 C 202.285156 271.234375 207.164062 261.761719 211.683594 252.609375 Z M 240.003906 126.210938 C 241.5 122.722656 243.332031 119.414062 245.324219 116.191406 C 239.65625 114.496094 233.886719 113.445312 228.089844 112.960938 C 220.632812 124.4375 214.167969 136.746094 211.550781 150.292969 C 210.339844 156.554688 210.023438 163.078125 210.851562 169.410156 C 211.664062 175.65625 213.804688 181.464844 216.710938 187.015625 C 219.769531 192.859375 223.140625 198.53125 225.164062 204.847656 C 227.152344 211.070312 228.019531 217.753906 227.671875 224.277344 C 227.019531 236.625 221.730469 247.5625 216.34375 258.449219 C 212.546875 266.125 208.6875 274.066406 207.523438 282.539062 C 209.835938 282.878906 212.164062 283.164062 214.503906 283.371094 C 219.480469 283.8125 224.304688 283.957031 228.984375 283.859375 C 229.636719 272.300781 235.152344 261.632812 240.222656 251.363281 C 242.976562 245.789062 245.511719 240.195312 247.234375 234.394531 C 243.464844 229.628906 240.28125 224.476562 238.042969 218.863281 C 233.949219 208.59375 233.351562 196.589844 237.929688 186.21875 C 237.089844 184.492188 236.300781 182.738281 235.617188 180.933594 C 230.90625 168.445312 231.394531 154.414062 234.847656 141.683594 C 236.273438 136.429688 237.851562 131.222656 240.003906 126.210938 Z M 180.488281 253.96875 C 185.835938 243.136719 190.398438 232.226562 189.675781 219.882812 C 189.304688 213.507812 187.589844 207.25 184.796875 201.515625 C 181.863281 195.492188 178.257812 189.828125 175.882812 183.539062 C 167.53125 161.414062 175.113281 138.1875 186.429688 118.464844 C 186.316406 118.503906 186.203125 118.539062 186.089844 118.578125 C 175.574219 122.164062 165.554688 127.121094 155.917969 132.921875 C 153.652344 138.238281 151.847656 143.742188 150.742188 149.46875 C 149.53125 155.730469 149.21875 162.257812 150.042969 168.589844 C 150.855469 174.835938 152.996094 180.640625 155.902344 186.195312 C 158.960938 192.035156 162.332031 197.707031 164.355469 204.027344 C 166.34375 210.246094 167.210938 216.929688 166.863281 223.453125 C 166.210938 235.800781 160.921875 246.738281 155.535156 257.628906 C 154.621094 259.476562 153.703125 261.339844 152.820312 263.226562 C 158.96875 266.582031 165.445312 269.742188 172.183594 272.527344 C 174.394531 266.136719 177.515625 259.984375 180.488281 253.96875 Z M 180.488281 253.96875 " fill-opacity="1" fill-rule="nonzero"/></g><path fill="#f4a63d" d="M 244.882812 257.207031 C 247.625 251.667969 250.335938 246.113281 252.425781 240.371094 C 250.605469 238.449219 248.867188 236.457031 247.234375 234.394531 C 245.511719 240.195312 242.976562 245.789062 240.222656 251.363281 C 235.152344 261.632812 229.636719 272.300781 228.984375 283.859375 C 224.304688 283.957031 219.480469 283.8125 214.503906 283.371094 C 212.164062 283.164062 209.835938 282.878906 207.523438 282.539062 C 208.6875 274.066406 212.546875 266.125 216.34375 258.449219 C 221.730469 247.5625 227.019531 236.625 227.671875 224.277344 C 228.019531 217.753906 227.152344 211.070312 225.164062 204.847656 C 223.140625 198.53125 219.769531 192.859375 216.710938 187.015625 C 213.804688 181.464844 211.664062 175.65625 210.851562 169.410156 C 210.023438 163.078125 210.339844 156.554688 211.550781 150.292969 C 214.167969 136.746094 220.632812 124.4375 228.089844 112.960938 C 233.886719 113.445312 239.65625 114.496094 245.324219 116.191406 C 243.332031 119.414062 241.5 122.722656 240.003906 126.210938 C 237.851562 131.222656 236.273438 136.429688 234.847656 141.683594 C 231.394531 154.414062 230.90625 168.445312 235.617188 180.933594 C 236.300781 182.738281 237.089844 184.492188 237.929688 186.21875 C 238.472656 184.984375 239.085938 183.769531 239.78125 182.589844 C 241.277344 183.027344 242.804688 183.488281 244.339844 183.960938 C 241.902344 178.957031 240.117188 173.738281 239.390625 168.167969 C 238.566406 161.835938 238.878906 155.308594 240.089844 149.046875 C 241.289062 142.828125 243.132812 136.5625 245.449219 130.664062 C 247.132812 126.375 249.417969 122.355469 251.894531 118.46875 C 273.808594 127.152344 283.773438 143.851562 297.441406 163.6875 C 299.746094 167.027344 303.429688 173.238281 307.75 179.839844 C 307.734375 179.71875 307.71875 179.59375 307.703125 179.472656 C 304.464844 155.039062 289.074219 133.902344 271.636719 120.722656 C 255.183594 108.28125 236.285156 101.6875 217.40625 98.203125 C 173.230469 90.050781 127.734375 98.53125 88.820312 122.164062 C 86.730469 123.433594 84.433594 125.117188 84.105469 127.957031 C 83.820312 130.394531 85.109375 132.742188 86.363281 134.777344 C 93.476562 146.320312 101.488281 157.066406 110.230469 166.847656 C 112.175781 165.183594 114.136719 163.542969 116.105469 161.914062 C 116.273438 166.394531 117 170.898438 118.398438 175.398438 C 120.261719 181.394531 123.480469 186.730469 126.539062 192.164062 C 129.445312 197.332031 131.707031 202.613281 132.734375 208.484375 C 134.808594 220.335938 130.972656 231.3125 125.648438 241.734375 C 125.132812 242.746094 124.601562 243.765625 124.066406 244.785156 C 123.539062 244.394531 123.019531 244.007812 122.5 243.621094 C 110.78125 251.433594 100.375 260.582031 91.679688 270.78125 C 90.566406 272.085938 89.429688 273.601562 89.820312 275.222656 C 90.273438 277.113281 92.570312 278.300781 94.648438 279.203125 C 133.339844 296.070312 177.671875 303.113281 219.941406 299.109375 C 238.003906 297.398438 255.9375 293.628906 271.238281 285.914062 C 283.53125 279.714844 294.480469 270.449219 299.910156 259.328125 C 300.15625 258.820312 300.390625 258.3125 300.613281 257.796875 C 284.980469 270.675781 263.101562 281.449219 235.824219 283.527344 C 236.558594 274.214844 240.753906 265.550781 244.882812 257.207031 Z M 130.386719 247.324219 C 135.921875 236.703125 140.601562 225.726562 140.046875 213.496094 C 139.769531 207.40625 138.390625 201.464844 135.992188 195.871094 C 133.640625 190.382812 130.28125 185.425781 127.597656 180.105469 C 123.847656 172.675781 122.527344 164.453125 123.039062 156.277344 C 124.703125 154.949219 126.371094 153.632812 128.050781 152.332031 C 134.089844 147.652344 140.253906 143.121094 146.570312 138.882812 C 142.105469 152.695312 140.945312 167.246094 146.269531 181.355469 C 148.644531 187.644531 152.25 193.308594 155.183594 199.332031 C 157.976562 205.066406 159.691406 211.324219 160.066406 217.699219 C 160.785156 230.042969 156.222656 240.953125 150.875 251.785156 C 149.554688 254.457031 148.207031 257.160156 146.917969 259.894531 C 140.746094 256.28125 134.953125 252.515625 129.625 248.78125 C 129.878906 248.292969 130.132812 247.808594 130.386719 247.324219 Z M 155.535156 257.628906 C 160.921875 246.738281 166.210938 235.800781 166.863281 223.453125 C 167.210938 216.929688 166.34375 210.246094 164.355469 204.027344 C 162.332031 197.707031 158.960938 192.035156 155.902344 186.195312 C 152.996094 180.640625 150.855469 174.835938 150.042969 168.589844 C 149.21875 162.257812 149.53125 155.730469 150.742188 149.46875 C 151.847656 143.742188 153.652344 138.238281 155.917969 132.921875 C 165.554688 127.121094 175.574219 122.164062 186.089844 118.578125 C 186.203125 118.539062 186.316406 118.503906 186.429688 118.464844 C 175.113281 138.1875 167.53125 161.414062 175.882812 183.539062 C 178.257812 189.828125 181.863281 195.492188 184.796875 201.515625 C 187.589844 207.25 189.304688 213.507812 189.675781 219.882812 C 190.398438 232.226562 185.835938 243.136719 180.488281 253.96875 C 177.515625 259.984375 174.394531 266.136719 172.183594 272.527344 C 165.445312 269.742188 158.96875 266.582031 152.820312 263.226562 C 153.703125 261.339844 154.621094 259.476562 155.535156 257.628906 Z M 178.492188 274.988281 C 180.25 269.773438 182.710938 264.734375 185.148438 259.8125 C 190.535156 248.921875 195.824219 237.984375 196.476562 225.636719 C 196.824219 219.113281 195.957031 212.429688 193.96875 206.210938 C 191.945312 199.890625 188.574219 194.21875 185.515625 188.378906 C 182.609375 182.824219 180.46875 177.015625 179.65625 170.773438 C 178.828125 164.441406 179.144531 157.914062 180.355469 151.652344 C 182.871094 138.632812 188.945312 126.765625 196.027344 115.671875 C 203.964844 113.730469 212.117188 112.660156 220.277344 112.644531 C 207.5625 133.265625 198.085938 158.359375 207.078125 182.175781 C 209.453125 188.46875 213.058594 194.132812 215.992188 200.152344 C 218.785156 205.890625 220.5 212.144531 220.871094 218.523438 C 221.59375 230.867188 217.03125 241.773438 211.683594 252.609375 C 207.164062 261.761719 202.285156 271.234375 200.820312 281.375 C 193.167969 279.835938 185.699219 277.644531 178.492188 274.988281 Z M 178.492188 274.988281 " fill-opacity="1" fill-rule="nonzero"/><path fill="#6191dc" d="M 288.101562 217.75 C 279.476562 227.492188 270.558594 236.777344 260.589844 248.175781 C 257.757812 245.699219 255.011719 243.101562 252.425781 240.371094 C 250.605469 238.449219 248.867188 236.457031 247.234375 234.394531 C 243.464844 229.628906 240.28125 224.476562 238.042969 218.863281 C 233.949219 208.59375 233.351562 196.589844 237.929688 186.21875 C 238.472656 184.984375 239.085938 183.769531 239.78125 182.589844 C 241.277344 183.027344 242.804688 183.488281 244.339844 183.960938 C 252.4375 186.441406 261.027344 189.308594 269.640625 192.195312 C 268.859375 194.121094 268.390625 196.226562 268.292969 198.441406 C 267.855469 208.601562 275.46875 217.28125 285.300781 217.824219 C 286.25 217.875 287.1875 217.847656 288.101562 217.75 Z M 288.101562 217.75 " fill-opacity="1" fill-rule="nonzero"/><path fill="#fff9d9" d="M 285.300781 217.824219 C 286.25 217.875 287.1875 217.847656 288.101562 217.75 C 296.667969 216.839844 303.5 209.589844 303.898438 200.410156 C 304.335938 190.25 296.71875 181.570312 286.890625 181.027344 C 279.199219 180.601562 272.433594 185.277344 269.640625 192.195312 C 268.859375 194.121094 268.390625 196.226562 268.292969 198.441406 C 267.855469 208.601562 275.46875 217.28125 285.300781 217.824219 Z M 277.875 203.734375 C 281.644531 203.570312 284.554688 200.132812 284.378906 196.054688 C 284.199219 191.980469 281 188.808594 277.230469 188.972656 C 276.898438 188.984375 276.578125 189.035156 276.265625 189.097656 C 278.925781 186.265625 282.714844 184.59375 286.847656 184.820312 C 294.480469 185.242188 300.390625 191.980469 300.050781 199.871094 C 299.710938 207.757812 293.246094 213.8125 285.613281 213.390625 C 278.988281 213.023438 273.664062 207.898438 272.59375 201.394531 C 273.914062 202.910156 275.804688 203.824219 277.875 203.734375 Z M 277.875 203.734375 " fill-opacity="1" fill-rule="nonzero"/><path fill="#383c61" d="M 69.039062 206.65625 C 69.4375 210.164062 68.855469 213.796875 67.851562 217.152344 C 65.816406 223.941406 62.429688 230.207031 60.609375 237.074219 C 58.832031 243.777344 58.140625 250.820312 59.960938 257.589844 C 59.964844 257.605469 59.96875 257.621094 59.972656 257.636719 C 60.789062 260.652344 58.089844 262.492188 55.742188 261.792969 C 55.683594 261.777344 55.628906 261.753906 55.570312 261.734375 C 54.957031 261.515625 54.375 261.121094 53.894531 260.519531 C 48.507812 253.75 48.675781 244.335938 50.035156 236.234375 C 50.699219 232.253906 51.824219 228.394531 53.257812 224.628906 C 54.640625 221.003906 56.59375 217.738281 58.265625 214.261719 C 59.003906 212.730469 59.527344 211.128906 59.257812 209.414062 C 58.96875 207.566406 58.105469 205.734375 57.4375 204.003906 C 55.949219 200.15625 54.339844 196.359375 52.882812 192.503906 C 52.710938 192.050781 52.542969 191.59375 52.378906 191.136719 C 51.402344 188.425781 50.527344 185.617188 49.832031 182.761719 C 47.339844 172.519531 47.171875 161.683594 52.941406 152.671875 C 53.441406 151.886719 53.988281 151.121094 54.582031 150.367188 C 54.675781 150.246094 54.761719 150.125 54.859375 150.007812 C 57.03125 147.332031 60.265625 149.988281 61.199219 152.429688 C 61.667969 153.644531 61.683594 154.957031 61.488281 156.277344 C 61.191406 158.238281 60.417969 160.222656 59.890625 161.941406 C 58.085938 167.792969 57.792969 174.082031 58.917969 180.097656 C 60.066406 186.246094 63.101562 191.089844 65.800781 196.589844 C 67.375 199.804688 68.632812 203.074219 69.039062 206.65625 Z M 286.847656 184.820312 C 282.714844 184.59375 278.925781 186.265625 276.265625 189.097656 C 276.578125 189.035156 276.898438 188.984375 277.230469 188.972656 C 281 188.808594 284.199219 191.980469 284.378906 196.054688 C 284.554688 200.132812 281.644531 203.570312 277.875 203.734375 C 275.804688 203.824219 273.914062 202.910156 272.59375 201.394531 C 273.664062 207.898438 278.988281 213.023438 285.613281 213.390625 C 293.246094 213.8125 299.710938 207.757812 300.050781 199.871094 C 300.390625 191.980469 294.480469 185.242188 286.847656 184.820312 Z M 286.847656 184.820312 " fill-opacity="1" fill-rule="nonzero"/></svg>