<svg xmlns="http://www.w3.org/2000/svg" xmlns:xlink="http://www.w3.org/1999/xlink" width="500" zoomAndPan="magnify" viewBox="0 0 375 374.999991" height="500" preserveAspectRatio="xMidYMid meet" version="1.0"><defs><clipPath id="538bfed007"><path d="M 10.941406 83 L 367 83 L 367 298 L 10.941406 298 Z M 10.941406 83 " clip-rule="nonzero"/></clipPath><clipPath id="1e9e04c4b1"><path d="M 10.941406 115 L 245 115 L 245 271 L 10.941406 271 Z M 10.941406 115 " clip-rule="nonzero"/></clipPath></defs><g clip-path="url(#538bfed007)"><path fill="#ff8657" d="M 357.179688 194.441406 C 357.585938 191.679688 359.039062 189.222656 360.296875 186.746094 C 369.4375 168.761719 368.746094 145.941406 358.539062 128.570312 C 357.90625 127.496094 357.207031 126.40625 356.167969 125.75 C 355.050781 125.046875 353.6875 124.925781 352.375 124.902344 C 346.941406 124.8125 341.496094 126.164062 336.675781 128.738281 C 335.671875 128.878906 334.671875 129.167969 333.703125 129.476562 C 307.660156 137.8125 285.792969 158.140625 275.238281 183.34375 C 274.976562 183.6875 274.707031 184.023438 274.453125 184.371094 C 273.066406 172.769531 268.652344 162.082031 261.390625 152.738281 C 262.171875 151.207031 263.09375 149.390625 264.078125 147.398438 C 274.136719 127.058594 269.796875 108.644531 254.320312 106.789062 C 254.230469 106.777344 254.140625 106.769531 254.050781 106.757812 C 244.867188 105.734375 234.914062 108.257812 225.222656 112.875 C 225.167969 112.902344 225.105469 112.933594 225.050781 112.960938 C 221.234375 113.742188 217.417969 114.878906 213.660156 116.304688 C 211.175781 117.25 208.519531 118.472656 205.792969 119.875 C 204.320312 119.53125 202.859375 119.207031 201.421875 118.910156 C 201.511719 94.917969 186.023438 79.429688 165.035156 84.1875 C 164.902344 84.214844 164.769531 84.246094 164.636719 84.277344 C 151.25 87.40625 138.75 94.828125 127.78125 104.445312 C 127.578125 104.621094 127.375 104.816406 127.175781 104.996094 C 123.855469 106.941406 120.632812 109.054688 117.527344 111.316406 C 113.5625 114.203125 109.441406 117.789062 105.355469 121.6875 C 97.03125 123.824219 88.847656 126.582031 80.6875 130.339844 C 74.054688 133.105469 67.765625 136.183594 61.964844 139.550781 C 61.722656 139.6875 61.488281 139.832031 61.25 139.972656 C 61.25 139.96875 61.25 139.96875 61.25 139.96875 C 38.375 152.863281 10.941406 172.101562 10.941406 191.507812 C 10.941406 195.496094 12.261719 199.324219 14.515625 203.015625 C 15.40625 204.480469 16.445312 205.921875 17.605469 207.34375 C 17.75 207.519531 17.902344 207.695312 18.050781 207.871094 C 17.445312 209.007812 17.550781 210.511719 18.992188 211.339844 C 20.355469 212.128906 21.792969 212.742188 23.277344 213.230469 C 31.886719 221.0625 43.753906 228.222656 53.515625 235.441406 C 53.519531 235.4375 53.519531 235.433594 53.523438 235.429688 C 59.917969 240.207031 67.121094 244.636719 74.894531 248.632812 C 79.261719 250.917969 83.75 253.105469 88.402344 255.136719 C 98.144531 268.394531 113.03125 284.773438 117.074219 287.859375 C 118.605469 289.378906 120.246094 290.78125 122.027344 292.027344 C 129.144531 297.007812 138.957031 298.996094 146.621094 294.898438 C 152.824219 291.578125 156.636719 284.820312 157.917969 277.898438 C 158.363281 275.5 158.539062 273.074219 158.527344 270.640625 C 160.472656 270.710938 162.40625 270.746094 164.332031 270.746094 C 168.609375 270.746094 172.8125 270.582031 176.933594 270.273438 C 179.863281 270.125 182.726562 269.933594 185.523438 269.6875 C 187.871094 271.503906 190.320312 273.175781 192.855469 274.675781 C 199.78125 279.738281 207.339844 283.5625 215.289062 285.402344 C 227.308594 288.179688 240.242188 286.125 249.972656 278.289062 C 254.933594 274.300781 259.066406 268.707031 260.636719 261.957031 C 262.613281 253.460938 260.355469 244.535156 256.535156 236.371094 C 264.101562 228.277344 269.558594 219.101562 272.476562 209.242188 C 274.441406 212.671875 276.609375 215.964844 278.976562 219.109375 C 291.296875 238.925781 308.339844 255.808594 328.339844 267.828125 C 330.15625 268.921875 332.222656 270 334.289062 269.636719 C 341.5625 273.769531 351.953125 271.386719 355.671875 262.097656 C 356.894531 259.042969 357.96875 255.707031 359.25 252.097656 C 364.804688 236.476562 362.28125 219.109375 358.226562 203.011719 C 357.519531 200.203125 356.761719 197.308594 357.179688 194.441406 Z M 357.179688 194.441406 " fill-opacity="1" fill-rule="nonzero"/></g><path fill="#fff9d9" d="M 174.722656 131.644531 C 179.25 144.441406 191.386719 183.542969 185.636719 202.9375 C 179.882812 222.332031 174.390625 225.742188 170.269531 236.5625 C 167.757812 243.152344 165.949219 254.054688 172.890625 268.152344 C 173.054688 268.492188 173.796875 269.949219 174.242188 270.398438 C 175.144531 270.359375 176.039062 270.316406 176.933594 270.273438 C 172.8125 270.582031 168.609375 270.746094 164.332031 270.746094 C 162.40625 270.746094 160.472656 270.710938 158.527344 270.640625 C 155.191406 270.523438 151.828125 270.300781 148.453125 269.988281 C 140.109375 269.214844 131.683594 267.855469 123.351562 265.988281 C 123.382812 265.996094 123.414062 266.003906 123.445312 266.007812 C 123.945312 265.589844 131.632812 241.667969 126.660156 229.839844 C 121.320312 217.136719 115.597656 205.609375 114.828125 191.851562 C 139.320312 212.609375 160.601562 217.683594 160.601562 217.683594 C 179.921875 201.75 177.058594 169.925781 177.058594 169.925781 C 154.996094 161.921875 130.628906 169.183594 116.265625 175.25 C 118.328125 165.886719 122.214844 157.035156 126.300781 148 C 130.609375 138.476562 135.105469 126.710938 131.65625 116.613281 C 142.628906 115.082031 153.65625 114.398438 164.332031 114.707031 C 167.726562 114.804688 171.050781 114.976562 174.300781 115.210938 C 173.960938 116.84375 172.421875 125.132812 174.722656 131.644531 Z M 123.425781 117.914062 C 126.046875 117.46875 128.683594 117.050781 131.351562 116.660156 C 128.703125 117.03125 126.058594 117.441406 123.425781 117.914062 Z M 80.6875 130.339844 C 74.054688 133.105469 67.765625 136.183594 61.964844 139.550781 C 61.722656 139.6875 61.488281 139.832031 61.25 139.972656 C 69.117188 154.304688 68.878906 174.371094 67.539062 188.945312 C 66.03125 205.394531 61.605469 220.933594 53.523438 235.429688 C 59.917969 240.207031 67.121094 244.636719 74.894531 248.632812 C 73.007812 247.644531 71.140625 246.636719 69.292969 245.617188 C 79.753906 227.429688 85.585938 207.679688 87.160156 186.925781 C 88.441406 170.023438 87.363281 147.921875 78.589844 131.316406 C 79.289062 130.980469 79.988281 130.664062 80.6875 130.339844 Z M 295.234375 185.6875 C 303.503906 181.445312 311.632812 177.304688 320.96875 176.066406 C 324.867188 175.550781 324.917969 169.339844 320.96875 169.863281 C 309.535156 171.382812 299.753906 176.339844 289.632812 181.605469 C 286.585938 183.191406 283.554688 184.820312 280.589844 186.558594 C 290.792969 173.199219 304.097656 162.550781 319.554688 155.445312 C 323.175781 153.78125 320.03125 148.433594 316.425781 150.089844 C 300.085938 157.601562 285.976562 169.085938 275.238281 183.34375 C 274.976562 183.6875 274.707031 184.023438 274.453125 184.371094 C 273.066406 172.769531 268.652344 162.082031 261.390625 152.738281 C 259.953125 150.886719 258.398438 149.089844 256.738281 147.347656 C 251.519531 141.875 245.207031 136.953125 237.84375 132.691406 C 243.390625 143.285156 244.265625 155.617188 244.566406 167.546875 C 244.949219 182.890625 244.339844 198.253906 242.746094 213.519531 C 241.949219 221.152344 240.910156 228.761719 239.625 236.328125 C 238.769531 241.355469 236.84375 247.328125 236.128906 252.609375 C 242.125 249.027344 247.542969 245 252.292969 240.597656 C 253.773438 239.222656 255.1875 237.816406 256.535156 236.371094 C 264.101562 228.277344 269.558594 219.101562 272.476562 209.242188 C 274.441406 212.671875 276.609375 215.964844 278.976562 219.109375 C 288.042969 231.15625 299.925781 240.976562 313.648438 247.578125 C 317.226562 249.296875 320.375 243.949219 316.777344 242.21875 C 300.148438 234.222656 286.601562 221.511719 277.578125 205.632812 C 289.9375 211.597656 302.90625 216.167969 316.335938 219.242188 C 320.21875 220.132812 321.875 214.152344 317.980469 213.261719 C 304.03125 210.066406 290.632812 205.265625 277.898438 198.882812 C 291.8125 199.988281 305.753906 200.527344 319.714844 200.492188 C 323.703125 200.480469 323.710938 194.277344 319.714844 194.285156 C 307.105469 194.320312 294.515625 193.878906 281.941406 192.980469 C 282.566406 192.601562 283.191406 192.222656 283.820312 191.855469 C 287.546875 189.660156 291.386719 187.660156 295.234375 185.6875 Z M 44.121094 194.105469 C 35.550781 193.347656 29.226562 186.320312 29.996094 178.414062 C 30.765625 170.503906 38.339844 164.710938 46.910156 165.46875 C 55.480469 166.226562 61.804688 173.253906 61.035156 181.160156 C 60.265625 189.070312 52.691406 194.867188 44.121094 194.105469 Z M 57.824219 180.835938 C 58.4375 174.511719 53.378906 168.894531 46.523438 168.285156 C 43.105469 167.984375 39.886719 168.984375 37.441406 170.847656 C 39.722656 171.285156 41.441406 173.222656 41.441406 175.550781 C 41.441406 178.199219 39.21875 180.347656 36.472656 180.347656 C 35.113281 180.347656 33.882812 179.820312 32.984375 178.964844 C 32.570312 185.15625 37.558594 190.59375 44.296875 191.191406 C 51.152344 191.796875 57.207031 187.164062 57.824219 180.835938 Z M 57.824219 180.835938 " fill-opacity="1" fill-rule="nonzero"/><path fill="#383c61" d="M 148.453125 269.988281 C 151.828125 270.300781 155.191406 270.523438 158.527344 270.640625 C 158.539062 273.074219 158.363281 275.5 157.917969 277.898438 C 156.636719 284.820312 152.824219 291.578125 146.621094 294.898438 C 138.957031 298.996094 129.144531 297.007812 122.027344 292.027344 C 120.246094 290.78125 118.605469 289.378906 117.074219 287.859375 C 117.101562 287.878906 117.132812 287.90625 117.160156 287.925781 C 123.0625 292.324219 132.246094 293.664062 138.597656 290.046875 C 143.742188 287.117188 146.902344 281.152344 147.964844 275.042969 C 148.257812 273.371094 148.40625 271.683594 148.453125 269.988281 Z M 252.292969 240.597656 C 254.992188 247.542969 256.179688 254.9375 253.863281 261.863281 C 251.871094 267.828125 247.445312 272.664062 242.316406 276.03125 C 232.253906 282.640625 219.449219 283.960938 207.863281 280.996094 C 202.597656 279.644531 197.574219 277.464844 192.855469 274.675781 C 199.78125 279.738281 207.339844 283.5625 215.289062 285.402344 C 227.308594 288.179688 240.242188 286.125 249.972656 278.289062 C 254.933594 274.300781 259.066406 268.707031 260.636719 261.957031 C 262.613281 253.460938 260.355469 244.535156 256.535156 236.371094 C 255.1875 237.816406 253.773438 239.222656 252.292969 240.597656 Z M 201.421875 118.910156 C 201.511719 94.917969 186.023438 79.429688 165.035156 84.1875 C 164.902344 84.214844 164.769531 84.246094 164.636719 84.277344 C 151.25 87.40625 138.75 94.828125 127.78125 104.445312 C 127.578125 104.621094 127.375 104.816406 127.175781 104.996094 C 136.257812 99.675781 146.078125 95.671875 156.371094 93.734375 C 156.507812 93.710938 156.648438 93.683594 156.789062 93.660156 C 176.117188 90.136719 190.820312 100.464844 193.863281 117.496094 C 196.269531 117.898438 198.808594 118.367188 201.421875 118.910156 Z M 254.320312 106.789062 C 254.230469 106.777344 254.140625 106.769531 254.050781 106.757812 C 244.867188 105.734375 234.914062 108.257812 225.222656 112.875 C 225.167969 112.902344 225.105469 112.933594 225.050781 112.960938 C 231.109375 111.722656 237.167969 111.386719 243.003906 112.261719 C 243.097656 112.277344 243.191406 112.289062 243.285156 112.304688 C 258.558594 114.707031 264.238281 130.289062 256.738281 147.347656 C 258.398438 149.089844 259.953125 150.886719 261.390625 152.738281 C 262.171875 151.207031 263.09375 149.390625 264.078125 147.398438 C 274.136719 127.058594 269.796875 108.644531 254.320312 106.789062 Z M 357.179688 194.441406 C 357.585938 191.679688 359.039062 189.222656 360.296875 186.746094 C 369.4375 168.761719 368.746094 145.941406 358.539062 128.570312 C 357.90625 127.496094 357.207031 126.40625 356.167969 125.75 C 355.050781 125.046875 353.6875 124.925781 352.375 124.902344 C 346.941406 124.8125 341.496094 126.164062 336.675781 128.738281 C 337.464844 128.632812 338.253906 128.613281 339.035156 128.769531 C 340.636719 129.089844 342.023438 130.074219 343.277344 131.125 C 356.949219 142.582031 359.535156 163.90625 352.207031 180.175781 C 350.195312 184.644531 347.503906 188.964844 346.972656 193.835938 C 346.335938 199.695312 348.898438 205.351562 350.585938 210.996094 C 356.246094 229.933594 351.597656 251.621094 338.671875 266.566406 C 337.53125 267.886719 336.222656 269.21875 334.523438 269.605469 C 334.445312 269.625 334.367188 269.625 334.289062 269.636719 C 341.5625 273.769531 351.953125 271.386719 355.671875 262.097656 C 356.894531 259.042969 357.96875 255.707031 359.25 252.097656 C 364.804688 236.476562 362.28125 219.109375 358.226562 203.011719 C 357.519531 200.203125 356.761719 197.308594 357.179688 194.441406 Z M 53.042969 203.910156 C 49.003906 207.25 43.832031 209.375 38.597656 209.753906 C 33.097656 210.152344 26.535156 209.539062 21.679688 206.738281 C 20.144531 205.855469 18.691406 206.65625 18.050781 207.871094 C 17.445312 209.007812 17.550781 210.511719 18.992188 211.339844 C 20.355469 212.128906 21.792969 212.742188 23.277344 213.230469 C 24.917969 213.773438 26.617188 214.160156 28.335938 214.4375 C 31.886719 215.003906 35.511719 215.363281 39.105469 215.039062 C 45.671875 214.449219 51.734375 211.867188 56.808594 207.679688 C 57.917969 206.761719 57.757812 204.859375 56.808594 203.910156 C 55.710938 202.8125 54.15625 202.992188 53.042969 203.910156 Z M 46.523438 168.285156 C 43.105469 167.984375 39.886719 168.984375 37.441406 170.847656 C 39.722656 171.285156 41.441406 173.222656 41.441406 175.550781 C 41.441406 178.199219 39.21875 180.347656 36.472656 180.347656 C 35.113281 180.347656 33.882812 179.820312 32.984375 178.964844 C 32.570312 185.15625 37.558594 190.59375 44.296875 191.191406 C 51.152344 191.796875 57.207031 187.164062 57.824219 180.835938 C 58.4375 174.511719 53.378906 168.894531 46.523438 168.285156 Z M 46.523438 168.285156 " fill-opacity="1" fill-rule="nonzero"/><path fill="#ea652a" d="M 252.292969 240.597656 C 254.992188 247.542969 256.179688 254.9375 253.863281 261.863281 C 251.871094 267.828125 247.445312 272.664062 242.316406 276.03125 C 232.253906 282.640625 219.449219 283.960938 207.863281 280.996094 C 202.597656 279.644531 197.574219 277.464844 192.855469 274.675781 C 190.320312 273.175781 187.871094 271.503906 185.523438 269.6875 C 204.445312 268.011719 220.5 263.742188 236.121094 252.636719 C 236.125 252.628906 236.125 252.617188 236.128906 252.609375 C 242.125 249.027344 247.542969 245 252.292969 240.597656 Z M 88.402344 255.136719 C 98.144531 268.394531 113.03125 284.773438 117.074219 287.859375 C 117.101562 287.878906 117.132812 287.90625 117.160156 287.925781 C 123.0625 292.324219 132.246094 293.664062 138.597656 290.046875 C 143.742188 287.117188 146.902344 281.152344 147.964844 275.042969 C 148.257812 273.371094 148.40625 271.683594 148.453125 269.988281 C 140.109375 269.214844 131.683594 267.855469 123.351562 265.988281 C 110.488281 263.613281 99.015625 259.777344 88.402344 255.136719 Z M 243.285156 112.304688 C 243.191406 112.289062 243.097656 112.277344 243.003906 112.261719 C 237.167969 111.386719 231.109375 111.722656 225.050781 112.960938 C 221.234375 113.742188 217.417969 114.878906 213.660156 116.304688 C 211.175781 117.25 208.519531 118.472656 205.792969 119.875 C 216.996094 122.503906 229.003906 126.527344 237.820312 132.640625 C 237.828125 132.65625 237.835938 132.675781 237.84375 132.691406 C 245.207031 136.953125 251.519531 141.875 256.738281 147.347656 C 264.238281 130.289062 258.558594 114.707031 243.285156 112.304688 Z M 131.351562 116.660156 C 131.453125 116.644531 131.554688 116.625 131.65625 116.613281 C 142.628906 115.082031 153.65625 114.398438 164.332031 114.707031 C 167.726562 114.804688 171.050781 114.976562 174.300781 115.210938 C 174.300781 115.207031 174.304688 115.195312 174.304688 115.191406 C 174.316406 115.167969 182.671875 115.621094 193.863281 117.496094 C 190.820312 100.464844 176.117188 90.136719 156.789062 93.660156 C 156.648438 93.683594 156.507812 93.710938 156.371094 93.734375 C 146.078125 95.671875 136.257812 99.675781 127.175781 104.996094 C 123.855469 106.941406 120.632812 109.054688 117.527344 111.316406 C 113.5625 114.203125 109.441406 117.789062 105.355469 121.6875 C 111.296875 120.164062 117.304688 118.953125 123.425781 117.914062 C 126.058594 117.441406 128.703125 117.03125 131.351562 116.660156 Z M 346.972656 193.835938 C 347.503906 188.964844 350.195312 184.644531 352.207031 180.175781 C 359.535156 163.90625 356.949219 142.582031 343.277344 131.125 C 342.023438 130.074219 340.636719 129.089844 339.035156 128.769531 C 338.253906 128.613281 337.464844 128.632812 336.675781 128.738281 C 335.671875 128.878906 334.671875 129.167969 333.703125 129.476562 C 307.660156 137.8125 285.792969 158.140625 275.238281 183.34375 C 285.976562 169.085938 300.085938 157.601562 316.425781 150.089844 C 320.03125 148.433594 323.175781 153.78125 319.554688 155.445312 C 304.097656 162.550781 290.792969 173.199219 280.589844 186.558594 C 283.554688 184.820312 286.585938 183.191406 289.632812 181.605469 C 299.753906 176.339844 309.535156 171.382812 320.96875 169.863281 C 324.917969 169.339844 324.867188 175.550781 320.96875 176.066406 C 311.632812 177.304688 303.503906 181.445312 295.234375 185.6875 C 291.386719 187.660156 287.546875 189.660156 283.820312 191.855469 C 283.191406 192.222656 282.566406 192.601562 281.941406 192.980469 C 294.515625 193.878906 307.105469 194.320312 319.714844 194.285156 C 323.710938 194.277344 323.703125 200.480469 319.714844 200.492188 C 305.753906 200.527344 291.8125 199.988281 277.898438 198.882812 C 290.632812 205.265625 304.03125 210.066406 317.980469 213.261719 C 321.875 214.152344 320.21875 220.132812 316.335938 219.242188 C 302.90625 216.167969 289.9375 211.597656 277.578125 205.632812 C 286.601562 221.511719 300.148438 234.222656 316.777344 242.21875 C 320.375 243.949219 317.226562 249.296875 313.648438 247.578125 C 299.925781 240.976562 288.042969 231.15625 278.976562 219.109375 C 291.296875 238.925781 308.339844 255.808594 328.339844 267.828125 C 330.15625 268.921875 332.222656 270 334.289062 269.636719 C 334.367188 269.625 334.445312 269.625 334.523438 269.605469 C 336.222656 269.21875 337.53125 267.886719 338.671875 266.566406 C 351.597656 251.621094 356.246094 229.933594 350.585938 210.996094 C 348.898438 205.351562 346.335938 199.695312 346.972656 193.835938 Z M 116.265625 175.25 C 108.519531 178.519531 103.679688 181.445312 103.679688 181.445312 C 107.425781 185.289062 111.164062 188.746094 114.828125 191.851562 C 139.320312 212.609375 160.601562 217.683594 160.601562 217.683594 C 179.921875 201.75 177.058594 169.925781 177.058594 169.925781 C 154.996094 161.921875 130.628906 169.183594 116.265625 175.25 Z M 116.265625 175.25 " fill-opacity="1" fill-rule="nonzero"/><g clip-path="url(#1e9e04c4b1)"><path fill="#ff8657" d="M 116.265625 175.25 C 108.519531 178.519531 103.679688 181.445312 103.679688 181.445312 C 107.425781 185.289062 111.164062 188.746094 114.828125 191.851562 C 115.597656 205.609375 121.320312 217.136719 126.660156 229.839844 C 131.632812 241.667969 123.945312 265.589844 123.445312 266.007812 C 123.414062 266.003906 123.382812 265.996094 123.351562 265.988281 C 110.488281 263.613281 99.015625 259.777344 88.402344 255.136719 C 83.75 253.105469 79.261719 250.917969 74.894531 248.632812 C 73.007812 247.644531 71.140625 246.636719 69.292969 245.617188 C 79.753906 227.429688 85.585938 207.679688 87.160156 186.925781 C 88.441406 170.023438 87.363281 147.921875 78.589844 131.316406 C 79.289062 130.980469 79.988281 130.664062 80.6875 130.339844 C 88.847656 126.582031 97.03125 123.824219 105.355469 121.6875 C 111.296875 120.164062 117.304688 118.953125 123.425781 117.914062 C 126.046875 117.46875 128.683594 117.050781 131.351562 116.660156 C 131.453125 116.644531 131.554688 116.625 131.65625 116.613281 C 135.105469 126.710938 130.609375 138.476562 126.300781 148 C 122.214844 157.035156 118.328125 165.886719 116.265625 175.25 Z M 61.25 139.972656 C 69.117188 154.304688 68.878906 174.371094 67.539062 188.945312 C 66.03125 205.394531 61.605469 220.933594 53.523438 235.429688 C 53.519531 235.433594 53.519531 235.4375 53.515625 235.441406 C 43.753906 228.222656 31.886719 221.0625 23.277344 213.230469 C 24.917969 213.773438 26.617188 214.160156 28.335938 214.4375 C 31.886719 215.003906 35.511719 215.363281 39.105469 215.039062 C 45.671875 214.449219 51.734375 211.867188 56.808594 207.679688 C 57.917969 206.761719 57.757812 204.859375 56.808594 203.910156 C 55.710938 202.8125 54.15625 202.992188 53.042969 203.910156 C 49.003906 207.25 43.832031 209.375 38.597656 209.753906 C 33.097656 210.152344 26.535156 209.539062 21.679688 206.738281 C 20.144531 205.855469 18.691406 206.65625 18.050781 207.871094 C 17.902344 207.695312 17.75 207.519531 17.605469 207.34375 C 16.445312 205.921875 15.40625 204.480469 14.515625 203.015625 C 12.261719 199.324219 10.941406 195.496094 10.941406 191.507812 C 10.941406 172.101562 38.375 152.863281 61.25 139.96875 C 61.25 139.96875 61.25 139.96875 61.25 139.972656 Z M 46.910156 165.46875 C 38.339844 164.710938 30.765625 170.503906 29.996094 178.414062 C 29.226562 186.320312 35.550781 193.347656 44.121094 194.105469 C 52.691406 194.867188 60.265625 189.070312 61.035156 181.160156 C 61.804688 173.253906 55.480469 166.226562 46.910156 165.46875 Z M 244.566406 167.546875 C 244.265625 155.617188 243.390625 143.285156 237.84375 132.691406 C 237.835938 132.675781 237.828125 132.65625 237.820312 132.640625 C 229.003906 126.527344 216.996094 122.503906 205.792969 119.875 C 204.320312 119.53125 202.859375 119.207031 201.421875 118.910156 C 198.808594 118.367188 196.269531 117.898438 193.863281 117.496094 C 182.671875 115.621094 174.316406 115.167969 174.304688 115.191406 C 174.304688 115.195312 174.300781 115.207031 174.300781 115.210938 C 173.960938 116.84375 172.421875 125.132812 174.722656 131.644531 C 179.25 144.441406 191.386719 183.542969 185.636719 202.9375 C 179.882812 222.332031 174.390625 225.742188 170.269531 236.5625 C 167.757812 243.152344 165.949219 254.054688 172.890625 268.152344 C 173.054688 268.492188 173.796875 269.949219 174.242188 270.398438 C 175.144531 270.359375 176.039062 270.316406 176.933594 270.273438 C 179.863281 270.125 182.726562 269.933594 185.523438 269.6875 C 204.445312 268.011719 220.5 263.742188 236.121094 252.636719 C 236.125 252.628906 236.125 252.617188 236.128906 252.609375 C 236.84375 247.328125 238.769531 241.355469 239.625 236.328125 C 240.910156 228.761719 241.949219 221.152344 242.746094 213.519531 C 244.339844 198.253906 244.949219 182.890625 244.566406 167.546875 Z M 244.566406 167.546875 " fill-opacity="1" fill-rule="nonzero"/></g></svg>