<svg xmlns="http://www.w3.org/2000/svg" xmlns:xlink="http://www.w3.org/1999/xlink" width="500" zoomAndPan="magnify" viewBox="0 0 375 374.999991" height="500" preserveAspectRatio="xMidYMid meet" version="1.0"><defs><clipPath id="63159e2b00"><path d="M 102.300781 11.566406 L 259 11.566406 L 259 363 L 102.300781 363 Z M 102.300781 11.566406 " clip-rule="nonzero"/></clipPath><clipPath id="2397b067d8"><path d="M 102.300781 11.566406 L 259 11.566406 L 259 363 L 102.300781 363 Z M 102.300781 11.566406 " clip-rule="nonzero"/></clipPath></defs><g clip-path="url(#63159e2b00)"><path fill="#fcbbbb" d="M 258.695312 304.042969 C 256.609375 294.011719 251.113281 284.894531 243.222656 278.367188 C 238.558594 274.511719 233.265625 271.714844 228.144531 269.007812 C 225.808594 267.773438 223.398438 266.496094 221.125 265.160156 C 213.847656 260.871094 209.144531 256.308594 206.804688 251.273438 C 207.171875 251.089844 207.53125 250.894531 207.878906 250.675781 C 211.214844 248.566406 213.265625 244.71875 213.609375 240.78125 C 213.929688 237.144531 212.878906 233.480469 211.035156 230.324219 C 215.757812 228.265625 220.324219 225.839844 224.660156 223.058594 L 224.925781 222.742188 C 225.46875 209.285156 226.007812 195.820312 225.761719 182.359375 C 225.3125 157.972656 222.257812 133.722656 217.574219 109.808594 C 224.371094 103.25 233.757812 99.453125 243.199219 99.484375 C 245.21875 99.488281 247.410156 99.617188 249.070312 98.457031 C 252.917969 95.769531 250.335938 89.757812 247.480469 86.027344 C 228.75 61.542969 209.652344 37.339844 190.207031 13.425781 C 190.050781 12.921875 189.75 12.582031 189.378906 12.398438 C 189.363281 12.378906 189.347656 12.363281 189.332031 12.34375 L 189.34375 12.386719 C 188.820312 12.144531 188.175781 12.191406 187.632812 12.457031 C 186.820312 11.765625 185.46875 11.714844 184.828125 12.652344 C 184.792969 12.660156 184.761719 12.671875 184.726562 12.683594 L 184.8125 12.34375 C 184.695312 12.488281 184.578125 12.636719 184.460938 12.78125 C 184.179688 12.894531 183.90625 13.03125 183.652344 13.207031 C 183.027344 13.632812 182.476562 14.59375 181.984375 15.847656 C 163.210938 38.976562 144.761719 62.367188 126.664062 86.027344 C 123.808594 89.757812 121.226562 95.769531 125.074219 98.457031 C 126.734375 99.617188 128.925781 99.488281 130.945312 99.484375 C 139.632812 99.457031 150.71875 103.671875 157.828125 109.496094 C 153.109375 133.511719 150.03125 157.867188 149.578125 182.359375 C 149.332031 195.820312 149.875 209.285156 150.414062 222.742188 L 150.679688 223.058594 C 154.734375 225.660156 158.984375 227.953125 163.378906 229.921875 L 163.285156 229.921875 C 159.558594 233.015625 158.035156 238.507812 159.628906 243.082031 C 160.265625 244.902344 161.328125 246.511719 162.664062 247.890625 C 162.542969 248.226562 162.421875 248.5625 162.300781 248.894531 C 161.613281 250.804688 160.964844 252.613281 160.207031 254.378906 C 154.464844 267.742188 143.355469 276.464844 135.050781 281.429688 C 132.847656 282.75 130.507812 284.003906 128.246094 285.21875 C 124.3125 287.335938 120.242188 289.523438 116.457031 292.230469 C 111.261719 295.949219 104.660156 302.21875 102.738281 310.976562 C 102.328125 312.835938 103.503906 314.675781 105.359375 315.085938 C 105.609375 315.140625 105.855469 315.167969 106.101562 315.167969 C 107.683594 315.167969 109.109375 314.070312 109.460938 312.457031 C 110.917969 305.839844 116.246094 300.855469 120.460938 297.839844 C 123.886719 295.390625 127.585938 293.402344 131.503906 291.296875 C 133.832031 290.042969 136.242188 288.75 138.578125 287.351562 C 142.738281 284.867188 147.53125 281.507812 152.136719 277.1875 C 150.894531 278.996094 149.640625 280.855469 148.417969 282.789062 L 147.300781 284.585938 L 146.199219 286.464844 C 145.488281 287.734375 144.789062 289.007812 144.160156 290.316406 C 142.882812 292.921875 141.714844 295.585938 140.785156 298.34375 C 139.851562 301.09375 139.058594 303.894531 138.460938 306.746094 C 137.875 309.597656 137.460938 312.488281 137.226562 315.398438 C 136.871094 321.21875 137.21875 327.121094 138.574219 332.824219 C 139.25 335.667969 140.144531 338.449219 141.253906 341.144531 C 141.800781 342.496094 142.417969 343.820312 143.09375 345.113281 C 143.425781 345.769531 143.777344 346.382812 144.148438 347.050781 C 144.523438 347.722656 144.921875 348.378906 145.339844 349.023438 C 147.015625 351.589844 149.011719 353.820312 150.929688 355.761719 C 152.847656 357.714844 154.636719 359.484375 156.164062 361.359375 L 156.191406 361.394531 C 157.367188 362.832031 159.46875 363.144531 161.019531 362.066406 C 162.648438 360.929688 163.050781 358.6875 161.917969 357.058594 C 160.246094 354.648438 158.375 352.511719 156.699219 350.515625 C 155.023438 348.515625 153.558594 346.636719 152.4375 344.644531 C 152.15625 344.148438 151.894531 343.644531 151.652344 343.132812 C 151.410156 342.613281 151.164062 342.03125 150.945312 341.46875 C 150.5 340.335938 150.085938 339.191406 149.722656 338.03125 C 148.988281 335.710938 148.4375 333.328125 148.078125 330.929688 C 147.3125 326.148438 147.328125 321.253906 147.941406 316.4375 C 148.253906 314.027344 148.714844 311.636719 149.316406 309.277344 C 149.929688 306.921875 150.707031 304.605469 151.601562 302.332031 C 152.492188 300.0625 153.503906 297.835938 154.652344 295.683594 C 155.207031 294.597656 155.832031 293.546875 156.457031 292.503906 L 157.425781 290.949219 L 158.46875 289.375 C 161.328125 285.183594 164.554688 280.90625 167.644531 276.207031 C 167.679688 276.152344 167.714844 276.097656 167.75 276.046875 C 167.835938 277.203125 167.9375 278.347656 168.046875 279.46875 C 168.453125 283.648438 168.960938 287.613281 168.980469 291.40625 C 169.078125 299.007812 167.671875 306.691406 164.792969 313.816406 C 163.347656 317.375 161.597656 320.816406 159.511719 324.046875 C 157.421875 327.273438 155.011719 330.292969 152.328125 333.050781 L 152.308594 333.070312 C 150.902344 334.523438 150.859375 336.84375 152.253906 338.34375 C 153.691406 339.894531 156.109375 339.984375 157.660156 338.546875 C 160.878906 335.558594 163.75 332.203125 166.253906 328.59375 C 168.761719 324.988281 170.917969 321.132812 172.632812 317.082031 C 176.066406 308.996094 177.988281 300.199219 177.921875 291.320312 C 177.917969 286.867188 177.390625 282.632812 177.03125 278.617188 C 176.664062 274.59375 176.4375 270.761719 176.8125 267.148438 C 177.035156 265.046875 177.433594 262.96875 177.984375 260.925781 C 178.125 261.382812 178.269531 261.839844 178.425781 262.285156 C 179.203125 264.4375 180.070312 266.429688 180.765625 268.324219 C 181.472656 270.226562 182.039062 271.980469 182.503906 273.84375 C 184.375 281.230469 184.4375 289.152344 182.691406 296.644531 C 182.257812 298.523438 181.726562 300.355469 181.054688 302.183594 C 180.386719 304.015625 179.597656 305.875 178.730469 307.757812 C 176.980469 311.519531 174.988281 315.417969 173.085938 319.578125 C 171.175781 323.734375 169.539062 328.28125 168.601562 333.070312 C 168.167969 335.476562 167.925781 337.960938 167.964844 340.480469 C 168.019531 342.996094 168.367188 345.546875 169.101562 347.992188 C 169.628906 349.75 171.359375 350.925781 173.242188 350.695312 C 175.34375 350.4375 176.835938 348.519531 176.578125 346.417969 L 176.5625 346.292969 C 176.117188 342.664062 176.609375 338.941406 177.753906 335.261719 C 178.308594 333.417969 179.027344 331.589844 179.855469 329.78125 C 180.691406 327.972656 181.628906 326.195312 182.632812 324.363281 C 184.5625 320.839844 186.824219 317.285156 188.925781 313.40625 C 185.628906 324.808594 187.308594 335.140625 193.605469 341.433594 C 194.355469 342.179688 195.332031 342.550781 196.308594 342.550781 C 197.289062 342.550781 198.269531 342.175781 199.019531 341.425781 C 200.511719 339.929688 200.507812 337.503906 199.011719 336.007812 C 193.53125 330.539062 194.378906 320.667969 197 313.253906 C 198.019531 310.367188 199.257812 307.5625 200.570312 304.589844 C 202.910156 299.292969 205.3125 293.832031 206.390625 287.882812 C 208.46875 291.722656 210.367188 295.457031 211.738281 299.214844 C 213.195312 303.136719 214.089844 307.300781 214.421875 311.535156 C 214.761719 315.769531 214.585938 320.074219 213.847656 324.304688 C 212.414062 332.765625 208.828125 340.917969 203.382812 347.644531 L 203.355469 347.679688 C 202.132812 349.199219 202.242188 351.429688 203.664062 352.824219 C 205.175781 354.304688 207.601562 354.277344 209.078125 352.761719 C 216.171875 345.492188 220.960938 336.105469 223.183594 326.167969 C 224.277344 321.191406 224.765625 316.054688 224.539062 310.917969 C 224.300781 305.785156 223.382812 300.648438 221.734375 295.707031 C 220.089844 290.800781 217.839844 286.351562 215.664062 282.132812 C 213.484375 277.914062 211.335938 273.90625 209.648438 269.933594 C 208.773438 267.855469 208.046875 265.738281 207.503906 263.617188 C 210.253906 266.246094 213.617188 268.734375 217.632812 271.101562 C 220.042969 272.523438 222.527344 273.835938 224.929688 275.105469 C 229.964844 277.765625 234.71875 280.28125 238.835938 283.6875 C 245.527344 289.214844 250.1875 296.945312 251.953125 305.449219 C 252.292969 307.078125 253.726562 308.195312 255.320312 308.195312 C 255.554688 308.195312 255.792969 308.171875 256.027344 308.121094 C 257.890625 307.734375 259.085938 305.910156 258.695312 304.042969 Z M 199.121094 284.835938 C 198.582031 289.234375 197.03125 293.445312 195.195312 297.761719 C 197.332031 288.9375 197.367188 279.617188 195.261719 270.71875 C 194.710938 268.332031 193.925781 265.929688 193.125 263.734375 C 192.304688 261.535156 191.503906 259.496094 190.730469 257.570312 C 190.285156 256.503906 189.824219 255.492188 189.359375 254.511719 C 189.484375 254.507812 189.609375 254.5 189.738281 254.496094 C 199.511719 269.890625 199.828125 279.105469 199.121094 284.835938 Z M 199.121094 284.835938 " fill-opacity="1" fill-rule="nonzero"/></g><path fill="#f4a63d" d="M 189 236.960938 C 196.574219 235.636719 203.984375 233.394531 211.035156 230.324219 C 215.757812 228.265625 220.324219 225.839844 224.660156 223.058594 L 224.925781 222.742188 C 225.46875 209.285156 226.007812 195.820312 225.761719 182.359375 C 225.3125 157.972656 222.257812 133.722656 217.574219 109.808594 C 216.585938 104.761719 215.527344 99.730469 214.402344 94.71875 C 211.160156 80.265625 207.382812 65.941406 203.28125 51.710938 C 201.230469 44.589844 199.09375 37.496094 196.898438 30.417969 C 195.445312 25.726562 194.257812 17.769531 190.382812 14.167969 C 190.710938 15.6875 191.035156 17.207031 191.351562 18.726562 C 194.207031 32.546875 196.507812 46.476562 198.421875 60.453125 C 200.339844 74.476562 201.886719 88.550781 203.214844 102.640625 C 204.53125 116.640625 205.640625 130.660156 206.714844 144.679688 C 207.796875 158.792969 208.984375 172.910156 209.40625 187.058594 C 209.824219 201.207031 209.390625 215.386719 207.261719 229.394531 C 207.105469 230.425781 205.816406 230.984375 204.910156 230.734375 C 203.832031 230.4375 203.417969 229.398438 203.574219 228.378906 C 203.832031 226.679688 204.066406 224.980469 204.269531 223.273438 C 205.9375 209.382812 205.980469 195.347656 205.371094 181.386719 C 204.761719 167.390625 203.570312 153.417969 202.488281 139.449219 C 201.402344 125.429688 200.257812 111.414062 198.886719 97.417969 C 197.523438 83.535156 195.941406 69.675781 193.941406 55.867188 C 192.117188 43.25 189.949219 30.675781 187.332031 18.195312 C 187.238281 18.597656 187.144531 19 187.050781 19.402344 C 183.976562 33.015625 181.445312 46.746094 179.292969 60.535156 C 177.144531 74.304688 175.378906 88.132812 173.820312 101.980469 C 172.253906 115.871094 170.898438 129.78125 169.574219 143.699219 C 168.238281 157.761719 166.792969 171.832031 166.101562 185.945312 C 165.410156 200.050781 165.527344 214.230469 167.394531 228.246094 C 167.53125 229.28125 166.410156 230.164062 165.484375 230.164062 C 164.351562 230.164062 163.707031 229.273438 163.570312 228.246094 C 163.335938 226.503906 163.128906 224.757812 162.945312 223.011719 C 161.480469 208.875 161.699219 194.621094 162.582031 180.457031 C 163.464844 166.308594 164.929688 152.199219 166.285156 138.09375 C 167.621094 124.179688 169.011719 110.269531 170.636719 96.382812 C 172.269531 82.410156 174.128906 68.464844 176.394531 54.578125 C 178.648438 40.734375 181.3125 26.957031 184.535156 13.304688 C 184.597656 13.046875 184.703125 12.832031 184.828125 12.652344 C 184.792969 12.660156 184.761719 12.671875 184.726562 12.683594 C 184.636719 12.714844 184.546875 12.746094 184.460938 12.78125 C 184.179688 12.894531 183.90625 13.03125 183.652344 13.207031 C 183.027344 13.632812 182.476562 14.59375 181.984375 15.847656 C 180.359375 19.980469 179.390625 27.367188 178.589844 29.949219 C 176.386719 37.046875 174.238281 44.164062 172.175781 51.304688 C 168.054688 65.578125 164.257812 79.949219 161 94.445312 C 159.875 99.445312 158.816406 104.464844 157.828125 109.496094 C 153.109375 133.511719 150.03125 157.867188 149.578125 182.359375 C 149.332031 195.820312 149.875 209.285156 150.414062 222.742188 L 150.679688 223.058594 C 154.734375 225.660156 158.984375 227.953125 163.378906 229.921875 C 170.703125 233.203125 178.433594 235.578125 186.339844 236.960938 Z M 186.078125 74.695312 C 189.894531 74.695312 192.984375 77.125 192.984375 80.125 C 192.984375 83.121094 189.894531 85.550781 186.078125 85.550781 C 182.261719 85.550781 179.167969 83.121094 179.167969 80.125 C 179.167969 77.125 182.261719 74.695312 186.078125 74.695312 Z M 186.078125 96.128906 C 189.894531 96.128906 192.984375 98.5625 192.984375 101.558594 C 192.984375 104.554688 189.894531 106.988281 186.078125 106.988281 C 182.261719 106.988281 179.167969 104.554688 179.167969 101.558594 C 179.167969 98.5625 182.261719 96.128906 186.078125 96.128906 Z M 186.078125 114.378906 C 190.914062 114.378906 194.835938 117.460938 194.835938 121.261719 C 194.835938 125.0625 190.914062 128.144531 186.078125 128.144531 C 181.238281 128.144531 177.316406 125.0625 177.316406 121.261719 C 177.316406 117.460938 181.238281 114.378906 186.078125 114.378906 Z M 186.078125 139.289062 C 191.417969 139.289062 195.75 142.691406 195.75 146.886719 C 195.75 151.085938 191.417969 154.488281 186.078125 154.488281 C 180.734375 154.488281 176.40625 151.085938 176.40625 146.886719 C 176.40625 142.691406 180.734375 139.289062 186.078125 139.289062 Z M 186.078125 165.40625 C 191.417969 165.40625 195.75 168.808594 195.75 173.003906 C 195.75 177.199219 191.417969 180.601562 186.078125 180.601562 C 180.734375 180.601562 176.40625 177.199219 176.40625 173.003906 C 176.40625 168.808594 180.734375 165.40625 186.078125 165.40625 Z M 186.078125 188.683594 C 191.417969 188.683594 195.75 192.082031 195.75 196.28125 C 195.75 200.476562 191.417969 203.878906 186.078125 203.878906 C 180.734375 203.878906 176.40625 200.476562 176.40625 196.28125 C 176.40625 192.082031 180.734375 188.683594 186.078125 188.683594 Z M 176.40625 218.988281 C 176.40625 214.792969 180.734375 211.390625 186.078125 211.390625 C 191.417969 211.390625 195.75 214.792969 195.75 218.988281 C 195.75 223.1875 191.417969 226.589844 186.078125 226.589844 C 180.734375 226.589844 176.40625 223.1875 176.40625 218.988281 Z M 176.40625 218.988281 " fill-opacity="1" fill-rule="nonzero"/><path fill="#383c61" d="M 177.015625 243.542969 C 175.832031 246.714844 172.300781 248.304688 169.128906 247.097656 C 166.300781 246.023438 164.71875 243.082031 165.25 240.207031 C 165.570312 241.125 166.292969 241.871094 167.273438 242.140625 C 168.886719 242.582031 170.574219 241.574219 171.035156 239.890625 C 171.496094 238.203125 170.5625 236.476562 168.945312 236.03125 C 168.753906 235.976562 168.558594 235.949219 168.367188 235.9375 C 169.867188 235.136719 171.695312 234.960938 173.414062 235.617188 C 176.585938 236.824219 178.199219 240.371094 177.015625 243.542969 Z M 205.488281 235.617188 C 203.765625 234.960938 201.941406 235.136719 200.441406 235.9375 C 200.632812 235.949219 200.824219 235.976562 201.019531 236.03125 C 202.632812 236.476562 203.570312 238.203125 203.105469 239.890625 C 202.644531 241.574219 200.960938 242.582031 199.34375 242.140625 C 198.363281 241.871094 197.640625 241.125 197.324219 240.207031 C 196.789062 243.082031 198.371094 246.023438 201.203125 247.097656 C 204.375 248.304688 207.90625 246.714844 209.085938 243.542969 C 210.269531 240.371094 208.660156 236.824219 205.488281 235.617188 Z M 205.488281 235.617188 " fill-opacity="1" fill-rule="nonzero"/><path fill="#fff9d9" d="M 171.035156 239.890625 C 170.574219 241.574219 168.886719 242.582031 167.273438 242.140625 C 166.292969 241.871094 165.570312 241.125 165.25 240.207031 C 165.042969 239.609375 165.003906 238.945312 165.183594 238.28125 C 165.589844 236.796875 166.945312 235.839844 168.367188 235.9375 C 168.558594 235.949219 168.753906 235.976562 168.945312 236.03125 C 170.5625 236.476562 171.496094 238.203125 171.035156 239.890625 Z M 201.019531 236.03125 C 200.824219 235.976562 200.632812 235.949219 200.441406 235.9375 C 199.019531 235.839844 197.664062 236.796875 197.257812 238.28125 C 197.074219 238.945312 197.117188 239.609375 197.324219 240.207031 C 197.640625 241.125 198.363281 241.871094 199.34375 242.140625 C 200.960938 242.582031 202.644531 241.574219 203.105469 239.890625 C 203.570312 238.203125 202.632812 236.476562 201.019531 236.03125 Z M 201.019531 236.03125 " fill-opacity="1" fill-rule="nonzero"/><path fill="#f26d6d" d="M 135.953125 93.785156 C 135.96875 93.742188 135.984375 93.710938 135.984375 93.710938 C 135.96875 93.742188 135.960938 93.757812 135.953125 93.785156 Z M 189.378906 12.398438 C 189.363281 12.378906 189.347656 12.363281 189.332031 12.34375 L 189.34375 12.386719 C 189.355469 12.390625 189.367188 12.394531 189.378906 12.398438 Z M 184.8125 12.34375 C 184.695312 12.488281 184.578125 12.636719 184.460938 12.78125 C 184.546875 12.746094 184.636719 12.714844 184.726562 12.683594 Z M 211.035156 230.324219 C 212.878906 233.480469 213.929688 237.144531 213.609375 240.78125 C 213.265625 244.71875 211.214844 248.566406 207.878906 250.675781 C 207.53125 250.894531 207.171875 251.089844 206.804688 251.273438 C 205.425781 251.960938 203.929688 252.417969 202.429688 252.808594 C 198.285156 253.882812 194.015625 254.371094 189.738281 254.496094 C 189.609375 254.5 189.484375 254.507812 189.359375 254.511719 C 186.632812 254.578125 183.902344 254.5 181.199219 254.328125 C 176.902344 254.054688 172.542969 253.566406 168.582031 251.882812 C 166.386719 250.953125 164.316406 249.601562 162.664062 247.890625 C 161.328125 246.511719 160.265625 244.902344 159.628906 243.082031 C 158.035156 238.507812 159.558594 233.015625 163.285156 229.921875 L 163.378906 229.921875 C 170.703125 233.203125 178.433594 235.578125 186.339844 236.960938 L 189 236.960938 C 196.574219 235.636719 203.984375 233.394531 211.035156 230.324219 Z M 173.414062 235.617188 C 171.695312 234.960938 169.867188 235.136719 168.367188 235.9375 C 166.945312 235.839844 165.589844 236.796875 165.183594 238.28125 C 165.003906 238.945312 165.042969 239.609375 165.25 240.207031 C 164.71875 243.082031 166.300781 246.023438 169.128906 247.097656 C 172.300781 248.304688 175.832031 246.714844 177.015625 243.542969 C 178.199219 240.371094 176.585938 236.824219 173.414062 235.617188 Z M 205.488281 235.617188 C 203.765625 234.960938 201.941406 235.136719 200.441406 235.9375 C 199.019531 235.839844 197.664062 236.796875 197.257812 238.28125 C 197.074219 238.945312 197.117188 239.609375 197.324219 240.207031 C 196.789062 243.082031 198.371094 246.023438 201.203125 247.097656 C 204.375 248.304688 207.90625 246.714844 209.085938 243.542969 C 210.269531 240.371094 208.660156 236.824219 205.488281 235.617188 Z M 240.714844 93.238281 C 240.695312 93.195312 240.683594 93.167969 240.683594 93.167969 C 240.695312 93.199219 240.703125 93.214844 240.714844 93.238281 Z M 249.070312 98.457031 C 247.410156 99.617188 245.21875 99.488281 243.199219 99.484375 C 233.757812 99.453125 224.371094 103.25 217.574219 109.808594 C 216.585938 104.761719 215.527344 99.730469 214.402344 94.71875 C 211.160156 80.265625 207.382812 65.941406 203.28125 51.710938 C 201.230469 44.589844 199.09375 37.496094 196.898438 30.417969 C 195.445312 25.726562 194.257812 17.769531 190.382812 14.167969 C 190.34375 13.980469 190.304688 13.789062 190.261719 13.601562 C 190.25 13.535156 190.222656 13.484375 190.207031 13.425781 C 209.652344 37.339844 228.75 61.542969 247.480469 86.027344 C 250.335938 89.757812 252.917969 95.769531 249.070312 98.457031 Z M 225.933594 99.921875 C 225.09375 98.585938 224.359375 97.183594 223.730469 95.734375 C 223.589844 95.390625 223.453125 95.050781 223.324219 94.703125 C 223.148438 94.226562 222.898438 93.824219 222.445312 93.558594 C 222.035156 93.316406 221.429688 93.214844 220.972656 93.363281 C 220.054688 93.660156 219.261719 94.714844 219.636719 95.722656 C 220.429688 97.859375 221.414062 99.921875 222.628906 101.855469 C 223.160156 102.703125 224.359375 103.117188 225.246094 102.542969 C 226.09375 101.996094 226.503906 100.828125 225.933594 99.921875 Z M 235.160156 96.269531 C 234.496094 94.21875 233.625 92.222656 232.558594 90.347656 C 232.0625 89.476562 230.800781 89.105469 229.941406 89.660156 C 229.0625 90.226562 228.722656 91.351562 229.253906 92.28125 C 229.789062 93.222656 230.269531 94.191406 230.699219 95.183594 C 230.980469 95.875 231.242188 96.578125 231.472656 97.289062 C 231.625 97.761719 231.917969 98.179688 232.351562 98.433594 C 232.761719 98.671875 233.367188 98.777344 233.824219 98.625 C 234.773438 98.320312 235.492188 97.289062 235.160156 96.269531 Z M 245.441406 95.191406 C 244.699219 92.65625 243.636719 90.195312 242.28125 87.925781 C 241.769531 87.066406 240.539062 86.675781 239.664062 87.238281 C 238.800781 87.796875 238.429688 88.9375 238.980469 89.859375 C 239.605469 90.90625 240.167969 91.992188 240.65625 93.109375 C 240.679688 93.167969 240.707031 93.222656 240.730469 93.28125 C 240.78125 93.410156 240.859375 93.605469 240.871094 93.628906 C 240.976562 93.898438 241.078125 94.167969 241.175781 94.441406 C 241.386719 95.023438 241.578125 95.617188 241.753906 96.210938 C 242.03125 97.171875 243.113281 97.871094 244.105469 97.550781 C 245.078125 97.234375 245.742188 96.222656 245.441406 95.191406 Z M 161 94.445312 C 159.875 99.445312 158.816406 104.464844 157.828125 109.496094 C 150.71875 103.671875 139.632812 99.457031 130.945312 99.484375 C 128.925781 99.488281 126.734375 99.617188 125.074219 98.457031 C 121.226562 95.769531 123.808594 89.757812 126.664062 86.027344 C 144.761719 62.367188 163.210938 38.976562 181.984375 15.847656 C 180.359375 19.980469 179.390625 27.367188 178.589844 29.949219 C 176.386719 37.046875 174.238281 44.164062 172.175781 51.304688 C 168.054688 65.578125 164.257812 79.949219 161 94.445312 Z M 137 87.78125 C 136.078125 87.292969 134.933594 87.550781 134.382812 88.46875 C 133.03125 90.738281 131.964844 93.199219 131.226562 95.734375 C 130.945312 96.699219 131.566406 97.867188 132.5625 98.09375 C 133.585938 98.324219 134.613281 97.785156 134.914062 96.753906 C 135.085938 96.160156 135.277344 95.566406 135.488281 94.984375 C 135.585938 94.710938 135.691406 94.441406 135.796875 94.171875 C 135.804688 94.148438 135.882812 93.953125 135.9375 93.824219 C 135.960938 93.765625 135.984375 93.710938 136.007812 93.65625 C 136.5 92.535156 137.0625 91.449219 137.6875 90.402344 C 138.199219 89.539062 137.910156 88.261719 137 87.78125 Z M 146.726562 90.203125 C 145.816406 89.722656 144.640625 89.960938 144.109375 90.890625 C 143.039062 92.765625 142.167969 94.761719 141.503906 96.8125 C 141.195312 97.765625 141.863281 98.945312 142.839844 99.167969 C 143.890625 99.410156 144.863281 98.851562 145.195312 97.832031 C 145.425781 97.121094 145.6875 96.417969 145.96875 95.726562 C 146.398438 94.734375 146.875 93.765625 147.414062 92.824219 C 147.910156 91.957031 147.644531 90.691406 146.726562 90.203125 Z M 156.839844 94.789062 C 156.605469 94.390625 156.152344 94.011719 155.695312 93.90625 C 155.207031 93.796875 154.65625 93.820312 154.222656 94.101562 C 153.78125 94.386719 153.523438 94.753906 153.34375 95.246094 C 153.214844 95.59375 153.074219 95.933594 152.933594 96.277344 C 152.308594 97.726562 151.574219 99.128906 150.734375 100.464844 C 150.199219 101.316406 150.527344 102.613281 151.417969 103.085938 C 152.363281 103.585938 153.46875 103.304688 154.035156 102.398438 C 155.25 100.464844 156.234375 98.402344 157.03125 96.265625 C 157.195312 95.824219 157.066406 95.179688 156.839844 94.789062 Z M 179.167969 80.125 C 179.167969 83.121094 182.261719 85.550781 186.078125 85.550781 C 189.894531 85.550781 192.984375 83.121094 192.984375 80.125 C 192.984375 77.125 189.894531 74.695312 186.078125 74.695312 C 182.261719 74.695312 179.167969 77.125 179.167969 80.125 Z M 186.078125 188.683594 C 180.734375 188.683594 176.40625 192.082031 176.40625 196.28125 C 176.40625 200.476562 180.734375 203.878906 186.078125 203.878906 C 191.417969 203.878906 195.75 200.476562 195.75 196.28125 C 195.75 192.082031 191.417969 188.683594 186.078125 188.683594 Z M 186.078125 211.390625 C 180.734375 211.390625 176.40625 214.792969 176.40625 218.988281 C 176.40625 223.1875 180.734375 226.589844 186.078125 226.589844 C 191.417969 226.589844 195.75 223.1875 195.75 218.988281 C 195.75 214.792969 191.417969 211.390625 186.078125 211.390625 Z M 186.078125 114.378906 C 181.238281 114.378906 177.316406 117.460938 177.316406 121.261719 C 177.316406 125.0625 181.238281 128.144531 186.078125 128.144531 C 190.914062 128.144531 194.835938 125.0625 194.835938 121.261719 C 194.835938 117.460938 190.914062 114.378906 186.078125 114.378906 Z M 186.078125 106.988281 C 189.894531 106.988281 192.984375 104.554688 192.984375 101.558594 C 192.984375 98.5625 189.894531 96.128906 186.078125 96.128906 C 182.261719 96.128906 179.167969 98.5625 179.167969 101.558594 C 179.167969 104.554688 182.261719 106.988281 186.078125 106.988281 Z M 186.078125 165.40625 C 180.734375 165.40625 176.40625 168.808594 176.40625 173.003906 C 176.40625 177.199219 180.734375 180.601562 186.078125 180.601562 C 191.417969 180.601562 195.75 177.199219 195.75 173.003906 C 195.75 168.808594 191.417969 165.40625 186.078125 165.40625 Z M 186.078125 139.289062 C 180.734375 139.289062 176.40625 142.691406 176.40625 146.886719 C 176.40625 151.085938 180.734375 154.488281 186.078125 154.488281 C 191.417969 154.488281 195.75 151.085938 195.75 146.886719 C 195.75 142.691406 191.417969 139.289062 186.078125 139.289062 Z M 186.078125 139.289062 " fill-opacity="1" fill-rule="nonzero"/><g clip-path="url(#2397b067d8)"><path fill="#fcbbbb" d="M 162.945312 223.011719 C 161.480469 208.875 161.699219 194.621094 162.582031 180.457031 C 163.464844 166.308594 164.929688 152.199219 166.285156 138.09375 C 167.621094 124.179688 169.011719 110.269531 170.636719 96.382812 C 172.269531 82.410156 174.128906 68.464844 176.394531 54.578125 C 178.648438 40.734375 181.3125 26.957031 184.535156 13.304688 C 184.597656 13.046875 184.703125 12.832031 184.828125 12.652344 C 185.46875 11.714844 186.820312 11.765625 187.632812 12.457031 C 188.175781 12.191406 188.820312 12.144531 189.34375 12.386719 C 189.355469 12.390625 189.367188 12.394531 189.378906 12.398438 C 189.75 12.582031 190.050781 12.921875 190.207031 13.425781 C 190.222656 13.484375 190.25 13.535156 190.261719 13.601562 C 190.304688 13.789062 190.34375 13.980469 190.382812 14.167969 C 190.710938 15.6875 191.035156 17.207031 191.351562 18.726562 C 194.207031 32.546875 196.507812 46.476562 198.421875 60.453125 C 200.339844 74.476562 201.886719 88.550781 203.214844 102.640625 C 204.53125 116.640625 205.640625 130.660156 206.714844 144.679688 C 207.796875 158.792969 208.984375 172.910156 209.40625 187.058594 C 209.824219 201.207031 209.390625 215.386719 207.261719 229.394531 C 207.105469 230.425781 205.816406 230.984375 204.910156 230.734375 C 203.832031 230.4375 203.417969 229.398438 203.574219 228.378906 C 203.832031 226.679688 204.066406 224.980469 204.269531 223.273438 C 205.9375 209.382812 205.980469 195.347656 205.371094 181.386719 C 204.761719 167.390625 203.570312 153.417969 202.488281 139.449219 C 201.402344 125.429688 200.257812 111.414062 198.886719 97.417969 C 197.523438 83.535156 195.941406 69.675781 193.941406 55.867188 C 192.117188 43.25 189.949219 30.675781 187.332031 18.195312 C 187.238281 18.597656 187.144531 19 187.050781 19.402344 C 183.976562 33.015625 181.445312 46.746094 179.292969 60.535156 C 177.144531 74.304688 175.378906 88.132812 173.820312 101.980469 C 172.253906 115.871094 170.898438 129.78125 169.574219 143.699219 C 168.238281 157.761719 166.792969 171.832031 166.101562 185.945312 C 165.410156 200.050781 165.527344 214.230469 167.394531 228.246094 C 167.53125 229.28125 166.410156 230.164062 165.484375 230.164062 C 164.351562 230.164062 163.707031 229.273438 163.570312 228.246094 C 163.335938 226.503906 163.128906 224.757812 162.945312 223.011719 Z M 230.699219 95.183594 C 230.980469 95.875 231.242188 96.578125 231.472656 97.289062 C 231.625 97.761719 231.917969 98.179688 232.351562 98.433594 C 232.761719 98.671875 233.367188 98.777344 233.824219 98.625 C 234.773438 98.320312 235.492188 97.289062 235.160156 96.269531 C 234.496094 94.21875 233.625 92.222656 232.558594 90.347656 C 232.0625 89.476562 230.800781 89.105469 229.941406 89.660156 C 229.0625 90.226562 228.722656 91.351562 229.253906 92.28125 C 229.789062 93.222656 230.269531 94.191406 230.699219 95.183594 Z M 222.628906 101.855469 C 223.160156 102.703125 224.359375 103.117188 225.246094 102.542969 C 226.09375 101.996094 226.503906 100.828125 225.933594 99.921875 C 225.09375 98.585938 224.359375 97.183594 223.730469 95.734375 C 223.589844 95.390625 223.453125 95.050781 223.324219 94.703125 C 223.148438 94.226562 222.898438 93.824219 222.445312 93.558594 C 222.035156 93.316406 221.429688 93.214844 220.972656 93.363281 C 220.054688 93.660156 219.261719 94.714844 219.636719 95.722656 C 220.429688 97.859375 221.414062 99.921875 222.628906 101.855469 Z M 238.980469 89.859375 C 238.429688 88.9375 238.800781 87.796875 239.664062 87.238281 C 240.539062 86.675781 241.769531 87.066406 242.28125 87.925781 C 243.636719 90.195312 244.699219 92.65625 245.441406 95.191406 C 245.742188 96.222656 245.078125 97.234375 244.105469 97.550781 C 243.113281 97.871094 242.03125 97.171875 241.753906 96.210938 C 241.578125 95.617188 241.386719 95.023438 241.175781 94.441406 C 241.078125 94.167969 240.976562 93.898438 240.871094 93.628906 C 240.859375 93.605469 240.78125 93.410156 240.730469 93.28125 C 240.707031 93.222656 240.679688 93.167969 240.65625 93.109375 C 240.167969 91.992188 239.605469 90.90625 238.980469 89.859375 Z M 240.683594 93.167969 C 240.695312 93.199219 240.703125 93.214844 240.714844 93.238281 C 240.695312 93.195312 240.683594 93.167969 240.683594 93.167969 Z M 258.695312 304.042969 C 256.609375 294.011719 251.113281 284.894531 243.222656 278.367188 C 238.558594 274.511719 233.265625 271.714844 228.144531 269.007812 C 225.808594 267.773438 223.398438 266.496094 221.125 265.160156 C 213.847656 260.871094 209.144531 256.308594 206.804688 251.273438 C 205.425781 251.960938 203.929688 252.417969 202.429688 252.808594 C 198.285156 253.882812 194.015625 254.371094 189.738281 254.496094 C 199.511719 269.890625 199.828125 279.105469 199.121094 284.835938 C 198.582031 289.234375 197.03125 293.445312 195.195312 297.761719 C 197.332031 288.9375 197.367188 279.617188 195.261719 270.71875 C 194.710938 268.332031 193.925781 265.929688 193.125 263.734375 C 192.304688 261.535156 191.503906 259.496094 190.730469 257.570312 C 190.285156 256.503906 189.824219 255.492188 189.359375 254.511719 C 186.632812 254.578125 183.902344 254.5 181.199219 254.328125 C 176.902344 254.054688 172.542969 253.566406 168.582031 251.882812 C 166.386719 250.953125 164.316406 249.601562 162.664062 247.890625 C 162.542969 248.226562 162.421875 248.5625 162.300781 248.894531 C 161.613281 250.804688 160.964844 252.613281 160.207031 254.378906 C 154.464844 267.742188 143.355469 276.464844 135.050781 281.429688 C 132.847656 282.75 130.507812 284.003906 128.246094 285.21875 C 124.3125 287.335938 120.242188 289.523438 116.457031 292.230469 C 111.261719 295.949219 104.660156 302.21875 102.738281 310.976562 C 102.328125 312.835938 103.503906 314.675781 105.359375 315.085938 C 105.609375 315.140625 105.855469 315.167969 106.101562 315.167969 C 107.683594 315.167969 109.109375 314.070312 109.460938 312.457031 C 110.917969 305.839844 116.246094 300.855469 120.460938 297.839844 C 123.886719 295.390625 127.585938 293.402344 131.503906 291.296875 C 133.832031 290.042969 136.242188 288.75 138.578125 287.351562 C 142.738281 284.867188 147.53125 281.507812 152.136719 277.1875 C 150.894531 278.996094 149.640625 280.855469 148.417969 282.789062 L 147.300781 284.585938 L 146.199219 286.464844 C 145.488281 287.734375 144.789062 289.007812 144.160156 290.316406 C 142.882812 292.921875 141.714844 295.585938 140.785156 298.34375 C 139.851562 301.09375 139.058594 303.894531 138.460938 306.746094 C 137.875 309.597656 137.460938 312.488281 137.226562 315.398438 C 136.871094 321.21875 137.21875 327.121094 138.574219 332.824219 C 139.25 335.667969 140.144531 338.449219 141.253906 341.144531 C 141.800781 342.496094 142.417969 343.820312 143.09375 345.113281 C 143.425781 345.769531 143.777344 346.382812 144.148438 347.050781 C 144.523438 347.722656 144.921875 348.378906 145.339844 349.023438 C 147.015625 351.589844 149.011719 353.820312 150.929688 355.761719 C 152.847656 357.714844 154.636719 359.484375 156.164062 361.359375 L 156.191406 361.394531 C 157.367188 362.832031 159.46875 363.144531 161.019531 362.066406 C 162.648438 360.929688 163.050781 358.6875 161.917969 357.058594 C 160.246094 354.648438 158.375 352.511719 156.699219 350.515625 C 155.023438 348.515625 153.558594 346.636719 152.4375 344.644531 C 152.15625 344.148438 151.894531 343.644531 151.652344 343.132812 C 151.410156 342.613281 151.164062 342.03125 150.945312 341.46875 C 150.5 340.335938 150.085938 339.191406 149.722656 338.03125 C 148.988281 335.710938 148.4375 333.328125 148.078125 330.929688 C 147.3125 326.148438 147.328125 321.253906 147.941406 316.4375 C 148.253906 314.027344 148.714844 311.636719 149.316406 309.277344 C 149.929688 306.921875 150.707031 304.605469 151.601562 302.332031 C 152.492188 300.0625 153.503906 297.835938 154.652344 295.683594 C 155.207031 294.597656 155.832031 293.546875 156.457031 292.503906 L 157.425781 290.949219 L 158.46875 289.375 C 161.328125 285.183594 164.554688 280.90625 167.644531 276.207031 C 167.679688 276.152344 167.714844 276.097656 167.75 276.046875 C 167.835938 277.203125 167.9375 278.347656 168.046875 279.46875 C 168.453125 283.648438 168.960938 287.613281 168.980469 291.40625 C 169.078125 299.007812 167.671875 306.691406 164.792969 313.816406 C 163.347656 317.375 161.597656 320.816406 159.511719 324.046875 C 157.421875 327.273438 155.011719 330.292969 152.328125 333.050781 L 152.308594 333.070312 C 150.902344 334.523438 150.859375 336.84375 152.253906 338.34375 C 153.691406 339.894531 156.109375 339.984375 157.660156 338.546875 C 160.878906 335.558594 163.75 332.203125 166.253906 328.59375 C 168.761719 324.988281 170.917969 321.132812 172.632812 317.082031 C 176.066406 308.996094 177.988281 300.199219 177.921875 291.320312 C 177.917969 286.867188 177.390625 282.632812 177.03125 278.617188 C 176.664062 274.59375 176.4375 270.761719 176.8125 267.148438 C 177.035156 265.046875 177.433594 262.96875 177.984375 260.925781 C 178.125 261.382812 178.269531 261.839844 178.425781 262.285156 C 179.203125 264.4375 180.070312 266.429688 180.765625 268.324219 C 181.472656 270.226562 182.039062 271.980469 182.503906 273.84375 C 184.375 281.230469 184.4375 289.152344 182.691406 296.644531 C 182.257812 298.523438 181.726562 300.355469 181.054688 302.183594 C 180.386719 304.015625 179.597656 305.875 178.730469 307.757812 C 176.980469 311.519531 174.988281 315.417969 173.085938 319.578125 C 171.175781 323.734375 169.539062 328.28125 168.601562 333.070312 C 168.167969 335.476562 167.925781 337.960938 167.964844 340.480469 C 168.019531 342.996094 168.367188 345.546875 169.101562 347.992188 C 169.628906 349.75 171.359375 350.925781 173.242188 350.695312 C 175.34375 350.4375 176.835938 348.519531 176.578125 346.417969 L 176.5625 346.292969 C 176.117188 342.664062 176.609375 338.941406 177.753906 335.261719 C 178.308594 333.417969 179.027344 331.589844 179.855469 329.78125 C 180.691406 327.972656 181.628906 326.195312 182.632812 324.363281 C 184.5625 320.839844 186.824219 317.285156 188.925781 313.40625 C 185.628906 324.808594 187.308594 335.140625 193.605469 341.433594 C 194.355469 342.179688 195.332031 342.550781 196.308594 342.550781 C 197.289062 342.550781 198.269531 342.175781 199.019531 341.425781 C 200.511719 339.929688 200.507812 337.503906 199.011719 336.007812 C 193.53125 330.539062 194.378906 320.667969 197 313.253906 C 198.019531 310.367188 199.257812 307.5625 200.570312 304.589844 C 202.910156 299.292969 205.3125 293.832031 206.390625 287.882812 C 208.46875 291.722656 210.367188 295.457031 211.738281 299.214844 C 213.195312 303.136719 214.089844 307.300781 214.421875 311.535156 C 214.761719 315.769531 214.585938 320.074219 213.847656 324.304688 C 212.414062 332.765625 208.828125 340.917969 203.382812 347.644531 L 203.355469 347.679688 C 202.132812 349.199219 202.242188 351.429688 203.664062 352.824219 C 205.175781 354.304688 207.601562 354.277344 209.078125 352.761719 C 216.171875 345.492188 220.960938 336.105469 223.183594 326.167969 C 224.277344 321.191406 224.765625 316.054688 224.539062 310.917969 C 224.300781 305.785156 223.382812 300.648438 221.734375 295.707031 C 220.089844 290.800781 217.839844 286.351562 215.664062 282.132812 C 213.484375 277.914062 211.335938 273.90625 209.648438 269.933594 C 208.773438 267.855469 208.046875 265.738281 207.503906 263.617188 C 210.253906 266.246094 213.617188 268.734375 217.632812 271.101562 C 220.042969 272.523438 222.527344 273.835938 224.929688 275.105469 C 229.964844 277.765625 234.71875 280.28125 238.835938 283.6875 C 245.527344 289.214844 250.1875 296.945312 251.953125 305.449219 C 252.292969 307.078125 253.726562 308.195312 255.320312 308.195312 C 255.554688 308.195312 255.792969 308.171875 256.027344 308.121094 C 257.890625 307.734375 259.085938 305.910156 258.695312 304.042969 Z M 131.226562 95.734375 C 131.964844 93.199219 133.03125 90.738281 134.382812 88.46875 C 134.933594 87.550781 136.078125 87.292969 137 87.78125 C 137.910156 88.261719 138.199219 89.539062 137.6875 90.402344 C 137.0625 91.449219 136.5 92.535156 136.007812 93.65625 C 135.984375 93.710938 135.960938 93.765625 135.9375 93.824219 C 135.882812 93.953125 135.804688 94.148438 135.796875 94.171875 C 135.691406 94.441406 135.585938 94.710938 135.488281 94.984375 C 135.277344 95.566406 135.085938 96.160156 134.914062 96.753906 C 134.613281 97.785156 133.585938 98.324219 132.5625 98.09375 C 131.566406 97.867188 130.945312 96.699219 131.226562 95.734375 Z M 135.953125 93.785156 C 135.960938 93.757812 135.96875 93.742188 135.984375 93.710938 C 135.984375 93.710938 135.96875 93.742188 135.953125 93.785156 Z M 151.417969 103.085938 C 152.363281 103.585938 153.46875 103.304688 154.035156 102.398438 C 155.25 100.464844 156.234375 98.402344 157.03125 96.265625 C 157.195312 95.824219 157.066406 95.179688 156.839844 94.789062 C 156.605469 94.390625 156.152344 94.011719 155.695312 93.90625 C 155.207031 93.796875 154.65625 93.820312 154.222656 94.101562 C 153.78125 94.386719 153.523438 94.753906 153.34375 95.246094 C 153.214844 95.59375 153.074219 95.933594 152.933594 96.277344 C 152.308594 97.726562 151.574219 99.128906 150.734375 100.464844 C 150.199219 101.316406 150.527344 102.613281 151.417969 103.085938 Z M 142.839844 99.167969 C 143.890625 99.410156 144.863281 98.851562 145.195312 97.832031 C 145.425781 97.121094 145.6875 96.417969 145.96875 95.726562 C 146.398438 94.734375 146.875 93.765625 147.414062 92.824219 C 147.910156 91.957031 147.644531 90.691406 146.726562 90.203125 C 145.816406 89.722656 144.640625 89.960938 144.109375 90.890625 C 143.039062 92.765625 142.167969 94.761719 141.503906 96.8125 C 141.195312 97.765625 141.863281 98.945312 142.839844 99.167969 Z M 142.839844 99.167969 " fill-opacity="1" fill-rule="nonzero"/></g></svg>