<svg xmlns="http://www.w3.org/2000/svg" xmlns:xlink="http://www.w3.org/1999/xlink" width="500" zoomAndPan="magnify" viewBox="0 0 375 374.999991" height="500" preserveAspectRatio="xMidYMid meet" version="1.0"><path fill="#c2a6f7" d="M 311.40625 159.859375 L 304.394531 163.136719 C 308.222656 163.929688 312.023438 164.851562 315.792969 165.917969 C 318.695312 166.738281 317.453125 171.253906 314.542969 170.429688 C 308.820312 168.8125 303.019531 167.503906 297.160156 166.519531 L 281.941406 173.632812 C 279.621094 174.71875 279.621094 178.007812 281.941406 179.089844 L 299.59375 187.34375 C 304.417969 186.089844 309.21875 184.738281 313.984375 183.285156 C 316.882812 182.402344 318.113281 186.921875 315.234375 187.800781 C 312.226562 188.714844 309.210938 189.585938 306.183594 190.421875 L 312.328125 193.296875 C 319.140625 192.308594 325.925781 191.101562 332.664062 189.6875 C 335.457031 189.105469 336.636719 193.375 333.84375 193.960938 C 329.074219 194.957031 324.285156 195.851562 319.480469 196.640625 L 331.28125 202.15625 C 334.222656 203.53125 333.214844 207.933594 329.96875 207.898438 L 314.222656 207.730469 C 318.917969 211.234375 323.453125 214.953125 327.800781 218.882812 C 329.925781 220.796875 326.777344 223.921875 324.664062 222.011719 C 318.933594 216.835938 312.882812 212.046875 306.539062 207.648438 L 298.675781 207.566406 C 302.011719 210.039062 305.265625 212.625 308.417969 215.335938 C 309.382812 216.164062 309.261719 217.800781 308.417969 218.644531 C 307.476562 219.585938 306.058594 219.46875 305.101562 218.644531 C 300.445312 214.640625 295.5625 210.917969 290.480469 207.480469 L 275.484375 207.320312 C 272.921875 207.292969 271.492188 210.257812 273.109375 212.238281 L 284.5625 226.261719 C 288.707031 226.617188 292.855469 226.90625 297.007812 227.121094 C 300.015625 227.277344 300.023438 231.957031 297.007812 231.800781 C 294.21875 231.65625 291.4375 231.476562 288.652344 231.265625 L 292.539062 236.023438 C 299.3125 237.417969 306.128906 238.605469 312.976562 239.578125 C 314.171875 239.746094 314.8125 241.261719 314.527344 242.300781 C 314.179688 243.558594 312.980469 244.015625 311.796875 243.847656 C 306.820312 243.140625 301.863281 242.320312 296.921875 241.390625 L 307.535156 254.378906 C 309.585938 256.890625 306.765625 260.421875 303.855469 258.984375 L 290.5 252.390625 C 293.140625 256.527344 295.613281 260.769531 297.914062 265.109375 C 299.25 267.628906 295.417969 269.863281 294.082031 267.34375 C 290.625 260.828125 286.777344 254.527344 282.5625 248.476562 L 274.257812 244.375 C 276.605469 247.886719 278.828125 251.480469 280.902344 255.167969 C 282.378906 257.800781 278.328125 260.15625 276.847656 257.53125 C 273.441406 251.46875 269.652344 245.625 265.496094 240.050781 L 255.015625 234.875 C 252.71875 233.742188 250.140625 235.792969 250.738281 238.277344 L 254.34375 253.296875 C 258.484375 256.203125 262.6875 259.023438 266.953125 261.753906 C 269.488281 263.378906 267.132812 267.425781 264.585938 265.796875 C 261.6875 263.9375 258.816406 262.039062 255.976562 260.101562 L 257.441406 266.207031 C 263 271.148438 268.71875 275.902344 274.601562 280.457031 C 275.554688 281.195312 275.367188 282.824219 274.601562 283.589844 C 273.679688 284.507812 272.410156 284.320312 271.464844 283.589844 C 267.300781 280.367188 263.222656 277.035156 259.21875 273.617188 L 263.429688 291.148438 C 264.183594 294.300781 260.105469 296.257812 258.109375 293.703125 L 248.765625 281.753906 C 248.949219 286.234375 248.976562 290.71875 248.835938 295.199219 C 248.742188 298.046875 244.304688 298.050781 244.398438 295.199219 C 244.605469 288.667969 244.457031 282.136719 243.96875 275.625 L 238.804688 269.019531 C 238.953125 272.058594 239.023438 275.101562 239.003906 278.148438 C 238.980469 281.164062 234.289062 281.164062 234.3125 278.148438 C 234.351562 272.90625 234.132812 267.671875 233.671875 262.453125 L 224.589844 250.84375 C 223.015625 248.828125 219.800781 249.558594 219.257812 252.058594 L 215.679688 268.507812 C 217.976562 273.132812 220.378906 277.707031 222.875 282.226562 C 224.335938 284.871094 220.285156 287.226562 218.824219 284.589844 C 217.207031 281.664062 215.636719 278.714844 214.101562 275.746094 L 212.652344 282.414062 C 215.042969 288.953125 217.636719 295.417969 220.449219 301.789062 C 220.933594 302.886719 220.785156 304.160156 219.652344 304.820312 C 218.703125 305.375 217.101562 305.121094 216.617188 304.023438 C 214.621094 299.503906 212.726562 294.941406 210.929688 290.339844 L 207.699219 305.183594 C 207.011719 308.351562 202.484375 308.351562 201.796875 305.183594 L 198.296875 289.109375 C 196.042969 293.863281 193.589844 298.523438 190.929688 303.070312 C 189.492188 305.53125 185.65625 303.300781 187.097656 300.835938 C 190.675781 294.71875 193.894531 288.402344 196.734375 281.914062 L 195.078125 274.300781 C 193.613281 277.382812 192.066406 280.421875 190.414062 283.40625 C 188.957031 286.050781 184.90625 283.683594 186.363281 281.042969 C 188.957031 276.355469 191.300781 271.546875 193.40625 266.632812 L 190.234375 252.058594 C 189.691406 249.558594 186.476562 248.828125 184.902344 250.84375 L 174.980469 263.53125 C 175.085938 268.734375 175.304688 273.929688 175.640625 279.125 C 175.832031 282.136719 171.140625 282.113281 170.949219 279.125 C 170.738281 275.855469 170.578125 272.585938 170.457031 269.316406 L 166.3125 274.617188 C 165.679688 281.65625 165.273438 288.714844 165.09375 295.78125 C 165.019531 298.628906 160.582031 298.632812 160.65625 295.78125 C 160.78125 290.828125 161.019531 285.878906 161.367188 280.9375 L 151.386719 293.703125 C 149.386719 296.257812 145.308594 294.300781 146.066406 291.148438 L 149.902344 275.160156 C 145.960938 278.363281 141.886719 281.410156 137.695312 284.285156 C 136.703125 284.96875 135.230469 284.46875 134.65625 283.492188 C 134.019531 282.40625 134.46875 281.140625 135.453125 280.464844 C 141.09375 276.59375 146.488281 272.398438 151.644531 267.914062 L 153.488281 260.226562 C 150.921875 262.316406 148.296875 264.339844 145.613281 266.28125 C 144.582031 267.027344 142.992188 266.453125 142.402344 265.445312 C 141.71875 264.277344 142.21875 262.980469 143.242188 262.242188 C 147.433594 259.214844 151.460938 255.972656 155.332031 252.550781 L 158.753906 238.277344 C 159.351562 235.792969 156.773438 233.742188 154.480469 234.875 L 142.992188 240.546875 C 140.167969 245.351562 137.453125 250.222656 134.859375 255.152344 C 133.453125 257.824219 129.40625 255.457031 130.808594 252.792969 C 132.3125 249.929688 133.863281 247.089844 135.445312 244.273438 L 128.230469 247.832031 C 124.378906 253.078125 120.691406 258.4375 117.160156 263.898438 C 115.617188 266.289062 111.777344 264.066406 113.328125 261.664062 C 115.441406 258.394531 117.621094 255.164062 119.851562 251.96875 L 105.640625 258.984375 C 102.730469 260.421875 99.910156 256.890625 101.960938 254.378906 L 114.988281 238.429688 C 109.945312 239.117188 104.871094 239.609375 99.785156 239.886719 C 96.925781 240.046875 96.945312 235.617188 99.785156 235.460938 C 106.28125 235.101562 112.742188 234.386719 119.152344 233.332031 L 123.636719 227.84375 C 121.078125 228.160156 118.515625 228.425781 115.945312 228.628906 C 112.929688 228.871094 112.953125 224.1875 115.945312 223.949219 C 119.980469 223.628906 123.996094 223.144531 127.988281 222.515625 L 136.382812 212.238281 C 138.003906 210.257812 136.570312 207.292969 134.011719 207.320312 L 114.964844 207.523438 C 111.214844 210.679688 107.53125 213.910156 103.910156 217.214844 C 101.6875 219.246094 98.363281 215.945312 100.59375 213.90625 C 102.933594 211.769531 105.304688 209.671875 107.699219 207.601562 L 100.863281 207.671875 C 95.058594 211.539062 89.378906 215.582031 83.832031 219.808594 C 82.875 220.539062 81.34375 219.949219 80.796875 219.011719 C 80.136719 217.890625 80.640625 216.707031 81.59375 215.984375 C 85.296875 213.160156 89.0625 210.417969 92.882812 207.757812 L 79.523438 207.898438 C 76.277344 207.933594 75.269531 203.53125 78.210938 202.15625 L 92.847656 195.316406 C 87.214844 194.195312 81.632812 192.828125 76.117188 191.179688 C 73.382812 190.363281 74.554688 186.089844 77.296875 186.910156 C 84.648438 189.105469 92.136719 190.851562 99.707031 192.109375 L 106.824219 188.78125 C 102.90625 188.011719 99.011719 187.109375 95.152344 186.058594 C 92.238281 185.265625 93.484375 180.753906 96.398438 181.546875 C 102.253906 183.140625 108.183594 184.414062 114.171875 185.347656 L 127.554688 179.089844 C 129.871094 178.007812 129.871094 174.71875 127.554688 173.632812 L 109.542969 165.214844 C 103.191406 166.664062 96.878906 168.28125 90.613281 170.074219 C 87.699219 170.910156 86.46875 166.390625 89.363281 165.5625 C 93.792969 164.296875 98.242188 163.117188 102.714844 162.023438 L 97.363281 159.519531 C 88.875 160.464844 80.429688 161.746094 72.042969 163.355469 C 69.246094 163.890625 68.0625 159.625 70.863281 159.085938 C 77.160156 157.878906 83.492188 156.855469 89.851562 156.007812 L 78.210938 150.566406 C 75.269531 149.191406 76.277344 144.792969 79.523438 144.824219 L 89.851562 144.933594 C 85.546875 141.566406 81.386719 138.019531 77.394531 134.289062 C 75.304688 132.335938 78.449219 129.210938 80.53125 131.15625 C 85.828125 136.109375 91.410156 140.738281 97.261719 145.015625 L 105.03125 145.097656 C 102.1875 142.875 99.414062 140.5625 96.714844 138.164062 C 94.457031 136.152344 97.789062 132.855469 100.035156 134.855469 C 104.152344 138.523438 108.460938 141.960938 112.929688 145.179688 L 134.011719 145.402344 C 136.570312 145.429688 138.003906 142.46875 136.382812 140.488281 L 125.4375 127.085938 C 120.109375 126.527344 114.765625 126.085938 109.414062 125.765625 C 106.410156 125.585938 106.398438 120.90625 109.414062 121.085938 C 113.375 121.324219 117.332031 121.628906 121.28125 121.996094 L 117.816406 117.757812 C 109.785156 115.933594 101.691406 114.40625 93.546875 113.183594 C 92.355469 113.007812 91.707031 111.507812 91.996094 110.460938 C 92.339844 109.210938 93.542969 108.738281 94.726562 108.914062 C 100.957031 109.851562 107.15625 110.964844 113.320312 112.253906 L 101.960938 98.34375 C 99.910156 95.835938 102.730469 92.304688 105.640625 93.742188 L 114.667969 98.195312 C 112.605469 94.792969 110.648438 91.324219 108.808594 87.789062 C 107.492188 85.257812 111.324219 83.023438 112.640625 85.550781 C 115.570312 91.1875 118.796875 96.664062 122.292969 101.960938 L 130.585938 106.054688 C 128.898438 103.375 127.273438 100.648438 125.742188 97.867188 C 124.285156 95.222656 128.335938 92.867188 129.792969 95.503906 C 132.574219 100.546875 135.621094 105.445312 138.914062 110.164062 L 154.480469 117.847656 C 156.773438 118.980469 159.351562 116.929688 158.753906 114.445312 L 154.792969 97.9375 C 150.488281 94.5 146.105469 91.164062 141.640625 87.933594 C 140.613281 87.1875 140.105469 85.914062 140.796875 84.730469 C 141.394531 83.714844 142.980469 83.148438 144.007812 83.890625 C 147.054688 86.09375 150.066406 88.34375 153.042969 90.636719 L 151.488281 84.171875 C 146.179688 78.882812 140.695312 73.765625 135.035156 68.847656 C 134.125 68.0625 134.230469 66.519531 135.035156 65.71875 C 135.921875 64.832031 137.269531 64.933594 138.171875 65.71875 C 142.046875 69.085938 145.835938 72.546875 149.550781 76.089844 L 146.066406 61.574219 C 145.308594 58.425781 149.386719 56.464844 151.386719 59.019531 L 160.792969 71.050781 C 160.816406 65.898438 161.046875 60.75 161.503906 55.613281 C 161.753906 52.792969 166.195312 52.777344 165.941406 55.613281 C 165.316406 62.664062 165.105469 69.738281 165.296875 76.808594 L 170.03125 82.863281 C 170.046875 79.640625 170.148438 76.417969 170.355469 73.199219 C 170.550781 70.203125 175.242188 70.191406 175.046875 73.199219 C 174.710938 78.453125 174.632812 83.710938 174.800781 88.964844 L 184.902344 101.882812 C 186.476562 103.894531 189.691406 103.164062 190.234375 100.667969 L 193.980469 83.460938 C 191.605469 78.90625 189.136719 74.402344 186.566406 69.949219 C 185.058594 67.332031 189.113281 64.976562 190.617188 67.585938 C 192.296875 70.492188 193.925781 73.425781 195.519531 76.375 L 201.796875 47.539062 C 202.484375 44.375 207.011719 44.375 207.699219 47.539062 L 214.304688 77.898438 C 215.78125 74.609375 217.359375 71.363281 219.042969 68.175781 C 220.457031 65.507812 224.503906 67.875 223.09375 70.539062 C 220.46875 75.507812 218.113281 80.609375 216.027344 85.816406 L 219.257812 100.667969 C 219.800781 103.164062 223.015625 103.894531 224.589844 101.882812 L 235.527344 87.898438 C 235.394531 82.351562 235.136719 76.804688 234.742188 71.269531 C 234.53125 68.257812 239.222656 68.28125 239.433594 71.269531 C 239.691406 74.886719 239.890625 78.507812 240.035156 82.132812 L 243.980469 77.089844 C 244.636719 69.589844 245.039062 62.074219 245.183594 54.546875 C 245.234375 51.695312 249.671875 51.695312 249.621094 54.546875 C 249.515625 59.964844 249.277344 65.378906 248.90625 70.785156 L 258.109375 59.019531 C 260.105469 56.464844 264.183594 58.425781 263.429688 61.574219 L 260.105469 75.417969 C 264.15625 72.066406 268.347656 68.878906 272.667969 65.871094 C 273.65625 65.183594 275.132812 65.695312 275.703125 66.664062 C 276.34375 67.757812 275.886719 69.011719 274.90625 69.695312 C 269.128906 73.714844 263.605469 78.078125 258.347656 82.746094 L 256.492188 90.46875 C 259.214844 88.203125 262.003906 86.019531 264.867188 83.925781 C 265.890625 83.171875 267.488281 83.761719 268.074219 84.765625 C 268.761719 85.9375 268.253906 87.21875 267.234375 87.964844 C 262.851562 91.179688 258.648438 94.625 254.621094 98.269531 L 250.738281 114.445312 C 250.140625 116.929688 252.71875 118.980469 255.015625 117.847656 L 271.925781 109.5 C 273.777344 104.941406 275.53125 100.34375 277.191406 95.707031 C 277.617188 94.511719 278.777344 93.71875 280.074219 94.074219 C 281.234375 94.390625 282.140625 95.761719 281.714844 96.953125 C 280.578125 100.125 279.394531 103.28125 278.167969 106.417969 L 283.855469 103.613281 C 287.355469 97.199219 290.648438 90.667969 293.714844 84.035156 C 294.21875 82.941406 295.792969 82.679688 296.75 83.238281 C 297.855469 83.882812 298.050781 85.183594 297.546875 86.269531 C 295.367188 90.984375 293.070312 95.640625 290.671875 100.246094 L 303.855469 93.742188 C 306.765625 92.304688 309.585938 95.835938 307.535156 98.34375 L 298.445312 109.472656 C 303.527344 108.003906 308.671875 106.746094 313.871094 105.71875 C 316.664062 105.167969 317.847656 109.4375 315.050781 109.988281 C 307.71875 111.4375 300.488281 113.332031 293.394531 115.65625 L 288.15625 122.070312 C 291.878906 120.957031 295.636719 119.972656 299.433594 119.125 C 302.378906 118.46875 303.625 122.980469 300.683594 123.640625 C 294.59375 124.996094 288.597656 126.699219 282.710938 128.734375 L 273.109375 140.488281 C 271.492188 142.46875 272.921875 145.429688 275.484375 145.402344 L 295.078125 145.195312 C 299.242188 141.789062 303.328125 138.292969 307.332031 134.703125 C 309.574219 132.695312 312.902344 135.996094 310.648438 138.011719 C 307.960938 140.421875 305.230469 142.789062 302.46875 145.117188 L 309.089844 145.046875 C 315.34375 141.003906 321.464844 136.75 327.433594 132.292969 C 328.398438 131.574219 329.917969 132.144531 330.46875 133.089844 C 331.121094 134.203125 330.632812 135.402344 329.671875 136.117188 C 325.597656 139.160156 321.449219 142.109375 317.238281 144.960938 L 329.96875 144.824219 C 333.214844 144.792969 334.222656 149.191406 331.28125 150.566406 L 318.210938 156.675781 C 323.828125 157.851562 329.390625 159.28125 334.875 160.976562 C 337.601562 161.820312 336.429688 166.09375 333.695312 165.246094 C 326.382812 162.988281 318.941406 161.191406 311.40625 159.859375 Z M 311.40625 159.859375 " fill-opacity="1" fill-rule="nonzero"/><path fill="#fff9d9" d="M 188.253906 185.664062 L 218.910156 185.664062 C 218.554688 188.304688 218.070312 190.941406 216.867188 193.304688 C 213.613281 199.683594 205.078125 202.574219 198.410156 199.941406 C 192.667969 197.671875 188.761719 191.796875 188.253906 185.664062 Z M 199.042969 160.875 C 197.832031 154.257812 191.414062 149.886719 184.710938 151.113281 C 178.003906 152.34375 173.554688 158.703125 174.765625 165.320312 C 175.976562 171.9375 182.394531 176.308594 189.097656 175.078125 C 195.804688 173.851562 200.253906 167.492188 199.042969 160.875 Z M 232.375 160.875 C 231.164062 154.257812 224.746094 149.886719 218.039062 151.113281 C 211.335938 152.34375 206.882812 158.703125 208.097656 165.320312 C 209.308594 171.9375 215.726562 176.308594 222.429688 175.078125 C 229.132812 173.851562 233.585938 167.492188 232.375 160.875 Z M 232.375 160.875 " fill-opacity="1" fill-rule="nonzero"/><path fill="#936bd1" d="M 207.269531 120.523438 C 206.75 121.027344 206.066406 121.40625 205.199219 121.605469 C 198.917969 123.058594 196.222656 114.683594 201.5625 111.421875 C 202.09375 111.097656 202.730469 110.980469 203.355469 110.984375 C 207.925781 111.011719 210.199219 117.699219 207.269531 120.523438 Z M 203.597656 91.273438 C 202.976562 91.269531 202.335938 91.386719 201.804688 91.710938 C 196.464844 94.972656 199.164062 103.347656 205.445312 101.894531 C 206.308594 101.695312 206.992188 101.316406 207.511719 100.8125 C 210.441406 97.988281 208.167969 91.300781 203.597656 91.273438 Z M 204.128906 72.917969 C 203.503906 72.914062 202.867188 73.03125 202.335938 73.355469 C 196.996094 76.617188 199.691406 84.992188 205.972656 83.539062 C 206.835938 83.339844 207.519531 82.960938 208.042969 82.457031 C 210.972656 79.632812 208.699219 72.945312 204.128906 72.917969 Z M 162.710938 141.3125 C 163.085938 140.511719 163.210938 139.738281 163.136719 139.023438 C 162.722656 134.976562 156.054688 132.621094 153.203125 136.1875 C 152.816406 136.675781 152.515625 137.246094 152.441406 137.863281 C 151.707031 144.066406 159.96875 147.132812 162.710938 141.3125 Z M 147.339844 128.925781 C 147.714844 128.125 147.839844 127.355469 147.765625 126.636719 C 147.351562 122.59375 140.683594 120.238281 137.832031 123.804688 C 137.445312 124.289062 137.140625 124.863281 137.070312 125.480469 C 136.335938 131.683594 144.597656 134.75 147.339844 128.925781 Z M 123.703125 112.035156 C 123.316406 112.519531 123.015625 113.09375 122.941406 113.710938 C 122.207031 119.914062 130.46875 122.980469 133.210938 117.15625 C 133.589844 116.355469 133.710938 115.585938 133.636719 114.867188 C 133.222656 110.824219 126.554688 108.46875 123.703125 112.035156 Z M 258.507812 136.644531 C 258.082031 136.191406 257.558594 135.8125 256.957031 135.652344 C 250.90625 134.042969 246.6875 141.765625 252.074219 145.304688 C 252.8125 145.789062 253.558594 146.019531 254.28125 146.050781 C 258.355469 146.21875 261.640625 139.96875 258.507812 136.644531 Z M 272.984375 123.230469 C 272.558594 122.777344 272.03125 122.394531 271.429688 122.234375 C 265.382812 120.625 261.160156 128.351562 266.546875 131.886719 C 267.289062 132.375 268.035156 132.605469 268.757812 132.636719 C 272.832031 132.804688 276.117188 126.550781 272.984375 123.230469 Z M 286.671875 110.953125 C 286.246094 110.5 285.722656 110.121094 285.121094 109.960938 C 279.070312 108.351562 274.851562 116.074219 280.238281 119.613281 C 280.976562 120.097656 281.726562 120.332031 282.449219 120.359375 C 286.519531 120.527344 289.804688 114.277344 286.671875 110.953125 Z M 185.476562 219.332031 C 180.472656 215.277344 174.367188 221.625 177.730469 226.890625 C 178.066406 227.414062 178.585938 227.800781 179.148438 228.070312 C 183.269531 230.046875 188.25 225.03125 186.859375 221.210938 C 186.613281 220.53125 186.164062 219.890625 185.476562 219.332031 Z M 177.027344 237.152344 C 172.023438 233.097656 165.917969 239.445312 169.28125 244.710938 C 169.617188 245.234375 170.136719 245.621094 170.699219 245.890625 C 174.820312 247.863281 179.800781 242.851562 178.410156 239.03125 C 178.164062 238.351562 177.71875 237.710938 177.027344 237.152344 Z M 169.433594 253.878906 C 164.429688 249.824219 158.324219 256.171875 161.6875 261.4375 C 162.023438 261.960938 162.542969 262.347656 163.105469 262.617188 C 167.226562 264.59375 172.207031 259.578125 170.816406 255.757812 C 170.570312 255.078125 170.125 254.4375 169.433594 253.878906 Z M 141.304688 185.09375 C 141.167969 185.703125 141.265625 186.339844 141.46875 186.925781 C 142.976562 191.234375 150.054688 191.210938 151.78125 187.53125 C 152.089844 186.875 152.230469 186.109375 152.136719 185.226562 C 151.480469 178.828125 142.664062 178.996094 141.304688 185.09375 Z M 122.691406 191.714844 C 122.558594 192.320312 122.652344 192.960938 122.859375 193.546875 C 124.367188 197.855469 131.441406 197.832031 133.171875 194.148438 C 133.480469 193.496094 133.617188 192.726562 133.527344 191.847656 C 132.871094 185.449219 124.054688 185.617188 122.691406 191.714844 Z M 105.460938 198.164062 C 105.324219 198.769531 105.421875 199.410156 105.625 199.996094 C 107.136719 204.304688 114.210938 204.28125 115.941406 200.597656 C 116.246094 199.945312 116.386719 199.175781 116.296875 198.296875 C 115.636719 191.898438 106.824219 192.066406 105.460938 198.164062 Z M 228.832031 218.925781 C 228.140625 218.726562 227.355469 218.710938 226.5 218.9375 C 220.269531 220.589844 221.820312 229.25 228.066406 229.636719 C 228.691406 229.675781 229.308594 229.480469 229.855469 229.183594 C 233.882812 227.023438 232.75 220.054688 228.832031 218.925781 Z M 238.304688 236.226562 C 237.613281 236.027344 236.828125 236.011719 235.972656 236.238281 C 229.742188 237.890625 231.292969 246.550781 237.542969 246.933594 C 238.164062 246.972656 238.78125 246.777344 239.328125 246.484375 C 243.355469 244.320312 242.222656 237.355469 238.304688 236.226562 Z M 247.394531 252.195312 C 246.699219 251.996094 245.917969 251.976562 245.0625 252.207031 C 238.828125 253.859375 240.382812 262.519531 246.628906 262.902344 C 247.25 262.941406 247.871094 262.746094 248.417969 262.453125 C 252.445312 260.289062 251.3125 253.320312 247.394531 252.195312 Z M 255.019531 180.773438 C 254.375 181.097656 253.789062 181.621094 253.320312 182.367188 C 249.894531 187.820312 256.949219 193.09375 261.78125 189.121094 C 262.261719 188.726562 262.582031 188.164062 262.78125 187.574219 C 264.246094 183.253906 258.652344 178.929688 255.019531 180.773438 Z M 270.871094 186.417969 C 270.226562 186.746094 269.644531 187.265625 269.171875 188.015625 C 265.746094 193.46875 272.800781 198.742188 277.632812 194.769531 C 278.113281 194.375 278.433594 193.808594 278.632812 193.222656 C 280.097656 188.898438 274.503906 184.578125 270.871094 186.417969 Z M 288.433594 191.90625 C 287.789062 192.230469 287.207031 192.753906 286.738281 193.503906 C 283.3125 198.953125 290.367188 204.226562 295.199219 200.253906 C 295.679688 199.859375 296 199.296875 296.199219 198.707031 C 297.664062 194.386719 292.070312 190.0625 288.433594 191.90625 Z M 288.433594 191.90625 " fill-opacity="1" fill-rule="nonzero"/><path fill="#fcbbbb" d="M 183.917969 120.058594 C 185.457031 123.378906 190.3125 130.246094 188.800781 134.074219 C 186.738281 139.308594 181.871094 135.25 180.238281 132.253906 C 177.710938 127.613281 175.019531 122.671875 173.097656 117.753906 C 172.496094 116.210938 172.027344 114.5625 172.226562 112.921875 C 172.335938 112 172.6875 111.0625 173.398438 110.464844 C 174.4375 109.589844 176.03125 109.648438 177.242188 110.265625 C 180.871094 112.121094 182.332031 116.636719 183.917969 120.058594 Z M 237.273438 113.742188 C 237.050781 112.402344 236.152344 111.089844 234.828125 110.773438 C 233.921875 110.558594 232.960938 110.832031 232.152344 111.292969 C 230.710938 112.109375 229.65625 113.460938 228.773438 114.859375 C 225.949219 119.324219 223.5625 124.421875 221.320312 129.207031 C 219.875 132.296875 219.492188 138.613281 224.9375 137.160156 C 228.921875 136.101562 231.578125 128.125 233.339844 124.914062 C 235.15625 121.609375 237.929688 117.753906 237.273438 113.742188 Z M 275.828125 156.496094 C 275.355469 155.695312 274.488281 155.199219 273.59375 154.9375 C 272.003906 154.472656 270.292969 154.660156 268.671875 154.996094 C 263.496094 156.078125 258.164062 157.914062 253.160156 159.636719 C 249.929688 160.75 245.117188 164.867188 249.949219 167.761719 C 253.484375 169.878906 261.074219 166.234375 264.613281 165.265625 C 268.253906 164.269531 272.960938 163.574219 275.390625 160.3125 C 276.203125 159.222656 276.523438 157.664062 275.828125 156.496094 Z M 254.234375 209.792969 C 250.109375 206.488281 245.300781 203.542969 240.792969 200.78125 C 237.878906 198.996094 231.632812 197.898438 232.460938 203.460938 C 233.066406 207.535156 240.707031 211.066406 243.703125 213.179688 C 246.789062 215.355469 250.3125 218.542969 254.382812 218.34375 C 255.742188 218.277344 257.152344 217.535156 257.617188 216.261719 C 257.933594 215.386719 257.769531 214.402344 257.402344 213.546875 C 256.753906 212.027344 255.523438 210.828125 254.234375 209.792969 Z M 202.964844 230.972656 C 199.945312 233.777344 201.351562 242.0625 201.300781 245.722656 C 201.253906 249.492188 200.617188 254.195312 203.085938 257.429688 C 203.910156 258.507812 205.320312 259.246094 206.636719 258.90625 C 207.539062 258.671875 208.257812 257.980469 208.757812 257.195312 C 209.648438 255.800781 209.941406 254.109375 210.066406 252.460938 C 210.457031 247.199219 210.167969 241.578125 209.898438 236.304688 C 209.722656 232.898438 207.089844 227.144531 202.964844 230.972656 Z M 165.882812 206.554688 C 161.851562 205.695312 155.859375 211.601562 152.828125 213.664062 C 149.707031 215.785156 145.480469 217.96875 144.246094 221.84375 C 143.832031 223.136719 144.035156 224.710938 145.074219 225.59375 C 145.78125 226.195312 146.765625 226.386719 147.695312 226.34375 C 149.351562 226.269531 150.90625 225.539062 152.328125 224.691406 C 156.875 221.992188 161.320312 218.527344 165.492188 215.28125 C 168.183594 213.179688 171.398438 207.726562 165.882812 206.554688 Z M 157.0625 162.507812 C 155.050781 158.914062 146.648438 158.316406 143.097656 157.398438 C 139.441406 156.457031 135.011719 154.726562 131.277344 156.351562 C 130.027344 156.894531 128.976562 158.085938 128.996094 159.445312 C 129.007812 160.375 129.511719 161.238281 130.160156 161.90625 C 131.304688 163.097656 132.882812 163.785156 134.457031 164.292969 C 139.488281 165.925781 145.027344 166.976562 150.226562 167.964844 C 153.585938 168.601562 159.816406 167.417969 157.0625 162.507812 Z M 157.0625 162.507812 " fill-opacity="1" fill-rule="nonzero"/><path fill="#383c61" d="M 195.539062 161.097656 C 196.375 165.660156 193.304688 170.042969 188.679688 170.890625 C 184.058594 171.738281 179.632812 168.722656 178.796875 164.160156 C 177.960938 159.597656 181.03125 155.210938 185.652344 154.367188 C 186.425781 154.226562 187.1875 154.199219 187.933594 154.261719 C 187.628906 154.753906 187.449219 155.328125 187.453125 155.949219 C 187.460938 157.703125 188.894531 159.117188 190.65625 159.109375 C 191.992188 159.105469 193.132812 158.277344 193.601562 157.113281 C 194.5625 158.210938 195.257812 159.5625 195.539062 161.097656 Z M 228.867188 161.097656 C 228.667969 159.996094 228.253906 158.988281 227.683594 158.101562 C 227.101562 158.71875 226.285156 159.105469 225.371094 159.109375 C 223.609375 159.117188 222.175781 157.703125 222.167969 155.949219 C 222.164062 155.414062 222.296875 154.90625 222.53125 154.464844 C 221.402344 154.195312 220.203125 154.144531 218.984375 154.367188 C 214.363281 155.210938 211.292969 159.597656 212.128906 164.160156 C 212.964844 168.722656 217.390625 171.738281 222.011719 170.890625 C 226.636719 170.042969 229.703125 165.660156 228.867188 161.097656 Z M 228.867188 161.097656 " fill-opacity="1" fill-rule="nonzero"/></svg>