<svg xmlns="http://www.w3.org/2000/svg" xmlns:xlink="http://www.w3.org/1999/xlink" width="500" zoomAndPan="magnify" viewBox="0 0 375 374.999991" height="500" preserveAspectRatio="xMidYMid meet" version="1.0"><path fill="#f99393" d="M 289.339844 189.921875 C 281.902344 199.285156 280.679688 212.144531 286.210938 222.75 C 293.542969 236.820312 300.589844 249.914062 307.476562 262.707031 C 312.304688 271.683594 317.300781 280.96875 322.269531 290.355469 C 325.511719 296.484375 325.5 303.476562 322.234375 309.539062 C 318.863281 315.804688 312.609375 319.949219 305.511719 320.625 C 301.972656 320.964844 298.339844 320.390625 295.011719 318.964844 C 279.617188 312.371094 236.996094 289.914062 233.078125 287.324219 C 226.003906 282.65625 212.84375 273.960938 206.851562 274.53125 C 206.578125 274.558594 206.429688 274.605469 206.386719 274.628906 C 200.25 277.773438 192.738281 287.523438 186.703125 295.355469 C 183.464844 299.5625 180.40625 303.53125 177.328125 306.9375 C 167.449219 317.863281 156.789062 329.503906 144.730469 342.515625 C 141.15625 346.375 136.34375 348.773438 131.1875 349.265625 C 124.402344 349.914062 117.660156 347.285156 113.152344 342.234375 C 108.824219 337.382812 107.121094 330.902344 108.476562 324.464844 C 113.320312 301.488281 118.015625 275.300781 123.023438 243.234375 C 124.855469 231.527344 119.648438 219.832031 109.757812 213.320312 C 76.355469 191.328125 46.160156 170.050781 28.269531 155.816406 C 21.6875 150.582031 20.253906 142.660156 22.625 134.652344 C 25.066406 126.414062 32.203125 121.035156 40.882812 120.207031 L 46.367188 119.484375 C 79.882812 116.65625 119.414062 112.738281 136.132812 111.472656 C 139.878906 111.191406 142.917969 108.335938 143.445312 104.617188 C 146.957031 79.921875 149.492188 60.847656 152.480469 43.394531 C 154.089844 33.980469 161.679688 27.035156 171.367188 26.109375 C 179.796875 25.304688 187.597656 29.316406 191.730469 36.574219 C 199.546875 50.296875 207.617188 64.917969 216.175781 80.863281 C 222.191406 92.070312 234.566406 98.324219 247.140625 96.492188 C 273.570312 92.644531 297.460938 90.964844 326.96875 86.550781 C 327.371094 86.492188 330.757812 86.085938 331.152344 86.089844 C 340.542969 86.125 346.933594 89.050781 350.796875 96.945312 C 354.5625 104.648438 353.511719 114.199219 347.574219 120.511719 C 332.582031 136.445312 317.824219 153.355469 304.007812 171.164062 C 299.1875 177.375 294.285156 183.695312 289.339844 189.921875 Z M 289.339844 189.921875 " fill-opacity="1" fill-rule="nonzero"/><path fill="#fcbbbb" d="M 347.925781 120.34375 L 274.273438 145.300781 C 266.9375 147.789062 261.714844 138.144531 267.796875 133.347656 L 325.847656 87.59375 C 326.546875 87.085938 327.226562 86.625 327.894531 86.183594 C 328.335938 86.117188 328.765625 86.050781 329.203125 85.988281 C 329.605469 85.925781 330 85.878906 330.394531 85.84375 C 339.253906 84.996094 347.476562 89.550781 351.339844 97.445312 C 355.078125 105.082031 353.726562 114.039062 347.925781 120.34375 Z M 96.839844 153.871094 L 37.75 121.015625 C 30.242188 122.648438 24.203125 128.121094 22.011719 135.53125 C 19.863281 142.78125 21.902344 150.472656 27.1875 155.75 L 92.351562 166.707031 C 99.988281 167.988281 103.609375 157.636719 96.839844 153.871094 Z M 262.378906 256.351562 C 255.769531 252.3125 248.554688 260.570312 253.4375 266.585938 L 296.730469 319.65625 C 299.582031 320.605469 302.699219 321.417969 305.652344 321.132812 C 312.75 320.457031 319.003906 316.3125 322.378906 310.046875 C 325.125 304.945312 325.558594 299.1875 323.699219 293.839844 Z M 145.507812 276.75 L 108.050781 330.390625 C 108.316406 334.886719 110.039062 339.167969 113.117188 342.617188 C 117.625 347.671875 124.367188 350.296875 131.152344 349.648438 C 134.34375 349.34375 137.496094 347.921875 140.210938 346.261719 L 157.800781 282.535156 C 159.863281 275.066406 149.945312 270.394531 145.507812 276.75 Z M 171.617188 25.609375 C 162.066406 26.523438 154.566406 33.292969 152.8125 42.503906 C 152.964844 43.132812 153.125 43.773438 153.308594 44.433594 L 175.871094 114.855469 C 178.238281 122.234375 189.089844 120.703125 189.324219 112.957031 L 191.667969 35.566406 C 187.464844 28.632812 179.84375 24.824219 171.617188 25.609375 Z M 206.324219 236.308594 C 205.925781 232.128906 199.429688 232.742188 199.832031 236.929688 C 201.035156 249.574219 202.242188 262.21875 203.445312 274.863281 C 203.847656 279.042969 210.339844 278.429688 209.9375 274.242188 C 208.734375 261.597656 207.527344 248.953125 206.324219 236.308594 Z M 123.25 225.855469 C 133.394531 220.707031 143.472656 215.4375 153.492188 210.042969 C 155.039062 209.210938 156.0625 207.632812 155.378906 205.832031 C 154.8125 204.347656 152.730469 203.101562 151.167969 203.945312 C 141.152344 209.335938 131.070312 214.605469 120.925781 219.757812 C 119.355469 220.554688 118.367188 222.199219 119.039062 223.96875 C 119.617188 225.484375 121.671875 226.660156 123.25 225.855469 Z M 285.445312 208.078125 C 285.773438 206.1875 284.496094 204.785156 282.796875 204.296875 C 271.863281 201.160156 260.96875 197.890625 250.113281 194.492188 C 248.429688 193.96875 246.609375 195.566406 246.335938 197.144531 C 246 199.070312 247.296875 200.394531 248.984375 200.925781 C 259.839844 204.324219 270.734375 207.589844 281.667969 210.726562 C 283.359375 211.214844 285.164062 209.683594 285.445312 208.078125 Z M 145.425781 110.699219 C 142.890625 107.363281 137.582031 111.160156 140.132812 114.515625 C 147.019531 123.578125 154.015625 132.554688 161.117188 141.445312 C 163.726562 144.714844 169.039062 140.925781 166.410156 137.632812 C 159.308594 128.738281 152.3125 119.761719 145.425781 110.699219 Z M 233.648438 98.917969 C 227.527344 111.289062 221.21875 123.566406 215.132812 135.953125 C 213.277344 139.734375 219.199219 142.464844 221.050781 138.699219 C 227.136719 126.308594 233.445312 114.03125 239.570312 101.664062 C 241.4375 97.886719 235.511719 95.15625 233.648438 98.917969 Z M 233.648438 98.917969 " fill-opacity="1" fill-rule="nonzero"/><path fill="#fff9d9" d="M 178.621094 201.441406 L 214.78125 197.988281 C 214.664062 201.152344 214.386719 204.328125 213.234375 207.261719 C 210.117188 215.175781 200.378906 219.5625 192.210938 217.195312 C 185.179688 215.15625 179.914062 208.644531 178.621094 201.441406 Z M 186.652344 171.074219 C 184.472656 163.378906 176.410156 158.933594 168.640625 161.140625 C 160.871094 163.347656 156.335938 171.375 158.515625 179.070312 C 160.691406 186.765625 168.753906 191.210938 176.523438 189.003906 C 184.292969 186.796875 188.828125 178.769531 186.652344 171.074219 Z M 225.96875 167.320312 C 223.792969 159.625 215.730469 155.175781 207.960938 157.382812 C 200.1875 159.59375 195.65625 167.621094 197.832031 175.3125 C 200.007812 183.007812 208.070312 187.457031 215.839844 185.25 C 223.609375 183.042969 228.144531 175.015625 225.96875 167.320312 Z M 225.96875 167.320312 " fill-opacity="1" fill-rule="nonzero"/><path fill="#ff605a" d="M 176.878906 98.476562 C 177.578125 97.882812 178.476562 97.570312 179.382812 97.433594 C 186.027344 96.441406 190.839844 105.664062 187.226562 110.445312 C 186.585938 111.292969 185.679688 112 184.46875 112.488281 C 175.679688 116.023438 169.867188 104.4375 176.878906 98.476562 Z M 175.273438 68.667969 C 174.367188 68.800781 173.46875 69.117188 172.769531 69.710938 C 165.753906 75.667969 171.566406 87.257812 180.359375 83.71875 C 181.566406 83.234375 182.472656 82.523438 183.113281 81.675781 C 186.730469 76.898438 181.917969 67.671875 175.273438 68.667969 Z M 176.96875 56.863281 C 178.179688 56.375 179.085938 55.667969 179.726562 54.820312 C 183.339844 50.039062 178.527344 40.816406 171.882812 41.808594 C 170.976562 41.945312 170.078125 42.257812 169.382812 42.851562 C 162.367188 48.8125 168.179688 60.398438 176.96875 56.863281 Z M 135.53125 317.027344 C 134.625 316.726562 133.632812 316.582031 132.695312 316.78125 C 123.242188 318.769531 122.894531 331.734375 132.796875 332.714844 C 134.160156 332.851562 135.347656 332.648438 136.363281 332.199219 C 142.078125 329.660156 142.183594 319.253906 135.53125 317.027344 Z M 148.296875 285.730469 C 147.390625 285.425781 146.402344 285.285156 145.460938 285.484375 C 136.011719 287.472656 135.664062 300.4375 145.566406 301.417969 C 146.925781 301.554688 148.117188 301.351562 149.132812 300.902344 C 154.847656 298.363281 154.949219 287.957031 148.296875 285.730469 Z M 159.640625 258.6875 C 158.734375 258.382812 157.746094 258.242188 156.804688 258.441406 C 147.355469 260.429688 147.007812 273.394531 156.910156 274.375 C 158.269531 274.507812 159.460938 274.308594 160.476562 273.855469 C 166.191406 271.320312 166.292969 260.914062 159.640625 258.6875 Z M 288.558594 287.917969 C 287.972656 288.492188 287.496094 289.195312 287.332031 290.003906 C 285.683594 298.160156 296.777344 303.964844 301.15625 296.730469 C 301.757812 295.734375 302.007812 294.726562 301.980469 293.753906 C 301.824219 288.25 292.855469 283.730469 288.558594 287.917969 Z M 264.027344 265.890625 C 263.441406 266.464844 262.964844 267.167969 262.800781 267.980469 C 261.152344 276.132812 272.246094 281.9375 276.625 274.703125 C 277.226562 273.707031 277.476562 272.699219 277.449219 271.726562 C 277.292969 266.222656 268.324219 261.703125 264.027344 265.890625 Z M 240.015625 242.855469 C 239.429688 243.425781 238.953125 244.128906 238.789062 244.941406 C 237.140625 253.097656 248.230469 258.898438 252.613281 251.664062 C 253.214844 250.671875 253.464844 249.664062 253.4375 248.6875 C 253.28125 243.1875 244.3125 238.664062 240.015625 242.855469 Z M 34.382812 142.304688 C 34.226562 143.636719 34.417969 144.804688 34.867188 145.800781 C 37.394531 151.421875 48.082031 151.621094 50.460938 145.128906 C 50.785156 144.246094 50.945312 143.277344 50.753906 142.355469 C 48.839844 133.082031 35.527344 132.621094 34.382812 142.304688 Z M 63.25 154.238281 C 63.082031 155.65625 63.285156 156.898438 63.761719 157.957031 C 66.453125 163.933594 77.820312 164.148438 80.347656 157.242188 C 80.695312 156.304688 80.863281 155.273438 80.660156 154.292969 C 78.625 144.429688 64.464844 143.941406 63.25 154.238281 Z M 95.230469 162.375 C 95.070312 163.75 95.269531 164.957031 95.730469 165.988281 C 98.34375 171.792969 109.382812 171.996094 111.839844 165.292969 C 112.171875 164.378906 112.339844 163.378906 112.140625 162.429688 C 110.164062 152.851562 96.414062 152.375 95.230469 162.375 Z M 305.285156 119.808594 C 304.339844 119.015625 303.320312 118.578125 302.277344 118.425781 C 296.40625 117.566406 289.929688 125.824219 293.578125 130.957031 C 294.074219 131.65625 294.734375 132.269531 295.566406 132.585938 C 303.917969 135.761719 312.152344 125.585938 305.285156 119.808594 Z M 278.632812 136.332031 C 277.691406 135.539062 276.667969 135.101562 275.625 134.949219 C 269.753906 134.09375 263.277344 142.347656 266.925781 147.484375 C 267.421875 148.183594 268.082031 148.792969 268.914062 149.109375 C 277.265625 152.289062 285.5 142.109375 278.632812 136.332031 Z M 220.15625 227.835938 C 219.554688 228.421875 219.0625 229.148438 218.894531 229.984375 C 217.199219 238.378906 228.621094 244.355469 233.128906 236.90625 C 233.75 235.882812 234.007812 234.847656 233.980469 233.839844 C 233.816406 228.175781 224.585938 223.519531 220.15625 227.835938 Z M 255.019531 154.769531 C 254.074219 153.972656 253.054688 153.535156 252.011719 153.382812 C 246.140625 152.527344 239.664062 160.785156 243.3125 165.917969 C 243.808594 166.617188 244.46875 167.226562 245.300781 167.542969 C 253.652344 170.722656 261.886719 160.546875 255.019531 154.769531 Z M 140.992188 175.980469 C 141.328125 175.066406 141.492188 174.066406 141.296875 173.113281 C 139.316406 163.535156 125.566406 163.058594 124.386719 173.0625 C 124.222656 174.4375 124.421875 175.640625 124.886719 176.671875 C 127.496094 182.476562 138.535156 182.683594 140.992188 175.980469 Z M 185.269531 128.316406 C 184.390625 128.445312 183.515625 128.753906 182.839844 129.328125 C 176.027344 135.117188 181.671875 146.371094 190.210938 142.933594 C 191.382812 142.460938 192.261719 141.773438 192.886719 140.949219 C 196.394531 136.308594 191.722656 127.351562 185.269531 128.316406 Z M 171.183594 232.023438 C 170.277344 231.71875 169.285156 231.578125 168.347656 231.773438 C 158.894531 233.765625 158.546875 246.726562 168.449219 247.710938 C 169.8125 247.84375 171 247.640625 172.015625 247.191406 C 177.730469 244.65625 177.835938 234.25 171.183594 232.023438 Z M 328.007812 104.261719 C 327.0625 103.464844 326.042969 103.027344 325 102.875 C 319.128906 102.019531 312.652344 110.273438 316.300781 115.410156 C 316.796875 116.109375 317.457031 116.71875 318.289062 117.035156 C 326.640625 120.214844 334.875 110.035156 328.007812 104.261719 Z M 328.007812 104.261719 " fill-opacity="1" fill-rule="nonzero"/><path fill="#383c61" d="M 214.875 180.339844 C 209.515625 181.863281 203.957031 178.792969 202.457031 173.488281 C 200.957031 168.183594 204.082031 162.648438 209.441406 161.125 C 211.785156 160.460938 214.167969 160.671875 216.234375 161.566406 C 214.65625 162.214844 213.621094 163.835938 213.800781 165.613281 C 214.015625 167.785156 215.953125 169.371094 218.128906 169.152344 C 219.636719 169.003906 220.859375 168.027344 221.398438 166.71875 C 221.574219 167.121094 221.734375 167.539062 221.859375 167.976562 C 223.359375 173.28125 220.234375 178.816406 214.875 180.339844 Z M 181.65625 169.609375 C 181.414062 171.382812 179.988281 172.824219 178.132812 173.011719 C 175.957031 173.226562 174.019531 171.644531 173.800781 169.472656 C 173.605469 167.507812 174.886719 165.738281 176.746094 165.257812 C 174.71875 164.421875 172.402344 164.234375 170.121094 164.878906 C 164.765625 166.402344 161.640625 171.9375 163.140625 177.242188 C 164.640625 182.550781 170.199219 185.617188 175.558594 184.09375 C 180.914062 182.570312 184.042969 177.035156 182.539062 171.730469 C 182.328125 170.976562 182.023438 170.269531 181.65625 169.609375 Z M 181.65625 169.609375 " fill-opacity="1" fill-rule="nonzero"/></svg>